<svg width="79" height="46" viewBox="0 0 79 46" fill="none" xmlns="http://www.w3.org/2000/svg">
<path d="M6 0H79V21H76.9539C76.9539 21 74.1585 1.93005 55.3954 1.64823C37.1565 1.37281 33.9728 21 33.9728 21H28.1061C28.1061 21 24.4214 2.19693 6 1.78487V0Z" fill="#5EBE80"/>
<path d="M6 46H79V25H76.9539C76.9539 25 74.1585 44.0699 55.3954 44.3518C37.1565 44.6272 33.9728 25 33.9728 25H28.1061C28.1061 25 24.4214 43.8031 6.00212 44.2151V46H6Z" fill="#5EBE80"/>
<path d="M6.5 30C10.0899 30 13 27.0898 13 23.5C13 19.9101 10.0899 17 6.5 17C2.91015 17 0 19.9101 0 23.5C0 27.0898 2.91015 30 6.5 30Z" fill="#5EBE80"/>
<path d="M55 22H12V25H55V22Z" fill="#5EBE80"/>
<path d="M65 24.4634L53.6107 13C53.6107 13 55.7061 16.4545 54.8224 20.674L53.6107 23.5765L54.3662 26.6072C54.5963 30.9155 52 34 52 34L64.998 24.4634H65Z" fill="#5EBE80"/>
</svg>
