<svg width="60" height="48" viewBox="0 0 60 48" fill="none" xmlns="http://www.w3.org/2000/svg">
<path d="M49.3721 36.2226C50.2097 37.4736 51.0444 38.7262 51.8852 39.975C51.9879 40.1277 52.069 40.3069 52.327 40.2731C52.5907 40.2387 52.8621 40.2609 53.1301 40.2575C53.3633 40.2548 53.3821 40.237 53.3805 40.01C53.3627 37.8255 53.3444 35.6404 53.3266 33.4558C53.3266 33.427 53.3349 33.392 53.3227 33.3698C53.3033 33.3359 53.2695 33.2849 53.2411 33.2849C52.8177 33.2793 52.3948 33.281 51.9641 33.281C51.9641 34.093 51.9585 34.8839 51.9657 35.6742C51.9729 36.4707 51.9918 37.2677 52.0062 38.1063C51.9735 38.0242 51.9624 37.9736 51.9358 37.9337C51.5589 37.3737 51.1782 36.817 50.8024 36.257C50.1752 35.3218 49.5486 34.3866 48.9265 33.4481C48.8493 33.3315 48.7699 33.2743 48.6218 33.2821C48.3309 33.2965 48.0395 33.2865 47.7482 33.2865C47.5212 33.2865 47.5201 33.2865 47.5217 33.518C47.535 35.3939 47.5495 37.2704 47.5628 39.1464C47.565 39.4494 47.565 39.7525 47.5678 40.0555C47.5695 40.2919 47.5706 40.2925 47.7981 40.2919C48.095 40.2914 48.3925 40.2897 48.6895 40.2881C48.9309 40.2864 48.932 40.2858 48.9309 40.0488C48.9226 38.6508 48.9131 37.2527 48.9059 35.8546C48.9059 35.7824 48.9204 35.7097 48.9281 35.6376C49.1068 35.8318 49.2412 36.0261 49.3727 36.2231L49.3721 36.2226Z" fill="#5EBE80"/>
<path d="M42.9302 33.1824C40.9227 33.1735 39.2405 34.586 39.2305 36.8566C39.2222 38.7575 40.6563 40.3776 42.7965 40.4337C44.9416 40.4892 46.5428 38.9252 46.5917 36.8144C46.5728 34.8774 45.1076 33.1924 42.9302 33.1824ZM45.1031 37.2179C45.0021 37.6991 44.8289 38.1282 44.4926 38.4839C44.1862 38.8075 43.8216 39.0162 43.3742 39.1139C43.0013 39.1949 42.6405 39.1794 42.2925 39.0783C41.7381 38.9179 41.3068 38.5766 41.0127 38.0665C40.7834 37.6686 40.6674 37.2479 40.6863 36.9554C40.6919 35.9358 41.0149 35.2482 41.7425 34.7775C42.1699 34.5011 42.6416 34.4123 43.1495 34.4639C43.9837 34.5483 44.5564 35.0073 44.8994 35.7344C45.1153 36.1923 45.2152 36.6873 45.1037 37.2179H45.1031Z" fill="#5EBE80"/>
<path d="M11.7237 40.2169C11.7148 38.0268 11.7131 35.8362 11.7098 33.6461C11.7098 33.6172 11.7203 33.5806 11.707 33.5601C11.6776 33.514 11.6365 33.4396 11.5993 33.4391C11.1642 33.4308 10.7291 33.4335 10.2767 33.4335V36.2147H7.62765C7.62765 36.1259 7.62765 36.0565 7.62765 35.9866C7.62543 35.2118 7.61877 34.437 7.62432 33.6622C7.62543 33.4918 7.5838 33.423 7.40064 33.4302C7.05765 33.4441 6.71298 33.4435 6.36998 33.4302C6.20237 33.4235 6.15797 33.4863 6.16241 33.6406C6.17517 34.0773 6.18239 34.5141 6.18405 34.9509C6.19071 36.6987 6.19515 38.4464 6.20015 40.1936C6.20015 40.2735 6.20015 40.3529 6.20015 40.4395H7.64152V37.5268H10.274C10.2767 37.5917 10.2812 37.6433 10.2812 37.6944C10.2828 38.5447 10.2873 39.3955 10.2823 40.2458C10.2817 40.3962 10.3222 40.4495 10.4793 40.4439C10.8168 40.4317 11.1553 40.4312 11.4928 40.4411C11.6654 40.4461 11.7242 40.3956 11.7237 40.2153V40.2169Z" fill="#5EBE80"/>
<path d="M14.068 40.1072C14.1718 39.7814 14.2978 39.4622 14.4266 39.1453C14.4471 39.0943 14.532 39.0382 14.5875 39.0377C15.3973 39.0288 16.207 39.026 17.0163 39.0327C17.0823 39.0327 17.1839 39.0976 17.2077 39.157C17.3493 39.505 17.4747 39.8596 17.6018 40.2137C17.6429 40.3286 17.6989 40.3952 17.8382 40.3925C18.2456 40.383 18.6535 40.388 19.0615 40.3863C19.107 40.3863 19.1519 40.3786 19.2224 40.3725C19.2063 40.2892 19.2041 40.2232 19.1808 40.1666C18.9122 39.51 18.6352 38.8567 18.371 38.1985C18.0558 37.412 17.7544 36.6206 17.4419 35.8336C17.1439 35.0832 16.8409 34.3356 16.5373 33.588C16.4962 33.4864 16.4418 33.4115 16.2992 33.4187C15.9795 33.4348 15.6587 33.432 15.3384 33.4231C15.2224 33.4198 15.1697 33.4775 15.1286 33.563C15.0948 33.6346 15.0709 33.7106 15.0421 33.7844C14.8772 34.2029 14.7124 34.6209 14.5464 35.0388C14.3572 35.5155 14.1679 35.9923 13.9764 36.4679C13.8121 36.8753 13.6429 37.281 13.4791 37.689C13.3409 38.0342 13.2111 38.3822 13.0723 38.7269C12.9336 39.071 12.7865 39.4112 12.6472 39.7553C12.5639 39.9612 12.4895 40.1704 12.4019 40.403C12.4923 40.4108 12.5589 40.4224 12.6255 40.4219C12.9807 40.4174 13.3359 40.4086 13.6912 40.4036C13.9848 40.3997 13.977 40.393 14.068 40.1088V40.1072ZM15.7702 35.1453C16.1021 36.0517 16.4335 36.9558 16.7704 37.876H14.8323C15.1486 36.9547 15.4578 36.055 15.7702 35.1453Z" fill="#5EBE80"/>
<path d="M5.45471 40.4532C5.50244 40.4532 5.55073 40.4459 5.61899 40.4404C4.6738 39.2615 3.74582 38.1032 2.82116 36.9499C3.65757 35.7888 4.48732 34.6366 5.34648 33.4444C4.84308 33.4444 4.40684 33.45 3.97115 33.4405C3.85349 33.4378 3.78855 33.4872 3.72972 33.571C3.58542 33.7763 3.44222 33.9828 3.29681 34.1876C2.8922 34.7581 2.4876 35.3281 2.08244 35.8981C1.9126 36.1374 1.74277 36.376 1.56183 36.6302C1.54407 36.5902 1.53242 36.5753 1.53242 36.5608C1.53131 35.594 1.52798 34.6272 1.53242 33.6603C1.53297 33.5099 1.48857 33.4522 1.33317 33.4577C0.989611 33.4688 0.645502 33.4738 0.302503 33.465C0.129893 33.4605 0.0882669 33.5255 0.0893769 33.6892C0.0993672 34.9296 0.100477 36.1707 0.104917 37.4111C0.108247 38.3313 0.113243 39.2521 0.117128 40.1723C0.118238 40.4526 0.117683 40.4532 0.38964 40.4537C0.709884 40.4543 1.03068 40.4443 1.35093 40.4576C1.52354 40.4648 1.56905 40.4054 1.56683 40.24C1.55462 39.3431 1.5524 38.4457 1.54685 37.5488C1.54685 37.4883 1.54685 37.4278 1.54685 37.3595C1.6795 37.5477 1.79827 37.7247 1.92592 37.8956C2.52423 38.6954 3.12475 39.4935 3.72528 40.2922C3.80742 40.4015 3.90122 40.4637 4.05662 40.4593C4.52228 40.4454 4.9885 40.4548 5.45471 40.4537V40.4532Z" fill="#5EBE80"/>
<path d="M38.6276 38.7606C38.7352 38.195 38.6892 37.6606 38.3179 37.1888C37.8849 36.6393 37.2489 36.4201 36.6434 36.1493C36.3459 36.0161 36.0451 35.8856 35.7637 35.7236C35.4934 35.5676 35.3868 35.1858 35.5117 34.901C35.7359 34.3893 36.5113 34.2261 36.8604 34.6352C36.9775 34.7728 37.0458 34.956 37.1185 35.1258C37.159 35.2196 37.2023 35.2579 37.3077 35.2551C37.6047 35.2474 37.9022 35.2512 38.1991 35.2512C38.319 35.2512 38.4389 35.2512 38.5704 35.2512C38.541 34.8305 38.4561 34.4631 38.2407 34.129C37.8944 33.5917 37.376 33.3209 36.7727 33.2332C36.0789 33.1322 35.4124 33.2493 34.8335 33.6794C34.0592 34.2544 33.9105 35.0059 34.0825 35.7724C34.2268 36.4157 34.7341 36.7942 35.3075 37.0556C35.7476 37.2565 36.2144 37.398 36.6573 37.594C37.1668 37.8199 37.3827 38.1556 37.1595 38.7134C37.0386 39.0165 36.6645 39.2507 36.3131 39.2401C35.9391 39.2285 35.6443 39.0686 35.4951 38.7118C35.4168 38.5247 35.3724 38.3232 35.3113 38.1246H33.9316C33.8872 38.4886 33.9599 38.8233 34.0836 39.128C34.4294 39.9794 35.1226 40.3729 36.0057 40.4423C36.3254 40.4673 36.6528 40.4195 36.9742 40.3846C37.401 40.3385 37.7584 40.1343 38.0653 39.844C38.3767 39.5498 38.5476 39.178 38.6276 38.7606Z" fill="#5EBE80"/>
<path d="M58.9972 38.0524C58.9839 37.7694 58.9112 37.5107 58.7636 37.2643C58.506 36.8341 58.1003 36.5894 57.6735 36.379C57.1812 36.137 56.6734 35.9278 56.1739 35.6997C55.9885 35.6148 55.8442 35.471 55.8126 35.2712C55.7498 34.87 55.8869 34.6069 56.2349 34.4248C56.6062 34.2306 57.0791 34.326 57.2822 34.6313C57.3871 34.7889 57.4371 34.9832 57.5153 35.1691H58.8979C58.8962 34.7828 58.8069 34.4409 58.6237 34.1296C58.3229 33.6178 57.8689 33.3231 57.2883 33.1994C56.745 33.0834 56.2072 33.0989 55.7004 33.307C55.0677 33.5668 54.5921 33.9958 54.4267 34.7046C54.3334 35.1053 54.3379 35.4927 54.4855 35.8745C54.6764 36.3679 55.0527 36.691 55.5162 36.9041C56.0035 37.1283 56.5102 37.3103 57.0047 37.5207C57.2345 37.6184 57.4637 37.7538 57.5342 38.003C57.6452 38.3965 57.5647 38.7157 57.2151 38.9754C56.8793 39.2246 56.5674 39.2368 56.2111 39.0453C55.9052 38.881 55.7504 38.6085 55.7249 38.2661C55.7132 38.1079 55.6666 38.0285 55.4829 38.0369C55.1282 38.0524 54.7725 38.0457 54.4172 38.0391C54.2913 38.0369 54.2424 38.0846 54.2652 38.2028C54.3218 38.4953 54.3473 38.8 54.4483 39.0764C54.7003 39.7657 55.2409 40.1387 55.9347 40.3019C56.3864 40.4079 56.8421 40.409 57.3017 40.3174C57.7007 40.2381 58.0581 40.0827 58.3551 39.8074C58.8668 39.3334 59.03 38.7284 58.9978 38.0519L58.9972 38.0524Z" fill="#5EBE80"/>
<path d="M27.0921 40.1965C27.0926 40.3408 27.1348 40.3852 27.2808 40.383C27.979 40.3719 28.6777 40.3719 29.3765 40.3675C29.8016 40.3647 30.2268 40.363 30.6514 40.3525C30.7063 40.3508 30.8057 40.2992 30.8068 40.2681C30.8173 39.8807 30.814 39.4928 30.814 39.092H28.4957V33.3743H27.0493C27.0493 33.5497 27.0482 33.7117 27.0493 33.8738C27.0643 35.9817 27.081 38.0897 27.0921 40.1976V40.1965Z" fill="#5EBE80"/>
<path d="M23.7033 39.284C23.7061 39.1392 23.6533 39.0914 23.509 39.0931C22.8858 39.0992 22.2625 39.0953 21.6392 39.0959C21.385 39.0959 21.385 39.0975 21.3844 38.8483C21.3822 37.0945 21.3778 35.3406 21.3811 33.5873C21.3811 33.4192 21.3345 33.3642 21.1647 33.3709C20.8389 33.3842 20.5125 33.3748 20.1862 33.3776C19.9547 33.3798 19.9414 33.3953 19.9414 33.6262C19.9425 35.8052 19.9436 37.9842 19.9442 40.1632C19.9442 40.2264 19.9442 40.2897 19.9442 40.3674C19.9902 40.3757 20.0124 40.383 20.0347 40.383C21.2057 40.383 22.3768 40.3807 23.5473 40.3818C23.6722 40.3818 23.7072 40.3258 23.705 40.2109C23.6994 39.9023 23.6966 39.5932 23.7027 39.2846L23.7033 39.284Z" fill="#5EBE80"/>
<path d="M24.349 39.9405C24.349 40.0337 24.3545 40.1269 24.349 40.2196C24.3418 40.3406 24.3917 40.3839 24.5127 40.3817C24.8618 40.3761 25.2109 40.38 25.5606 40.3795C25.7204 40.3795 25.8002 40.2995 25.7998 40.1397C25.7887 37.9452 25.7776 35.7506 25.7654 33.5561C25.7654 33.494 25.7587 33.4323 25.7554 33.3696H24.3257C24.3257 33.4523 24.3257 33.5267 24.3257 33.6011C24.3335 35.714 24.3412 37.8264 24.349 39.9393V39.9405Z" fill="#5EBE80"/>
<path d="M18.0798 42.5808C16.8543 42.5969 15.9702 43.5232 16.0179 44.6677C15.908 45.7061 16.9193 46.8578 18.3268 46.7224C19.2237 46.6363 20.2938 45.8299 20.1844 44.4762C20.0967 43.3934 19.2298 42.5653 18.0798 42.5803V42.5808ZM18.7114 45.8321C18.1392 46.1612 17.2673 45.9542 17.002 45.3043C16.9193 45.1023 16.8693 44.8869 16.8044 44.6771C16.8188 44.6721 16.8332 44.6677 16.8477 44.6627C16.8421 44.1304 17.0525 43.7142 17.5303 43.4622C18.1164 43.1536 18.8069 43.3584 19.1504 43.9184C19.5417 44.5572 19.3502 45.4641 18.7114 45.8316V45.8321Z" fill="#5EBE80"/>
<path d="M2.30687 42.7879C1.74464 42.7601 1.1813 42.7413 0.618513 42.7202C0.574112 42.7185 0.529155 42.7279 0.477539 42.7329L0.477539 46.7501C1.13412 46.7174 1.78071 46.698 2.42564 46.648C2.86244 46.6142 3.20044 46.3666 3.46796 46.0347C3.66888 45.7855 3.75379 45.4852 3.81096 45.1672C3.92474 44.5328 3.83372 43.9495 3.44798 43.4289C3.16659 43.0493 2.79195 42.8112 2.30742 42.7873L2.30687 42.7879ZM2.89463 45.3665C2.75477 45.7089 2.50001 45.8976 2.15535 45.9537C1.91669 45.9925 1.66805 45.9798 1.42439 45.9775C1.38443 45.9775 1.31006 45.9109 1.31006 45.8749C1.30562 45.084 1.30895 44.2931 1.31117 43.5022C1.31117 43.4977 1.31728 43.4933 1.32005 43.4883C1.3256 43.4717 1.33115 43.455 1.3367 43.4389C1.6514 43.47 1.97275 43.4733 2.27967 43.5405C2.63433 43.6176 2.84024 43.8896 2.94014 44.2254C3.05392 44.6067 3.04892 44.9868 2.89463 45.3659V45.3665Z" fill="#5EBE80"/>
<path d="M29.1114 45.0575C29.42 44.901 29.622 44.6534 29.6864 44.3093C29.708 44.1944 29.799 44.0745 29.6914 43.9558C29.8113 43.7776 29.693 43.6117 29.6436 43.4574C29.4677 42.9085 29.042 42.6726 28.497 42.6459C28.003 42.6221 27.5074 42.6409 27.0123 42.6265C26.8447 42.6215 26.812 42.682 26.8125 42.8357C26.8192 44.0357 26.8175 45.2356 26.8186 46.435C26.8186 46.4927 26.8236 46.5499 26.8275 46.6337C27.0401 46.6337 27.231 46.6337 27.4225 46.6337C27.6489 46.6337 27.65 46.6332 27.6495 46.3984C27.6484 45.4665 27.6467 44.5347 27.6456 43.6028C27.6456 43.5345 27.6456 43.4668 27.6456 43.3813C27.8681 43.3813 28.0668 43.3847 28.2661 43.3808C28.5808 43.3747 28.7873 43.5256 28.896 43.8131C29.0131 44.1245 28.8444 44.6612 28.4276 44.6928C28.2339 44.7078 28.0419 44.7472 27.836 44.7772C27.8632 44.8327 27.8842 44.8843 27.9125 44.932C28.2211 45.4582 28.5308 45.9838 28.8416 46.5083C28.8661 46.5499 28.9016 46.6171 28.9332 46.6182C29.203 46.6271 29.4727 46.6232 29.7841 46.6232C29.4572 46.0837 29.1552 45.5853 28.8622 45.1019C28.9504 45.0869 29.0409 45.0919 29.1108 45.0564L29.1114 45.0575Z" fill="#5EBE80"/>
<path d="M58.3567 42.5121C58.3245 42.5026 58.3139 42.4971 58.3028 42.4965C58.1691 42.4943 58.0353 42.4921 57.901 42.491C57.654 42.4882 57.6557 42.4882 57.6562 42.7435C57.6573 43.1193 57.6562 43.495 57.6562 43.8591C57.6202 43.8158 57.5857 43.7586 57.5375 43.7192C57.0962 43.3596 56.5068 43.3407 56.0217 43.5866C55.6171 43.7919 55.3696 44.1172 55.2591 44.5684C55.1659 44.9503 55.1931 45.306 55.334 45.6662C55.455 45.9743 55.6571 46.1896 55.9396 46.3694C56.327 46.6164 56.7271 46.6275 57.1367 46.5159C57.3299 46.4632 57.4981 46.32 57.6823 46.2151C57.6873 46.2923 57.6934 46.3827 57.7006 46.4937C57.866 46.4937 58.0281 46.4832 58.1891 46.4965C58.3439 46.5093 58.3872 46.456 58.3861 46.3017C58.3772 45.0962 58.3772 43.8907 58.3733 42.6852C58.3733 42.6247 58.3622 42.5637 58.3567 42.511V42.5121ZM56.8226 45.8888C56.337 45.8971 55.9279 45.4431 55.9385 44.9902C55.9485 44.5762 56.2898 44.1194 56.8204 44.1205C57.286 44.1216 57.7489 44.5057 57.6906 45.003C57.7589 45.5014 57.2416 45.881 56.822 45.8882L56.8226 45.8888Z" fill="#5EBE80"/>
<path d="M39.2433 42.6579C38.5889 42.5763 37.9251 42.5686 37.2652 42.5303C37.2602 42.5514 37.2552 42.5725 37.2497 42.593C37.248 42.5985 37.2441 42.6041 37.2441 42.6096C37.2453 43.8912 37.2452 45.1721 37.253 46.4537C37.253 46.4936 37.3324 46.5641 37.3785 46.5675C37.5583 46.5808 37.7398 46.5652 37.9196 46.5747C38.0511 46.5813 38.0933 46.5325 38.09 46.4043C38.0822 46.0957 38.0844 45.7865 38.0844 45.478C38.0844 45.1821 38.0572 45.2221 38.342 45.2088C38.63 45.1955 38.9208 45.1827 39.2045 45.135C39.4853 45.0872 39.7145 44.9224 39.8638 44.6793C40.1369 44.2342 40.1918 43.7791 39.9615 43.2807C39.8078 42.9476 39.5769 42.7001 39.2428 42.6585L39.2433 42.6579ZM38.8293 44.4417C38.6283 44.4645 38.4235 44.4523 38.2204 44.4578C38.1305 44.4601 38.0794 44.4329 38.08 44.3302C38.0833 44.0055 38.0811 43.6803 38.0811 43.2895C38.4069 43.3278 38.7099 43.3461 39.0041 43.405C39.1606 43.4366 39.2633 43.5698 39.2738 43.7458C39.2783 43.8212 39.2755 43.8967 39.2783 43.9722C39.2894 44.2586 39.0629 44.4157 38.8293 44.4423V44.4417Z" fill="#5EBE80"/>
<path d="M22.6651 42.7229C22.0257 42.6569 21.3802 42.6447 20.7197 42.6091V46.6435C20.9539 46.6435 21.1737 46.6374 21.393 46.6458C21.514 46.6502 21.5567 46.6119 21.5534 46.4887C21.5456 46.1512 21.5489 45.8132 21.5489 45.4758C21.5489 45.4147 21.555 45.3537 21.5572 45.3148C21.9274 45.2804 22.2754 45.2699 22.6157 45.2122C23.2351 45.1073 23.5042 44.6 23.5642 44.1077C23.5958 43.8485 23.5464 43.6015 23.4326 43.354C23.2739 43.0082 23.0314 42.7612 22.6651 42.7235V42.7229ZM22.71 44.2209C22.6423 44.4163 22.4569 44.5001 22.2654 44.5206C22.0645 44.5422 21.8597 44.5323 21.6571 44.5234C21.6189 44.5217 21.5523 44.4612 21.5517 44.4262C21.5439 44.091 21.5467 43.7558 21.5467 43.3601C21.8753 43.3989 22.1728 43.4194 22.4636 43.4733C22.6279 43.5038 22.725 43.6426 22.7372 43.8102C22.7472 43.9467 22.7533 44.0955 22.71 44.2209Z" fill="#5EBE80"/>
<path d="M26.2343 46.0203C26.2371 45.9154 26.1976 45.8771 26.0905 45.8793C25.8108 45.8854 25.5311 45.8815 25.2519 45.8815C24.9589 45.8815 24.8114 45.7354 24.8096 45.443C24.8077 45.1322 24.9635 44.9768 25.2769 44.9768C25.5838 44.9768 25.8902 44.9768 26.2132 44.9768C26.2132 44.762 26.2137 44.5706 26.2132 44.3791C26.2132 44.3336 26.206 44.2881 26.2015 44.2292C26.1299 44.2292 26.0667 44.2292 26.0034 44.2292C25.6537 44.2292 25.3041 44.2287 24.9544 44.2292C24.8723 44.2292 24.8023 44.2259 24.8035 44.1143C24.8062 43.8646 24.804 43.6148 24.804 43.3512C24.8356 43.3612 24.8551 43.3734 24.8745 43.3734C25.2874 43.3767 25.7009 43.3823 26.1138 43.374C26.151 43.3734 26.2126 43.284 26.2182 43.2313C26.2326 43.0931 26.2126 42.9516 26.2237 42.8123C26.2359 42.6597 26.1699 42.628 26.0311 42.6302C25.4661 42.638 24.9011 42.6363 24.3356 42.6374C24.2146 42.6374 24.0936 42.6374 23.9609 42.6374C23.9609 42.7329 23.9609 42.8073 23.9609 42.8817C23.9632 44.0705 23.9659 45.2588 23.9676 46.4476C23.9676 46.5498 23.9554 46.6447 24.1119 46.643C24.7763 46.638 25.4401 46.6391 26.1044 46.643C26.2054 46.643 26.2382 46.6036 26.2354 46.5092C26.2315 46.3461 26.2293 46.1829 26.2337 46.0197L26.2343 46.0203Z" fill="#5EBE80"/>
<path d="M32.0459 44.443C31.7367 44.2881 31.4165 44.1555 31.1057 44.0039C30.9064 43.9068 30.8492 43.7658 30.8948 43.5461C30.9253 43.399 31.1073 43.2563 31.2755 43.2486C31.6052 43.233 31.7301 43.334 31.8183 43.6959H32.6247C32.6458 43.4262 32.5637 43.2069 32.4155 43.0049C32.0908 42.5637 31.4253 42.421 30.8398 42.6314C30.4469 42.7724 30.0201 43.1043 30.0522 43.8097C30.0728 44.252 30.4091 44.5895 30.832 44.761C31.1068 44.8725 31.3859 44.9785 31.6462 45.119C31.8977 45.2544 31.9398 45.4825 31.7983 45.7184C31.6618 45.9459 31.3549 46.0281 31.1323 45.9149C30.9031 45.7983 30.8354 45.5952 30.8032 45.3582H30.0095C29.9385 45.7928 30.1916 46.2812 30.5728 46.4976C30.917 46.693 31.2872 46.6769 31.6568 46.6447C32.2656 46.592 32.6297 46.1319 32.6952 45.6018C32.7618 45.059 32.5204 44.6811 32.0459 44.4435V44.443Z" fill="#5EBE80"/>
<path d="M4.39955 42.7296V46.7007H6.64791V45.9609H5.23429V45.0612C5.30589 45.0612 5.3686 45.0612 5.43077 45.0612C5.77432 45.0612 6.11787 45.0601 6.46143 45.0617C6.55079 45.0617 6.6357 45.0534 6.63459 44.9424C6.63293 44.7309 6.61961 44.52 6.61073 44.2941H5.23485V43.4777C5.28036 43.4738 5.31421 43.4694 5.34807 43.4688C5.73214 43.465 6.11676 43.465 6.50083 43.4544C6.55356 43.4527 6.64791 43.4028 6.64958 43.37C6.6629 43.1575 6.65679 42.9438 6.65679 42.729H4.39844L4.39955 42.7296Z" fill="#5EBE80"/>
<path d="M13.0973 42.6809C12.4801 42.6926 11.863 42.6992 11.2458 42.6937C11.0726 42.692 11.0321 42.7508 11.0332 42.914C11.041 44.1078 11.0393 45.3017 11.041 46.4955C11.041 46.5244 11.0299 46.5627 11.0443 46.581C11.0798 46.6271 11.1265 46.6992 11.1692 46.6998C11.833 46.7053 12.4968 46.7037 13.1606 46.6953C13.2072 46.6953 13.2916 46.6365 13.2932 46.6015C13.306 46.3901 13.2994 46.1769 13.2994 45.9433H11.8852V44.9842C11.9446 45.0042 11.9867 45.0314 12.0295 45.0314C12.3963 45.0325 12.7632 45.0358 13.1295 45.0192C13.1834 45.017 13.2666 44.9182 13.2772 44.8538C13.2999 44.7178 13.2794 44.5752 13.2844 44.4359C13.2883 44.3271 13.2366 44.2943 13.1362 44.2954C12.8742 44.2988 12.6122 44.2971 12.3503 44.2977C12.1954 44.2977 12.0411 44.2977 11.8685 44.2977C11.8685 44.059 11.8685 43.8442 11.8685 43.63C11.8685 43.4102 11.8691 43.4091 12.0966 43.4091C12.4913 43.4085 12.8859 43.4091 13.3016 43.4091C13.3016 43.2126 13.291 43.0494 13.3043 42.8879C13.3182 42.7231 13.255 42.6787 13.0973 42.6815V42.6809Z" fill="#5EBE80"/>
<path d="M10.4776 42.7018C10.2911 42.7046 10.1046 42.7118 9.91866 42.7018C9.80544 42.6951 9.74494 42.7434 9.71053 42.8383C9.66946 42.9515 9.63227 43.067 9.5962 43.1819C9.51683 43.4372 9.44357 43.6941 9.3592 43.9483C9.26763 44.2247 9.16439 44.4973 9.07171 44.7731C8.98512 45.0306 8.90576 45.2904 8.81251 45.5823C8.76478 45.5262 8.72482 45.4991 8.71206 45.4619C8.5561 45.0023 8.4018 44.5417 8.25084 44.0804C8.11874 43.678 7.99553 43.2723 7.85678 42.8722C7.83513 42.8094 7.75632 42.7268 7.69915 42.7229C7.46272 42.7062 7.22462 42.7157 6.95654 42.7157C6.97042 42.7961 6.97208 42.8489 6.98873 42.8966C7.05256 43.0775 7.12305 43.2562 7.18743 43.4366C7.34505 43.8784 7.49768 44.3219 7.65697 44.7631C7.87731 45.3725 8.09932 45.9814 8.32854 46.5874C8.34908 46.6418 8.42622 46.7062 8.48061 46.7101C8.6893 46.7245 8.89965 46.7195 9.10889 46.7118C9.14885 46.7101 9.2099 46.6729 9.22322 46.6374C9.3814 46.215 9.53459 45.791 9.685 45.3659C9.82264 44.9785 9.95362 44.5894 10.0913 44.2025C10.2517 43.7513 10.4165 43.3012 10.5775 42.85C10.6091 42.7617 10.5869 42.7018 10.4764 42.7034L10.4776 42.7018Z" fill="#5EBE80"/>
<path d="M46.818 42.5093C46.818 42.7463 46.8147 42.9844 46.8213 43.2225C46.8224 43.2591 46.8624 43.3063 46.8974 43.3285C47.4468 43.6715 47.7687 44.1793 47.8598 44.8032C47.9081 45.1373 47.8581 45.4947 47.8015 45.8333C47.7105 46.3827 47.3747 46.7824 46.9273 47.0965C46.8818 47.1287 46.828 47.1875 46.8252 47.2364C46.8147 47.4678 46.8202 47.6992 46.8202 47.9346C47.7371 47.7336 48.8077 46.5282 48.7051 44.9336C48.6396 43.9168 47.534 42.466 46.8169 42.5087L46.818 42.5093Z" fill="#5EBE80"/>
<path d="M36.6039 47.1141C36.0628 46.7784 35.7486 46.2705 35.6626 45.6633C35.53 44.7276 35.793 43.9217 36.6239 43.3711C36.6589 43.3478 36.7044 43.3051 36.7049 43.2701C36.7122 43.0231 36.7088 42.7756 36.7088 42.5181C35.5638 42.8921 34.8201 44.0394 34.8262 45.2621C34.8323 46.558 35.6343 47.6314 36.7188 48C36.7188 47.7724 36.7105 47.5543 36.7221 47.3378C36.7277 47.2296 36.6872 47.1663 36.6039 47.1147V47.1141Z" fill="#5EBE80"/>
<path d="M53.2178 45.9419C53.2195 45.8093 53.1479 45.7482 53.0247 45.7521C52.7405 45.7599 52.4558 45.7671 52.1722 45.7887C51.9224 45.8082 51.8985 45.796 51.8974 45.5506C51.8941 44.6188 51.8913 43.6875 51.8874 42.7556C51.8863 42.5064 51.8852 42.5064 51.6294 42.5075C51.5011 42.508 51.3729 42.5169 51.2453 42.508C51.096 42.4981 51.0433 42.5486 51.0455 42.7056C51.0544 43.305 51.0488 43.905 51.0488 44.5044C51.0521 44.5044 51.0549 44.5044 51.0582 44.5044C51.0582 45.11 51.061 45.7155 51.056 46.321C51.0549 46.4548 51.1004 46.513 51.2353 46.5119C51.8408 46.5075 52.4463 46.5053 53.0519 46.5053C53.1651 46.5053 53.2267 46.4697 53.2195 46.3438C53.2117 46.21 53.2156 46.0762 53.2173 45.9419H53.2178Z" fill="#5EBE80"/>
<path d="M15.883 45.9348C15.6038 45.9409 15.3241 45.9404 15.0449 45.9409C14.7097 45.9409 14.7391 45.977 14.7386 45.6295C14.7369 44.7099 14.7325 43.7897 14.7386 42.87C14.7397 42.7063 14.6875 42.6541 14.5293 42.6669C14.3789 42.6796 14.2263 42.6774 14.0753 42.6702C13.9449 42.6641 13.9033 42.7174 13.9038 42.8439C13.9077 44.0666 13.9083 45.2893 13.906 46.5115C13.906 46.6236 13.9399 46.6652 14.0553 46.6624C14.3523 46.6552 14.6492 46.6574 14.9461 46.6574C15.3002 46.6574 15.6538 46.6574 16.034 46.6574C16.034 46.4454 16.029 46.2656 16.0356 46.0863C16.0395 45.972 15.9951 45.932 15.883 45.9343V45.9348Z" fill="#5EBE80"/>
<path d="M42.5289 43.5695C42.3874 43.565 42.3214 43.6355 42.2836 43.7637C42.2093 44.0151 42.1288 44.2649 42.0433 44.513C41.9168 44.8815 41.7841 45.2484 41.6559 45.6114C41.5921 45.411 41.531 45.2062 41.4617 45.0042C41.3223 44.5985 41.1636 44.1983 41.0426 43.7876C40.9871 43.5994 40.8811 43.575 40.7257 43.5861C40.6852 43.5889 40.6441 43.5889 40.6036 43.5895C40.3261 43.5939 40.236 43.7267 40.3333 43.9879C40.6341 44.7911 40.9344 45.5942 41.238 46.3962C41.2802 46.5083 41.344 46.5899 41.4922 46.5715C41.6298 46.5549 41.7719 46.5754 41.9107 46.5638C41.9628 46.5593 42.035 46.5205 42.0572 46.4772C42.1188 46.3562 42.161 46.2247 42.2076 46.0964C42.4035 45.5597 42.5989 45.0225 42.7942 44.4852C42.9008 44.1922 43.0068 43.8991 43.1261 43.57C42.9075 43.57 42.7182 43.5745 42.5295 43.5684L42.5289 43.5695Z" fill="#5EBE80"/>
<path d="M54.4465 43.5265V42.4903C54.2534 42.4903 54.0791 42.4981 53.9059 42.4881C53.7694 42.4798 53.7355 42.5386 53.7389 42.6618C53.7455 42.9005 53.7367 43.1391 53.7444 43.3778C53.7483 43.5004 53.7028 43.5459 53.5824 43.5382C53.4741 43.531 53.3653 43.5365 53.2366 43.5365C53.2366 43.6986 53.2394 43.8368 53.2355 43.975C53.2327 44.0738 53.2771 44.1104 53.372 44.1071C53.4869 44.1032 53.6023 44.1059 53.7466 44.1059C53.7466 44.1997 53.7466 44.2691 53.7466 44.3379C53.7494 45.0017 53.7561 45.6655 53.7533 46.3288C53.7527 46.467 53.7966 46.5158 53.9337 46.5036C54.0552 46.4931 54.1784 46.4942 54.3 46.502C54.4504 46.5119 54.5053 46.4553 54.502 46.301C54.4893 45.6961 54.487 45.0906 54.4798 44.485C54.4754 44.1171 54.4754 44.1193 54.8323 44.0937C54.8789 44.0904 54.9605 44.0516 54.9627 44.0238C54.9754 43.8645 54.9688 43.7041 54.9688 43.5254H54.446L54.4465 43.5265Z" fill="#5EBE80"/>
<path d="M44.6606 43.5593C44.4996 43.5593 44.419 43.479 44.4186 43.3185C44.4186 43.0709 44.4186 42.8228 44.4186 42.5581C44.2138 42.5581 44.0401 42.5642 43.8669 42.5559C43.7337 42.5498 43.6943 42.6064 43.6971 42.7312C43.7026 43.0043 43.6987 43.2774 43.6987 43.5649C43.6255 43.5649 43.5739 43.5649 43.5217 43.5649C43.1959 43.5621 43.1942 43.5621 43.1965 43.8801C43.1981 44.1937 43.1598 44.1593 43.4806 44.1488C43.656 44.1432 43.7115 44.1943 43.7087 44.3735C43.6999 44.9441 43.7087 45.5146 43.711 46.0852C43.7121 46.4075 43.8719 46.5686 44.1905 46.5686C44.463 46.5686 44.4663 46.5686 44.4613 46.2994C44.4497 45.6484 44.4386 44.9974 44.418 44.3463C44.4131 44.1898 44.468 44.136 44.6184 44.1493C44.72 44.1582 44.8227 44.151 44.9187 44.151V43.5582C44.8221 43.5582 44.7411 43.5582 44.6606 43.5582V43.5593Z" fill="#5EBE80"/>
<path d="M45.766 45.7271C45.521 45.7278 45.3989 45.851 45.3997 46.0967C45.3997 46.1722 45.3991 46.2477 45.3997 46.3226C45.4024 46.5074 45.4524 46.5574 45.6367 46.5585C45.7582 46.559 45.8803 46.5579 46.0019 46.5579C46.1295 46.5579 46.1928 46.4891 46.2 46.3664C46.2039 46.297 46.2011 46.2271 46.2005 46.1577C46.1983 45.8702 46.0531 45.7267 45.7649 45.7271H45.766Z" fill="#5EBE80"/>
<path d="M58.6319 20.2393C57.6401 18.3689 55.243 17.6124 53.1467 17.9082C51.0504 18.2041 49.1772 19.3313 47.3701 20.4341C46.7108 18.2968 45.3304 16.3137 43.3429 15.288C41.3549 14.2623 38.7385 14.355 37.0396 15.8103C38.6725 15.1898 40.5706 15.8969 41.8338 17.1035C43.0971 18.3095 43.8591 19.9346 44.5923 21.5197C43.1981 22.3428 41.7534 23.1831 40.1472 23.3868C38.5409 23.5899 36.716 22.9877 35.9757 21.548C35.5511 20.7227 35.5339 19.7553 35.5261 18.8273C35.3968 3.66378 35.7985 17.2654 34.92 2.50098C34.9184 2.50931 34.9161 -0.00830463 34.9145 2.0602e-05C31.4578 14.6574 33.9548 3.34853 33.3293 18.3955C33.2228 20.9564 33.0246 23.5478 32.1977 25.9737C32.0861 26.3001 31.8991 26.6758 31.5555 26.7091C31.1465 26.7491 30.8923 26.284 30.7663 25.8927C30.2174 24.1871 29.9293 22.3978 29.916 20.6056C29.4043 20.3226 29.0807 21.1939 29.0962 21.7789C29.1412 23.5194 28.6706 25.2705 27.7576 26.7535C26.1941 25.6929 26.0043 23.5028 25.9715 21.6135C25.6901 5.53252 25.3649 16.0877 25.4343 0.00446082C23.1914 6.5109 23.2153 5.2777 23.258 12.1593C23.3097 20.4446 22.8944 12.7975 23.6271 18.6475C23.6327 19.5444 23.6316 20.4746 23.258 21.2899C22.5698 22.7929 20.751 23.5072 19.1015 23.4023C17.4515 23.2974 15.9235 22.5415 14.4461 21.8C15.1271 20.216 15.8347 18.5915 17.048 17.3665C18.2612 16.1416 20.1144 15.3901 21.7434 15.9557C20.15 14.425 17.5203 14.3173 15.5722 15.3591C13.6235 16.4008 12.3159 18.3928 11.6627 20.5035C10.0848 19.9868 8.60675 19.1959 7.02496 18.6925C5.44317 18.1891 3.67156 17.9943 2.15581 18.6719C-0.35563 19.7953 -0.516029 22.4927 0.868178 24.5584C2.22186 26.5787 4.60787 27.9229 7.05771 27.8752C10.1935 27.8136 13.1457 25.4698 13.916 22.4294C17.3654 23.823 21.4098 25.1895 24.6373 23.3407C24.7483 24.3642 24.8731 25.4298 25.4343 26.2929C25.9954 27.1559 27.1348 27.7365 28.0778 27.3246C29.1129 26.8734 29.396 25.5613 29.5108 24.438C29.7384 25.6285 30.1436 27.0283 31.3008 27.389C32.2582 27.6876 33.3066 27.0543 33.8166 26.1907C34.3267 25.3277 34.4249 24.2904 34.5115 23.2913C37.7734 25.1479 42.1979 24.6772 44.9963 22.1763C46.2495 26.0486 50.8589 28.4696 54.7579 27.3035C56.2298 26.8634 57.5946 25.9532 58.3922 24.64C59.1903 23.3269 59.3523 21.598 58.6325 20.241L58.6319 20.2393ZM9.87607 20.6267C9.38544 21.9243 8.80101 23.2114 8.00345 24.3514C7.39127 25.2272 6.59538 26.1125 5.55806 26.4766C4.16996 26.9628 2.54932 26.0026 1.85222 24.7988C1.32995 23.8969 0.990282 22.6575 1.29221 21.6307C1.55973 20.7216 2.31899 20.0389 3.09545 19.5472C4.41195 18.7136 6.04869 18.9722 7.44344 19.4473C7.60773 19.5034 9.94823 20.4341 9.87552 20.6273L9.87607 20.6267ZM56.9907 24.7982C56.2936 26.002 54.673 26.9628 53.2849 26.476C52.2481 26.1125 51.4523 25.2267 50.8395 24.3509C50.042 23.2103 49.4581 21.9238 48.9669 20.6261C48.8942 20.4336 51.2347 19.5028 51.399 19.4462C52.7937 18.9711 54.4305 18.7125 55.747 19.5461C56.5234 20.0378 57.2827 20.7199 57.5502 21.6296C57.8521 22.6564 57.5125 23.8957 56.9902 24.7976L56.9907 24.7982Z" fill="#5EBE80"/>
<path d="M29.2469 29.8495L27.4565 28.0591L25.6662 29.8495L27.4565 31.6398L29.2469 29.8495Z" fill="#5EBE80"/>
<path d="M33.911 29.8492L32.1206 28.0588L30.3302 29.8492L32.1206 31.6396L33.911 29.8492Z" fill="#5EBE80"/>
<path d="M41.891 12.4208L40.1006 10.6304L38.3102 12.4208L40.1006 14.2111L41.891 12.4208Z" fill="#5EBE80"/>
<path d="M20.6878 12.421L18.8975 10.6306L17.1071 12.421L18.8975 14.2114L20.6878 12.421Z" fill="#5EBE80"/>
</svg>
