<svg width="48" height="48" viewBox="0 0 48 48" fill="none" xmlns="http://www.w3.org/2000/svg">
<circle cx="24" cy="24" r="24" fill="#5BC482"/>
<path d="M7.66203 29.0723L15.1865 18.029H16.8149L9.29046 29.0723H7.66203ZM7.66203 29.9895V29.0723L8.84124 28.7354H16.6652V29.9895H7.66203ZM8.01767 18.3659V17.1118H16.8149V18.029L15.617 18.3659H8.01767ZM20.3419 30.1767C19.4934 30.1767 18.7197 29.9708 18.021 29.559C17.3346 29.1472 16.7856 28.5919 16.3738 27.8931C15.9745 27.1943 15.7748 26.4144 15.7748 25.5534C15.7748 24.7049 15.9745 23.9375 16.3738 23.2512C16.7856 22.5649 17.3346 22.0221 18.021 21.6227C18.7197 21.211 19.4934 21.0051 20.3419 21.0051C21.2029 21.0051 21.9766 21.2047 22.6629 21.604C23.3492 22.0033 23.892 22.5524 24.2913 23.2512C24.7031 23.9375 24.909 24.7049 24.909 25.5534C24.909 26.4269 24.7031 27.2131 24.2913 27.9119C23.892 28.5982 23.3492 29.1472 22.6629 29.559C21.9766 29.9708 21.2029 30.1767 20.3419 30.1767ZM20.3419 28.9039C20.9659 28.9039 21.5149 28.7604 21.9891 28.4734C22.4757 28.1864 22.8563 27.7871 23.1309 27.2755C23.4179 26.7638 23.5614 26.1898 23.5614 25.5534C23.5614 24.917 23.4179 24.3555 23.1309 23.8689C22.8563 23.3697 22.4757 22.9767 21.9891 22.6896C21.5149 22.4026 20.9659 22.2591 20.3419 22.2591C19.7305 22.2591 19.1814 22.4026 18.6948 22.6896C18.2081 22.9767 17.8275 23.3697 17.553 23.8689C17.2785 24.3555 17.1412 24.917 17.1412 25.5534C17.1412 26.2023 17.2785 26.7826 17.553 27.2942C17.8275 27.7933 18.2081 28.1864 18.6948 28.4734C19.1814 28.7604 19.7305 28.9039 20.3419 28.9039ZM29.0427 30.1767C28.1568 30.1767 27.3644 29.977 26.6656 29.5777C25.9668 29.1784 25.4115 28.6294 24.9997 27.9306C24.6004 27.2318 24.4008 26.4456 24.4008 25.5722C24.4008 24.7111 24.6004 23.9375 24.9997 23.2512C25.3991 22.5524 25.9419 22.0033 26.6282 21.604C27.3145 21.2047 28.0819 21.0051 28.9304 21.0051C29.7291 21.0051 30.4341 21.186 31.0455 21.5479C31.6694 21.9097 32.1561 22.4151 32.5055 23.064C32.8674 23.7004 33.0483 24.4366 33.0483 25.2727C33.0483 25.3725 33.0421 25.491 33.0296 25.6283C33.0171 25.7531 32.9922 25.9028 32.9547 26.0775H25.3367V24.9545H32.2434L31.7755 25.3663C31.788 24.7174 31.6757 24.1621 31.4386 23.7004C31.214 23.2262 30.8833 22.8643 30.4466 22.6148C30.0223 22.3527 29.5044 22.2217 28.893 22.2217C28.2566 22.2217 27.7013 22.359 27.2271 22.6335C26.753 22.908 26.3786 23.2949 26.1041 23.794C25.842 24.2806 25.711 24.8609 25.711 25.5347C25.711 26.2086 25.8483 26.8013 26.1228 27.3129C26.4098 27.8245 26.8029 28.2238 27.302 28.5108C27.8136 28.7978 28.4001 28.9413 29.0615 28.9413C29.598 28.9413 30.0909 28.8477 30.5401 28.6606C30.9894 28.4609 31.37 28.1677 31.6819 27.7808L32.5242 28.6418C32.1124 29.1285 31.6008 29.5091 30.9894 29.7836C30.3904 30.0457 29.7415 30.1767 29.0427 30.1767ZM35.8328 30.0269L31.9769 21.1922H33.4182L36.5253 28.567H35.9825L39.2581 21.1922H40.718L36.5815 30.0269H35.8328ZM33.4369 33.6956L35.8515 28.698L36.5815 30.0269L34.8782 33.6956H33.4369Z" fill="white"/>
<path d="M8.2412 32.2347C8.10585 32.2347 7.9903 32.21 7.89456 32.1604C7.79882 32.1109 7.71381 32.0391 7.63953 31.945L7.798 31.7866C7.85247 31.8625 7.91519 31.9203 7.98617 31.9599C8.05715 31.9979 8.14464 32.0168 8.24863 32.0168C8.35097 32.0168 8.43268 31.9945 8.49375 31.95C8.55648 31.9054 8.58784 31.8443 8.58784 31.7668C8.58784 31.7024 8.57298 31.6504 8.54327 31.6108C8.51356 31.5712 8.47312 31.539 8.42195 31.5142C8.37243 31.4878 8.31796 31.4647 8.25853 31.4449C8.19911 31.4234 8.13968 31.4011 8.08026 31.378C8.02084 31.3533 7.96637 31.3236 7.91685 31.2889C7.86733 31.2526 7.82688 31.2055 7.79552 31.1478C7.76581 31.09 7.75095 31.0174 7.75095 30.9299C7.75095 30.8325 7.77406 30.75 7.82028 30.6823C7.86815 30.6129 7.93253 30.5601 8.01341 30.5238C8.09594 30.4858 8.18838 30.4669 8.29072 30.4669C8.40297 30.4669 8.50366 30.4891 8.59279 30.5337C8.68193 30.5766 8.75456 30.6336 8.81068 30.7046L8.65222 30.863C8.60104 30.8036 8.54575 30.759 8.48632 30.7293C8.42855 30.6996 8.3617 30.6848 8.28577 30.6848C8.19333 30.6848 8.11988 30.7054 8.06541 30.7466C8.01093 30.7863 7.9837 30.8424 7.9837 30.915C7.9837 30.9728 7.99855 31.0198 8.02827 31.0561C8.05963 31.0908 8.10007 31.1205 8.14959 31.1453C8.19911 31.17 8.25358 31.1932 8.313 31.2146C8.37408 31.2344 8.43433 31.2567 8.49375 31.2815C8.55318 31.3062 8.60765 31.3376 8.65717 31.3756C8.70669 31.4135 8.7463 31.463 8.77601 31.5241C8.80738 31.5835 8.82306 31.6586 8.82306 31.7494C8.82306 31.9013 8.77024 32.0201 8.66459 32.106C8.5606 32.1918 8.41947 32.2347 8.2412 32.2347ZM9.0996 32.21V31.0339H9.32243V32.21H9.0996ZM9.21102 30.7986C9.16975 30.7986 9.13591 30.7854 9.1095 30.759C9.08309 30.731 9.06988 30.6963 9.06988 30.655C9.06988 30.6154 9.08309 30.5824 9.1095 30.556C9.13591 30.5279 9.16975 30.5139 9.21102 30.5139C9.25228 30.5139 9.28612 30.5279 9.31253 30.556C9.33894 30.5824 9.35215 30.6154 9.35215 30.655C9.35215 30.6963 9.33894 30.731 9.31253 30.759C9.28612 30.7854 9.25228 30.7986 9.21102 30.7986ZM9.65083 32.21V31.0339H9.87367V32.21H9.65083ZM10.4456 32.21V31.4994C10.4456 31.4119 10.4184 31.3434 10.3639 31.2938C10.3111 31.2427 10.2442 31.2171 10.1634 31.2171C10.1089 31.2171 10.0602 31.2286 10.0173 31.2518C9.97436 31.2749 9.9397 31.307 9.91329 31.3483C9.88688 31.3896 9.87367 31.4391 9.87367 31.4969L9.78206 31.4523C9.78206 31.3632 9.80104 31.2856 9.83901 31.2196C9.87862 31.1535 9.93227 31.1024 9.99995 31.0661C10.0676 31.0281 10.1436 31.0091 10.2277 31.0091C10.3103 31.0091 10.3846 31.0273 10.4506 31.0636C10.5183 31.0999 10.5711 31.1511 10.609 31.2171C10.6487 31.2831 10.6685 31.3615 10.6685 31.4523V32.21H10.4456ZM11.2404 32.21V31.4994C11.2404 31.4119 11.2132 31.3434 11.1587 31.2938C11.1059 31.2427 11.0399 31.2171 10.9606 31.2171C10.9062 31.2171 10.8566 31.2286 10.8121 31.2518C10.7692 31.2749 10.7345 31.307 10.7081 31.3483C10.6817 31.3896 10.6685 31.4391 10.6685 31.4969L10.5422 31.4523C10.5471 31.3615 10.5711 31.2839 10.614 31.2196C10.6586 31.1535 10.7155 31.1024 10.7848 31.0661C10.8542 31.0281 10.9301 31.0091 11.0126 31.0091C11.0985 31.0091 11.1752 31.0273 11.2429 31.0636C11.3106 31.0999 11.3642 31.1511 11.4038 31.2171C11.4451 31.2831 11.4657 31.3623 11.4657 31.4548V32.21H11.2404ZM12.388 32.2347C12.2988 32.2347 12.2179 32.2166 12.1453 32.1802C12.0743 32.1423 12.0174 32.0903 11.9745 32.0243C11.9316 31.9582 11.9076 31.8831 11.9027 31.7989V31.4449C11.9076 31.359 11.9316 31.2839 11.9745 31.2196C12.019 31.1535 12.0768 31.1024 12.1478 31.0661C12.2204 31.0281 12.3005 31.0091 12.388 31.0091C12.4953 31.0091 12.5918 31.0363 12.6777 31.0908C12.7651 31.1453 12.8336 31.2187 12.8832 31.3112C12.9327 31.4036 12.9574 31.5076 12.9574 31.6232C12.9574 31.7387 12.9327 31.8427 12.8832 31.9351C12.8336 32.0276 12.7651 32.101 12.6777 32.1555C12.5918 32.2083 12.4953 32.2347 12.388 32.2347ZM12.3508 32.0243C12.4251 32.0243 12.4903 32.0069 12.5464 31.9723C12.6026 31.9376 12.6471 31.8906 12.6801 31.8311C12.7131 31.7701 12.7297 31.6999 12.7297 31.6207C12.7297 31.5431 12.7131 31.4738 12.6801 31.4127C12.6471 31.3516 12.6026 31.3046 12.5464 31.2716C12.4903 31.2369 12.4259 31.2196 12.3533 31.2196C12.279 31.2196 12.2138 31.2369 12.1577 31.2716C12.1016 31.3046 12.0578 31.3516 12.0265 31.4127C11.9951 31.4738 11.9794 31.5439 11.9794 31.6232C11.9794 31.7007 11.9943 31.7701 12.024 31.8311C12.0554 31.8906 12.0991 31.9376 12.1552 31.9723C12.213 32.0069 12.2782 32.0243 12.3508 32.0243ZM11.769 32.7027V31.0339H11.9918V31.3434L11.9497 31.6281L11.9918 31.9153V32.7027H11.769ZM13.2101 32.21V30.4421H13.4329V32.21H13.2101ZM13.7614 32.21V31.0339H13.9843V32.21H13.7614ZM13.8728 30.7986C13.8316 30.7986 13.7977 30.7854 13.7713 30.759C13.7449 30.731 13.7317 30.6963 13.7317 30.655C13.7317 30.6154 13.7449 30.5824 13.7713 30.556C13.7977 30.5279 13.8316 30.5139 13.8728 30.5139C13.9141 30.5139 13.9479 30.5279 13.9744 30.556C14.0008 30.5824 14.014 30.6154 14.014 30.655C14.014 30.6963 14.0008 30.731 13.9744 30.759C13.9479 30.7854 13.9141 30.7986 13.8728 30.7986ZM14.481 32.21V30.8581C14.481 30.7706 14.5 30.6947 14.538 30.6303C14.5759 30.5643 14.6279 30.5123 14.694 30.4743C14.7616 30.4363 14.84 30.4173 14.9292 30.4173C14.9969 30.4173 15.0555 30.4289 15.105 30.452C15.1545 30.4751 15.1999 30.509 15.2412 30.5535L15.0951 30.6971C15.0736 30.674 15.0497 30.6567 15.0233 30.6451C14.9969 30.6319 14.9647 30.6253 14.9267 30.6253C14.8557 30.6253 14.8004 30.646 14.7608 30.6872C14.7228 30.7285 14.7039 30.7854 14.7039 30.8581V32.21H14.481ZM14.1913 31.2369V31.0339H15.0777V31.2369H14.1913ZM15.6516 32.2199L15.1415 31.0339H15.3891L15.768 31.9624H15.6887L16.0874 31.0339H16.335L15.7853 32.2199H15.6516ZM15.3149 32.7027L15.6615 31.9921L15.7853 32.2199L15.5625 32.7027H15.3149ZM17.5664 31.5117L16.8905 30.4916H17.1604L17.7051 31.326H17.5838L18.1309 30.4916H18.3959L17.715 31.5117H17.5664ZM17.5268 32.21V31.3582H17.7595V32.21H17.5268ZM18.8009 32.2347C18.6854 32.2347 18.5814 32.2075 18.4889 32.153C18.3965 32.0985 18.323 32.0251 18.2686 31.9326C18.2141 31.8386 18.1869 31.7337 18.1869 31.6182C18.1869 31.5043 18.2141 31.402 18.2686 31.3112C18.323 31.2187 18.3965 31.1453 18.4889 31.0908C18.5814 31.0363 18.6854 31.0091 18.8009 31.0091C18.9148 31.0091 19.018 31.0363 19.1104 31.0908C19.2045 31.1436 19.2788 31.2163 19.3332 31.3087C19.3877 31.4011 19.4149 31.5043 19.4149 31.6182C19.4149 31.7337 19.3877 31.8386 19.3332 31.9326C19.2788 32.0251 19.2045 32.0985 19.1104 32.153C19.018 32.2075 18.9148 32.2347 18.8009 32.2347ZM18.8009 32.0193C18.8752 32.0193 18.9412 32.002 18.999 31.9673C19.0568 31.9326 19.1021 31.8856 19.1352 31.8262C19.1682 31.7651 19.1847 31.6958 19.1847 31.6182C19.1847 31.5423 19.1673 31.4746 19.1327 31.4152C19.0997 31.3557 19.0543 31.3095 18.9965 31.2765C18.9404 31.2418 18.8752 31.2245 18.8009 31.2245C18.7266 31.2245 18.6606 31.2418 18.6028 31.2765C18.545 31.3095 18.4997 31.3557 18.4666 31.4152C18.4336 31.4746 18.4171 31.5423 18.4171 31.6182C18.4171 31.6958 18.4336 31.7651 18.4666 31.8262C18.4997 31.8856 18.545 31.9326 18.6028 31.9673C18.6606 32.002 18.7266 32.0193 18.8009 32.0193ZM20.1414 32.2347C20.044 32.2347 19.9565 32.2133 19.879 32.1703C19.803 32.1258 19.7436 32.0647 19.7007 31.9871C19.6578 31.9095 19.6363 31.8196 19.6363 31.7172V31.0339H19.8592V31.7073C19.8592 31.7717 19.8699 31.8278 19.8913 31.8757C19.9144 31.9219 19.9475 31.9574 19.9904 31.9822C20.0333 32.0069 20.0836 32.0193 20.1414 32.0193C20.2289 32.0193 20.2974 31.9921 20.3469 31.9376C20.3964 31.8815 20.4212 31.8047 20.4212 31.7073V31.0339H20.644V31.7172C20.644 31.8196 20.6226 31.9095 20.5797 31.9871C20.5367 32.0647 20.4773 32.1258 20.4014 32.1703C20.3271 32.2133 20.2405 32.2347 20.1414 32.2347ZM20.9427 32.21V31.0339H21.1655V32.21H20.9427ZM21.1655 31.539L21.0814 31.5018C21.0814 31.3516 21.116 31.2319 21.1854 31.1428C21.2547 31.0537 21.3545 31.0091 21.4849 31.0091C21.5444 31.0091 21.598 31.0198 21.6459 31.0413C21.6938 31.0611 21.7383 31.0949 21.7796 31.1428L21.6335 31.2938C21.6087 31.2674 21.5815 31.2485 21.5518 31.2369C21.5221 31.2253 21.4874 31.2196 21.4478 31.2196C21.3653 31.2196 21.2976 31.246 21.2448 31.2988C21.192 31.3516 21.1655 31.4317 21.1655 31.539ZM23.3146 32.2347C23.1908 32.2347 23.0761 32.2124 22.9704 32.1679C22.8648 32.1217 22.7723 32.0581 22.6931 31.9772C22.6155 31.8963 22.5553 31.8022 22.5124 31.695C22.4695 31.5877 22.448 31.4729 22.448 31.3508C22.448 31.227 22.4695 31.1114 22.5124 31.0042C22.5553 30.8969 22.6155 30.8036 22.6931 30.7244C22.7723 30.6435 22.864 30.5808 22.968 30.5362C23.0736 30.49 23.1883 30.4669 23.3121 30.4669C23.4475 30.4669 23.5663 30.49 23.6687 30.5362C23.771 30.5824 23.8618 30.6451 23.941 30.7244L23.7801 30.8853C23.7256 30.8242 23.6588 30.7764 23.5795 30.7417C23.5019 30.707 23.4128 30.6897 23.3121 30.6897C23.2213 30.6897 23.138 30.7062 23.062 30.7392C22.9861 30.7706 22.9201 30.816 22.864 30.8754C22.8078 30.9348 22.7641 31.005 22.7327 31.0859C22.703 31.1667 22.6882 31.2551 22.6882 31.3508C22.6882 31.4465 22.703 31.5348 22.7327 31.6157C22.7641 31.6966 22.8078 31.7668 22.864 31.8262C22.9201 31.8856 22.9861 31.9318 23.062 31.9648C23.138 31.9962 23.2213 32.0119 23.3121 32.0119C23.4194 32.0119 23.5127 31.9945 23.5919 31.9599C23.6711 31.9236 23.738 31.8749 23.7925 31.8138L23.9534 31.9723C23.8742 32.0548 23.7809 32.1192 23.6736 32.1654C23.568 32.2116 23.4483 32.2347 23.3146 32.2347ZM24.6983 32.2347C24.5828 32.2347 24.4788 32.2075 24.3863 32.153C24.2939 32.0985 24.2204 32.0251 24.166 31.9326C24.1115 31.8386 24.0843 31.7337 24.0843 31.6182C24.0843 31.5043 24.1115 31.402 24.166 31.3112C24.2204 31.2187 24.2939 31.1453 24.3863 31.0908C24.4788 31.0363 24.5828 31.0091 24.6983 31.0091C24.8122 31.0091 24.9154 31.0363 25.0078 31.0908C25.1019 31.1436 25.1762 31.2163 25.2306 31.3087C25.2851 31.4011 25.3124 31.5043 25.3124 31.6182C25.3124 31.7337 25.2851 31.8386 25.2306 31.9326C25.1762 32.0251 25.1019 32.0985 25.0078 32.153C24.9154 32.2075 24.8122 32.2347 24.6983 32.2347ZM24.6983 32.0193C24.7726 32.0193 24.8386 32.002 24.8964 31.9673C24.9542 31.9326 24.9995 31.8856 25.0326 31.8262C25.0656 31.7651 25.0821 31.6958 25.0821 31.6182C25.0821 31.5423 25.0648 31.4746 25.0301 31.4152C24.9971 31.3557 24.9517 31.3095 24.8939 31.2765C24.8378 31.2418 24.7726 31.2245 24.6983 31.2245C24.624 31.2245 24.558 31.2418 24.5002 31.2765C24.4425 31.3095 24.3971 31.3557 24.364 31.4152C24.331 31.4746 24.3145 31.5423 24.3145 31.6182C24.3145 31.6958 24.331 31.7651 24.364 31.8262C24.3971 31.8856 24.4425 31.9326 24.5002 31.9673C24.558 32.002 24.624 32.0193 24.6983 32.0193ZM26.3954 32.21V31.5241C26.3954 31.435 26.3673 31.3615 26.3112 31.3037C26.2551 31.246 26.1824 31.2171 26.0933 31.2171C26.0339 31.2171 25.981 31.2303 25.9348 31.2567C25.8886 31.2831 25.8523 31.3194 25.8259 31.3656C25.7995 31.4119 25.7863 31.4647 25.7863 31.5241L25.6947 31.4721C25.6947 31.383 25.7145 31.3037 25.7541 31.2344C25.7937 31.1651 25.849 31.1106 25.92 31.071C25.991 31.0297 26.071 31.0091 26.1601 31.0091C26.2493 31.0091 26.3277 31.0314 26.3954 31.076C26.4647 31.1205 26.5192 31.1791 26.5588 31.2518C26.5984 31.3227 26.6182 31.3987 26.6182 31.4795V32.21H26.3954ZM25.5634 32.21V31.0339H25.7863V32.21H25.5634ZM27.0861 32.21V30.5411H27.309V32.21H27.0861ZM26.7965 31.2369V31.0339H27.5987V31.2369H26.7965ZM27.817 32.21V31.0339H28.0398V32.21H27.817ZM28.0398 31.539L27.9556 31.5018C27.9556 31.3516 27.9903 31.2319 28.0596 31.1428C28.1289 31.0537 28.2288 31.0091 28.3592 31.0091C28.4186 31.0091 28.4723 31.0198 28.5202 31.0413C28.568 31.0611 28.6126 31.0949 28.6539 31.1428L28.5078 31.2938C28.483 31.2674 28.4558 31.2485 28.4261 31.2369C28.3964 31.2253 28.3617 31.2196 28.3221 31.2196C28.2395 31.2196 28.1719 31.246 28.119 31.2988C28.0662 31.3516 28.0398 31.4317 28.0398 31.539ZM29.2722 32.2347C29.1649 32.2347 29.0675 32.2083 28.98 32.1555C28.8926 32.101 28.8232 32.0276 28.7721 31.9351C28.7225 31.8427 28.6978 31.7387 28.6978 31.6232C28.6978 31.5076 28.7225 31.4036 28.7721 31.3112C28.8232 31.2187 28.8917 31.1453 28.9776 31.0908C29.0651 31.0363 29.1633 31.0091 29.2722 31.0091C29.3613 31.0091 29.4406 31.0281 29.5099 31.0661C29.5809 31.1024 29.6378 31.1535 29.6808 31.2196C29.7237 31.2839 29.7476 31.359 29.7526 31.4449V31.7989C29.7476 31.8831 29.7237 31.9582 29.6808 32.0243C29.6395 32.0903 29.5834 32.1423 29.5124 32.1802C29.4431 32.2166 29.363 32.2347 29.2722 32.2347ZM29.3094 32.0243C29.4199 32.0243 29.5091 31.9871 29.5768 31.9128C29.6444 31.8369 29.6783 31.7403 29.6783 31.6232C29.6783 31.5423 29.6626 31.4721 29.6312 31.4127C29.6015 31.3516 29.5586 31.3046 29.5025 31.2716C29.4464 31.2369 29.3812 31.2196 29.3069 31.2196C29.2326 31.2196 29.1666 31.2369 29.1088 31.2716C29.0527 31.3062 29.0081 31.3541 28.9751 31.4152C28.9437 31.4746 28.9281 31.5431 28.9281 31.6207C28.9281 31.6999 28.9437 31.7701 28.9751 31.8311C29.0081 31.8906 29.0535 31.9376 29.1113 31.9723C29.169 32.0069 29.2351 32.0243 29.3094 32.0243ZM29.6634 32.21V31.893L29.7055 31.6058L29.6634 31.3211V31.0339H29.8887V32.21H29.6634ZM30.7505 32.2347C30.6349 32.2347 30.5301 32.2075 30.436 32.153C30.3436 32.0985 30.2701 32.0251 30.2156 31.9326C30.1628 31.8386 30.1364 31.7346 30.1364 31.6207C30.1364 31.5051 30.1628 31.4011 30.2156 31.3087C30.2701 31.2163 30.3436 31.1436 30.436 31.0908C30.5301 31.0363 30.6349 31.0091 30.7505 31.0091C30.8412 31.0091 30.9254 31.0264 31.003 31.0611C31.0806 31.0941 31.1474 31.1428 31.2036 31.2072L31.055 31.3557C31.0187 31.3128 30.9741 31.2806 30.9213 31.2592C30.8701 31.2361 30.8132 31.2245 30.7505 31.2245C30.6762 31.2245 30.6102 31.2418 30.5524 31.2765C30.4946 31.3095 30.4492 31.3557 30.4162 31.4152C30.3832 31.4746 30.3667 31.5431 30.3667 31.6207C30.3667 31.6983 30.3832 31.7668 30.4162 31.8262C30.4492 31.8856 30.4946 31.9326 30.5524 31.9673C30.6102 32.002 30.6762 32.0193 30.7505 32.0193C30.8132 32.0193 30.8701 32.0086 30.9213 31.9871C30.9741 31.964 31.0195 31.931 31.0575 31.8881L31.2036 32.0366C31.1491 32.0994 31.0822 32.1481 31.003 32.1827C30.9254 32.2174 30.8412 32.2347 30.7505 32.2347ZM31.5908 32.21V30.5411H31.8136V32.21H31.5908ZM31.3011 31.2369V31.0339H32.1033V31.2369H31.3011ZM32.6713 32.2347C32.6053 32.2347 32.5426 32.2265 32.4831 32.21C32.4254 32.1918 32.3717 32.167 32.3222 32.1357C32.2727 32.1027 32.2298 32.0639 32.1935 32.0193L32.3371 31.8757C32.38 31.9285 32.4295 31.9681 32.4856 31.9945C32.5417 32.0193 32.6045 32.0317 32.6738 32.0317C32.7431 32.0317 32.7968 32.0201 32.8347 31.997C32.8727 31.9723 32.8917 31.9384 32.8917 31.8955C32.8917 31.8526 32.876 31.8196 32.8446 31.7965C32.8149 31.7717 32.7761 31.7519 32.7283 31.737C32.6804 31.7205 32.6292 31.7049 32.5748 31.69C32.5219 31.6735 32.4716 31.6529 32.4237 31.6281C32.3759 31.6033 32.3362 31.5695 32.3049 31.5266C32.2752 31.4837 32.2603 31.4267 32.2603 31.3557C32.2603 31.2848 32.2776 31.2237 32.3123 31.1725C32.347 31.1197 32.3948 31.0793 32.4559 31.0512C32.5186 31.0231 32.5937 31.0091 32.6812 31.0091C32.7737 31.0091 32.8554 31.0256 32.9264 31.0586C32.999 31.09 33.0584 31.1379 33.1046 31.2022L32.961 31.3458C32.928 31.3029 32.8867 31.2699 32.8372 31.2468C32.7893 31.2237 32.7349 31.2121 32.6738 31.2121C32.6094 31.2121 32.5599 31.2237 32.5252 31.2468C32.4922 31.2683 32.4757 31.2988 32.4757 31.3384C32.4757 31.378 32.4906 31.4086 32.5203 31.43C32.55 31.4515 32.5888 31.4696 32.6367 31.4845C32.6862 31.4994 32.7374 31.515 32.7902 31.5315C32.843 31.5464 32.8933 31.567 32.9412 31.5934C32.9891 31.6198 33.0279 31.6553 33.0576 31.6999C33.0889 31.7445 33.1046 31.8031 33.1046 31.8757C33.1046 31.9863 33.065 32.0738 32.9858 32.1382C32.9082 32.2025 32.8034 32.2347 32.6713 32.2347Z" fill="white"/>
</svg>
