<svg width="80" height="80" viewBox="0 0 80 80" fill="none" xmlns="http://www.w3.org/2000/svg">
<g clip-path="url(#clip0_1111_4570)">
<g clip-path="url(#clip1_1111_4570)">
<path d="M39.1714 58.5957H31.085C31.085 58.6983 31.085 58.7938 31.085 58.8898C31.085 60.9815 31.089 63.0732 31.079 65.1655C31.078 65.389 31.15 65.4785 31.3525 65.5545C32.7667 66.0861 33.5943 67.5567 33.3163 69.0174C33.0282 70.5301 31.7336 71.6032 30.2184 71.5862C28.7177 71.5692 27.4531 70.4976 27.1761 69.0084C26.906 67.5572 27.7256 66.0921 29.1303 65.5615C29.3658 65.4725 29.4158 65.3595 29.4148 65.1315C29.4068 63.0562 29.4103 60.981 29.4103 58.9058V58.5832C29.2838 58.5832 29.1863 58.5837 29.0893 58.5832C28.1642 58.5772 27.2366 58.6162 26.3155 58.5557C23.5517 58.3732 21.4299 56.082 21.4189 53.3121C21.4154 52.5036 21.4189 51.6955 21.4179 50.8869C21.4179 50.7979 21.4104 50.7084 21.4059 50.6053C21.3064 50.6003 21.2254 50.5923 21.1439 50.5923C19.0271 50.5913 16.9104 50.5943 14.7932 50.5863C14.5987 50.5858 14.5256 50.6533 14.4606 50.8279C13.9336 52.2435 12.5054 53.0766 11.0403 52.8351C9.55708 52.5906 8.45696 51.3314 8.41545 49.8313C8.37395 48.3411 9.43457 46.9994 10.8877 46.7034C12.4029 46.3949 13.8966 47.1955 14.4386 48.6276C14.5241 48.8541 14.6277 48.9227 14.8637 48.9217C16.9469 48.9121 19.0306 48.9162 21.1144 48.9162C21.2039 48.9162 21.2934 48.9162 21.4009 48.9162V40.8172C21.2959 40.8172 21.1984 40.8172 21.1009 40.8172C16.2088 40.8172 11.3168 40.8187 6.42473 40.8117C6.20371 40.8117 6.1127 40.8767 6.03769 41.0848C5.52913 42.4924 4.04346 43.342 2.5873 43.0755C1.06963 42.797 -0.00349186 41.5178 8.53828e-06 39.9931C0.00350893 38.4695 1.08213 37.1948 2.5993 36.9228C4.05546 36.6618 5.53713 37.5179 6.03969 38.93C6.1127 39.135 6.20721 39.1881 6.41173 39.1881C11.3038 39.1826 16.1958 39.1841 21.0879 39.1841H21.3994V31.1001C21.3089 31.0946 21.2279 31.0861 21.1474 31.0861C19.0306 31.0856 16.9139 31.0881 14.7967 31.0811C14.6067 31.0806 14.5256 31.1396 14.4601 31.3182C13.9371 32.7408 12.4679 33.5919 11.0187 33.3249C9.48708 33.0429 8.40445 31.7572 8.41345 30.231C8.42246 28.7149 9.52208 27.4267 11.0277 27.1682C12.4929 26.9167 13.9356 27.7603 14.4656 29.1864C14.5206 29.3344 14.5721 29.4155 14.7557 29.415C16.9059 29.4075 19.0562 29.41 21.2064 29.409C21.2634 29.409 21.3204 29.4025 21.4159 29.3965C21.4159 29.2919 21.4154 29.1959 21.4159 29.0999C21.4219 28.1748 21.3799 27.2467 21.4424 26.3261C21.6314 23.5403 23.9077 21.4341 26.7015 21.4181C27.5016 21.4136 28.3017 21.4176 29.1018 21.4176C29.1918 21.4176 29.2818 21.4176 29.3943 21.4176C29.3998 21.3165 29.4078 21.236 29.4078 21.1555C29.4083 19.0388 29.4048 16.9221 29.4138 14.8048C29.4148 14.5993 29.3443 14.5233 29.1603 14.4548C27.7591 13.9327 26.93 12.5106 27.1626 11.0519C27.3991 9.56972 28.6477 8.4696 30.1564 8.41559C31.6386 8.36259 32.9947 9.42571 33.2943 10.8754C33.6073 12.391 32.8132 13.8867 31.383 14.4333C31.15 14.5223 31.075 14.6248 31.0765 14.8758C31.0885 16.9511 31.0835 19.0263 31.0835 21.1015V21.3956H39.1649C39.1704 21.312 39.1814 21.225 39.1814 21.1375C39.1824 16.2205 39.1804 11.3034 39.1879 6.38637C39.1879 6.17534 39.1079 6.10784 38.9264 6.04233C37.5042 5.52877 36.6521 4.0411 36.9272 2.57494C37.2202 1.01926 38.5213 -0.0298554 40.12 0.000648004C41.5857 0.0286512 42.8678 1.17878 43.0879 2.66195C43.3049 4.12561 42.4588 5.54777 41.0581 6.04483C40.8641 6.11384 40.8121 6.20335 40.8121 6.39987C40.8176 11.3084 40.8161 16.2175 40.8166 21.126C40.8166 21.2085 40.8236 21.2905 40.8281 21.3946H48.9015C48.906 21.3195 48.9145 21.24 48.9145 21.1605C48.915 19.0353 48.913 16.9101 48.919 14.7848C48.9195 14.6053 48.8635 14.5278 48.694 14.4653C47.2798 13.9407 46.4432 12.5366 46.6648 11.0809C46.8913 9.59173 48.1124 8.4946 49.6326 8.41559C51.1113 8.33859 52.4874 9.40471 52.7994 10.8699C53.1225 12.3855 52.3189 13.8922 50.8702 14.4393C50.6352 14.5283 50.5852 14.6413 50.5857 14.8693C50.5937 16.9446 50.5907 19.0198 50.5902 21.095V21.4171C50.7167 21.4171 50.8142 21.4166 50.9117 21.4171C51.8448 21.4241 52.7814 21.3821 53.7105 21.4476C56.4759 21.6431 58.5801 23.9393 58.5826 26.7142C58.5836 27.5142 58.5826 28.3143 58.5831 29.1144C58.5831 29.2034 58.5906 29.2924 58.5956 29.41C58.7201 29.41 58.8261 29.41 58.9321 29.41C61.0074 29.41 63.0826 29.4065 65.1578 29.416C65.3749 29.417 65.4719 29.3595 65.5504 29.1509C66.0844 27.7393 67.5336 26.9117 68.9853 27.1712C70.4659 27.4357 71.5446 28.6804 71.5851 30.1705C71.6256 31.6612 70.5639 33.0049 69.1133 33.2984C67.5956 33.6059 66.1034 32.8058 65.5624 31.3742C65.4769 31.1481 65.3744 31.0786 65.1373 31.0801C63.0621 31.0896 60.9869 31.0856 58.9116 31.0856C58.8136 31.0856 58.7161 31.0856 58.6001 31.0856V39.1846H58.9001C63.7922 39.1846 68.6842 39.1826 73.5763 39.1901C73.7973 39.1901 73.8878 39.1245 73.9628 38.917C74.4709 37.5099 75.957 36.6603 77.4132 36.9268C78.9179 37.2023 79.995 38.476 79.9985 39.9836C80.002 41.5243 78.9244 42.8065 77.3982 43.078C75.9496 43.336 74.4734 42.4919 73.9678 41.0933C73.8863 40.8672 73.7843 40.8122 73.5608 40.8127C68.6772 40.8187 63.7932 40.8172 58.9096 40.8172H58.5986V48.9011C58.6901 48.9066 58.7706 48.9157 58.8516 48.9157C60.9684 48.9162 63.0851 48.9136 65.2023 48.9206C65.3929 48.9211 65.4729 48.8606 65.5384 48.6826C66.0614 47.2605 67.5296 46.4099 68.9803 46.6764C70.5109 46.9574 71.5921 48.2421 71.5851 49.7707C71.5776 51.2849 70.4749 52.5766 68.9703 52.8331C67.5031 53.0831 66.0694 52.2435 65.5319 50.8144C65.4824 50.6828 65.4489 50.5858 65.2673 50.5863C63.1006 50.5938 60.9339 50.5913 58.7666 50.5923C58.7181 50.5923 58.6696 50.5993 58.5826 50.6058C58.5826 50.7099 58.5831 50.8059 58.5826 50.9024C58.5761 51.8355 58.6181 52.7721 58.5531 53.7012C58.3606 56.46 56.0863 58.5632 53.3205 58.5827C52.5119 58.5887 51.7038 58.5837 50.8952 58.5837C50.8052 58.5837 50.7152 58.5837 50.6037 58.5837C50.5982 58.6853 50.5902 58.7658 50.5902 58.8463C50.5897 60.963 50.5922 63.0797 50.5857 65.197C50.5852 65.3815 50.6307 65.47 50.8152 65.538C52.2349 66.0606 53.066 67.4757 52.8349 68.9499C52.6049 70.4176 51.3693 71.5147 49.8661 71.5857C48.392 71.6552 47.0193 70.5966 46.7083 69.1499C46.3812 67.6298 47.1778 66.1166 48.616 65.5675C48.8495 65.4785 48.923 65.3755 48.9215 65.125C48.9095 63.0582 48.915 60.9915 48.915 58.9243C48.915 58.8253 48.915 58.7268 48.915 58.6057H40.8321C40.8271 58.7068 40.8171 58.8113 40.8171 58.9153C40.8161 63.8073 40.8176 68.6994 40.8121 73.5914C40.8121 73.799 40.8716 73.889 41.0726 73.9615C42.4868 74.469 43.3399 75.9467 43.0769 77.4024C42.8003 78.9315 41.5227 80.0036 39.9805 80.0006C38.4653 79.9976 37.1857 78.9055 36.9202 77.3889C36.6646 75.9302 37.5257 74.4565 38.9414 73.9565C39.1354 73.888 39.1879 73.7979 39.1874 73.6014C39.1819 68.6929 39.1829 63.7838 39.1824 58.8753C39.1824 58.7928 39.1754 58.7108 39.1704 58.5967L39.1714 58.5957ZM23.0536 39.9741C23.0536 44.3656 23.0516 48.7571 23.0546 53.1486C23.0561 55.3554 24.6343 56.9451 26.831 56.9456C35.614 56.9481 44.397 56.9511 53.1795 56.9361C53.6605 56.9351 54.1671 56.845 54.6182 56.678C56.0728 56.1405 56.9444 54.7903 56.9454 53.1631C56.9479 49.4882 56.9464 45.8133 56.9464 42.1389C56.9464 37.0393 56.9494 31.9392 56.9449 26.8397C56.9429 24.6349 55.3572 23.0547 53.1565 23.0547C44.39 23.0537 35.624 23.0547 26.858 23.0542C26.3455 23.0542 25.8449 23.1227 25.3659 23.3153C23.9227 23.8948 23.0551 25.2155 23.0546 26.8507C23.0526 31.2257 23.0541 35.6002 23.0541 39.9751L23.0536 39.9741ZM49.7556 69.9105C50.5532 69.909 51.1998 69.2609 51.2003 68.4613C51.2013 67.6713 50.5402 67.0122 49.7491 67.0127C48.9615 67.0137 48.3004 67.6778 48.3014 68.4669C48.3024 69.2589 48.96 69.9115 49.7556 69.91V69.9105ZM30.2434 10.0898C29.4458 10.0923 28.7992 10.7424 28.8002 11.5404C28.8012 12.3315 29.4648 12.9936 30.2524 12.9881C31.0435 12.9826 31.7011 12.3205 31.6991 11.5319C31.6971 10.7399 31.0385 10.0873 30.2439 10.0898H30.2434ZM49.7621 10.0898C48.9655 10.0858 48.3079 10.7329 48.3014 11.5264C48.2949 12.315 48.9475 12.9761 49.7426 12.9876C50.5272 12.9986 51.1968 12.3365 51.2003 11.5454C51.2038 10.7474 50.5577 10.0933 49.7621 10.0898ZM30.2364 69.911C31.0335 69.915 31.6926 69.2679 31.6986 68.4758C31.7046 67.6873 31.048 67.0197 30.2594 67.0127C29.4693 67.0062 28.8037 67.6623 28.7997 68.4528C28.7952 69.2514 29.4408 69.9065 30.2364 69.9105V69.911ZM10.0896 30.2541C10.0926 31.0491 10.7497 31.7027 11.5418 31.6987C12.3309 31.6947 12.9925 31.0281 12.9875 30.242C12.9825 29.4505 12.3214 28.7964 11.5293 28.7999C10.7322 28.8039 10.0861 29.4565 10.0891 30.2541H10.0896ZM69.9104 30.2591C69.9149 29.4585 69.2743 28.8074 68.4752 28.7999C67.6841 28.7924 67.0235 29.4415 67.013 30.237C67.002 31.0201 67.6631 31.6912 68.4532 31.6992C69.2438 31.7072 69.9059 31.0526 69.9104 30.2591ZM10.0896 49.7447C10.0861 50.5438 10.7292 51.1944 11.5278 51.2004C12.3194 51.2059 12.9835 50.5508 12.9875 49.7607C12.9915 48.9732 12.3314 48.3061 11.5433 48.3021C10.7507 48.2976 10.0926 48.9512 10.0891 49.7452L10.0896 49.7447ZM69.9104 49.7737C69.9179 48.9742 69.2798 48.3151 68.4852 48.3016C67.6976 48.2886 67.029 48.9377 67.0125 49.7312C66.9965 50.5163 67.6551 51.1929 68.4427 51.2004C69.2433 51.2084 69.9024 50.5673 69.9099 49.7737H69.9104ZM1.6727 39.9906C1.6682 40.7892 2.31327 41.4463 3.10686 41.4513C3.89845 41.4563 4.55802 40.8037 4.56402 40.0101C4.57002 39.2171 3.91945 38.557 3.12636 38.55C2.33377 38.543 1.6777 39.1936 1.6727 39.9906ZM78.3273 39.9991C78.3263 39.2011 77.6732 38.5465 76.8822 38.5495C76.0876 38.553 75.436 39.2071 75.4365 40.0016C75.437 40.7957 76.0916 41.4508 76.8847 41.4513C77.6767 41.4518 78.3283 40.7962 78.3273 39.9991ZM39.9905 4.56366C40.7831 4.57016 41.4442 3.91909 41.4507 3.1265C41.4572 2.33441 40.8041 1.67634 40.0095 1.67384C39.2094 1.67134 38.5548 2.31391 38.5493 3.1075C38.5438 3.89909 39.1954 4.55766 39.9905 4.56416V4.56366ZM40.0025 78.327C40.8001 78.3255 41.4542 77.6719 41.4507 76.8813C41.4472 76.0867 40.7921 75.4361 39.9975 75.4376C39.2029 75.4391 38.5498 76.0927 38.5493 76.8868C38.5493 77.6789 39.2049 78.329 40.0025 78.327Z" fill="#5BC482"/>
<path d="M30.2488 48.7517C30.4448 48.1711 30.6328 47.6125 30.8223 47.054C32.5855 41.8649 34.3497 36.6758 36.1079 31.4852C36.1714 31.2982 36.248 31.2252 36.455 31.2297C37.1966 31.2442 37.9386 31.2452 38.6797 31.2297C38.8883 31.2252 38.9663 31.3002 39.0288 31.4847C40.2259 35.0101 41.429 38.5335 42.6312 42.0569C43.3708 44.2246 44.1098 46.3929 44.8489 48.5606C44.8674 48.6146 44.8814 48.6696 44.9059 48.7512C44.8084 48.7567 44.7294 48.7652 44.6504 48.7652C44.0088 48.7662 43.3668 48.7587 42.7252 48.7707C42.5422 48.7742 42.4672 48.7122 42.4096 48.5416C41.8486 46.8674 41.2745 45.1973 40.7145 43.5226C40.6495 43.3285 40.5729 43.2485 40.3534 43.2495C38.4532 43.2595 36.553 43.2585 34.6533 43.2505C34.4573 43.2495 34.3872 43.3175 34.3287 43.4966C33.7792 45.1833 33.2156 46.8659 32.6656 48.5526C32.612 48.7162 32.5435 48.7732 32.3705 48.7702C31.7455 48.7592 31.1204 48.7662 30.4953 48.7657C30.4223 48.7657 30.3488 48.7577 30.2488 48.7522V48.7517ZM37.5021 33.2824C36.824 36.0732 35.7694 38.734 34.8988 41.4603H40.1324C39.2608 38.7175 38.1872 36.0672 37.5021 33.2824Z" fill="#5BC482"/>
<path d="M49.7367 48.7519H47.511V31.252H49.7367V48.7519Z" fill="#5BC482"/>
</g>
</g>
<defs>
<clipPath id="clip0_1111_4570">
<rect width="80" height="80" fill="white"/>
</clipPath>
<clipPath id="clip1_1111_4570">
<rect width="80" height="80" fill="white"/>
</clipPath>
</defs>
</svg>
