<svg width="81" height="80" viewBox="0 0 81 80" fill="none" xmlns="http://www.w3.org/2000/svg">
<g clip-path="url(#clip0_1111_4558)">
<path d="M31.7336 51.4833C29.0845 49.8101 26.4962 48.1771 23.908 46.544C23.0506 46.0039 22.19 45.4686 21.3358 44.9221C20.6162 44.4622 20.4287 43.9477 20.7668 43.4092C21.1034 42.874 21.6595 42.8099 22.3694 43.2554C25.9529 45.5119 29.5396 47.7652 33.1039 50.0505C33.559 50.3422 33.8683 50.3182 34.3074 50.0585C35.9822 49.0681 37.6874 48.1274 39.3653 47.1418C39.9102 46.8228 40.3846 46.8132 40.9311 47.1337C42.609 48.1194 44.319 49.0521 45.9874 50.0537C46.473 50.3438 46.7999 50.3005 47.2615 50.0041C50.7119 47.7956 54.1832 45.6193 57.6497 43.4349C57.8741 43.2922 58.1 43.1448 58.342 43.0358C58.8292 42.8163 59.2395 42.9669 59.5248 43.3932C59.8165 43.8291 59.7475 44.2634 59.3741 44.6224C59.2043 44.7859 58.9879 44.9045 58.7844 45.0311C55.4044 47.1674 52.0229 49.3021 48.5548 51.4929C50.3289 52.5074 52.0149 53.5202 53.7505 54.4433C54.5374 54.8616 54.8259 55.3777 54.8179 56.2735C54.7762 60.8394 54.7169 65.4069 54.8483 69.968C54.8916 71.4584 54.3515 72.2598 53.1479 72.8848C49.0692 75.0018 45.138 77.3834 41.1587 79.6783C40.4455 80.0902 39.891 80.1078 39.173 79.6927C35.7883 77.7359 32.3506 75.8689 28.9819 73.8848C28.0283 73.3239 26.993 72.9377 26.0747 72.3367C25.7157 72.1011 25.5074 71.6716 25.5074 71.1908C25.509 66.0383 25.5122 60.8843 25.5058 55.7318C25.5058 55.1661 25.8215 54.8744 26.2686 54.6228C27.8729 53.7205 29.4659 52.8022 31.0637 51.8887C31.2688 51.7718 31.466 51.6419 31.7336 51.4785V51.4833ZM39.1281 77.3465C39.1522 77.1333 39.1714 77.0356 39.1714 76.9394C39.173 72.8319 39.1666 68.7244 39.1842 64.6168C39.1858 64.1761 39.0159 63.9517 38.6538 63.7466C35.4084 61.9052 32.1743 60.0413 28.9274 58.2047C28.4787 57.9515 28.0684 57.5893 27.4802 57.5011C27.4802 61.7866 27.4882 66.0271 27.469 70.2661C27.4674 70.7196 27.7431 70.851 28.0411 71.0209C30.4018 72.3687 32.7625 73.7181 35.1232 75.066C36.4341 75.8144 37.7451 76.5596 39.1281 77.3465ZM52.7825 57.4995C52.454 57.6582 52.2328 57.7496 52.0293 57.8665C48.6526 59.8009 45.2838 61.7513 41.8959 63.6633C41.3638 63.9629 41.1603 64.2835 41.1651 64.9085C41.1987 68.8045 41.1811 72.6989 41.1875 76.5949C41.1875 76.7872 41.0769 77.0131 41.3157 77.2183C45.0322 75.0916 48.7519 72.9585 52.4764 70.835C52.7232 70.694 52.7841 70.5113 52.7841 70.2485C52.7793 66.0335 52.7809 61.8186 52.7809 57.4979L52.7825 57.4995ZM28.5123 55.6165C28.6998 55.7511 28.8216 55.8552 28.9562 55.9322C32.5413 57.9851 36.1312 60.0301 39.7067 62.0991C40.1105 62.3331 40.3846 62.2113 40.7195 62.019C42.5674 60.9532 44.42 59.9003 46.2726 58.8425C48.0964 57.7992 49.9202 56.7543 51.7937 55.6838C51.6495 55.5684 51.5773 55.4947 51.4908 55.445C47.8368 53.3519 44.1764 51.2669 40.5288 49.1611C40.1779 48.9591 39.9471 49.0761 39.6602 49.2412C37.7659 50.331 35.8652 51.4112 33.9677 52.4961C32.1647 53.5266 30.3634 54.5603 28.5123 55.6197V55.6165Z" fill="#5EBE80"/>
<path d="M27.4579 33.8985C23.5955 36.0989 19.8598 38.2272 16.1225 40.3539C15.9061 40.4773 15.7298 40.5959 15.7314 40.8923C15.7379 45.1874 15.7363 49.484 15.7363 53.7679C16.0648 53.8672 16.2395 53.6573 16.435 53.5467C18.6146 52.3079 20.7877 51.0594 22.9641 49.8142C23.1724 49.6956 23.3792 49.5738 23.5923 49.4632C24.2702 49.1106 24.8424 49.2164 25.1036 49.7693C25.4033 50.4039 25.1325 50.8351 24.5683 51.1572C22.8776 52.122 21.1916 53.0948 19.5024 54.0627C18.3229 54.7391 17.1386 55.4074 15.9574 56.0821C14.6352 56.8385 14.1529 56.7776 12.9268 55.9202C11.9701 55.2503 10.9572 54.6557 9.94275 54.0724C8.77764 53.4009 7.5324 52.8576 6.41537 52.1172C4.59959 50.9104 2.68926 49.8703 0.778924 48.8382C0.173131 48.5112 0.0994097 48.1523 0.0994097 47.5993C0.107423 43.2995 0.0881913 39.0012 0.115436 34.7014C0.121846 33.6757 -0.251566 32.517 0.306149 31.6548C0.830208 30.8439 1.96327 30.5971 2.81426 30.0778C4.98262 28.7524 7.15097 27.4271 9.33696 26.1305C10.0613 25.701 10.8146 25.3052 11.5919 24.9847C12.5614 24.584 13.2554 23.7506 14.2554 23.4029C14.6865 23.2522 15.0295 23.249 15.4093 23.5215C17.0985 24.7347 19.0281 25.544 20.7637 26.6818C21.1179 26.9142 21.4817 26.8101 21.8182 26.5761C22.6772 25.9799 23.4946 25.2988 24.4177 24.826C25.4866 24.2795 26.4626 23.5984 27.4867 22.991C27.8393 22.7827 28.147 22.5054 28.4836 22.2714C28.8714 22.0022 29.2769 21.7698 29.6871 21.5374C29.7977 21.4749 29.8987 21.39 30.0125 21.3339C30.1984 21.2105 30.3827 21.0839 30.5702 20.9621C31.1792 20.571 31.8106 20.1864 32.4116 19.7681C33.0623 19.313 33.8443 19.4332 34.1569 19.9829C34.4774 20.5454 34.1296 21.3178 33.4629 21.68C29.974 23.5792 26.7191 25.8581 23.3455 27.9447C23.3055 27.9688 23.291 28.0345 23.251 28.105C25.0315 29.1259 26.8024 30.1644 28.5989 31.1564C29.1871 31.4817 29.4243 31.892 29.4195 32.5635C29.3971 36.1422 29.4051 39.7192 29.4115 43.2979C29.4115 43.8444 29.3249 44.3091 28.7384 44.5207C28.0621 44.7659 27.6053 44.5127 27.4899 43.7995C27.4483 43.5383 27.4595 43.2674 27.4595 43.0014C27.4579 40.0141 27.4595 37.0268 27.4595 33.8985H27.4579ZM13.733 47.1474H13.7362C13.7362 45.1714 13.7234 43.1969 13.7458 41.2209C13.7506 40.7673 13.6192 40.5077 13.2073 40.2753C9.70076 38.2945 6.20542 36.2896 2.7149 34.2783C2.23732 34.0026 2.0434 33.9722 2.04821 34.6389C2.06904 38.6423 2.06583 42.6472 2.04981 46.6506C2.04821 47.0801 2.18763 47.3189 2.56265 47.532C6.09003 49.5305 9.61261 51.5402 13.1224 53.5707C13.7346 53.9249 13.7442 53.6541 13.7394 53.1508C13.7234 51.1492 13.733 49.1475 13.733 47.1442V47.1474ZM3.11075 32.1757C3.24216 32.2782 3.29665 32.3327 3.36076 32.3696C7.01475 34.4594 10.6736 36.5412 14.3211 38.6455C14.6849 38.8554 14.9365 38.7881 15.2603 38.6006C17.4991 37.3073 19.7476 36.0332 21.9913 34.7495C23.4353 33.9241 24.8776 33.094 26.3841 32.2301C26.2174 32.1019 26.1437 32.0282 26.0556 31.9785C22.4256 29.8999 18.7909 27.8293 15.1705 25.7347C14.7923 25.5151 14.5375 25.6257 14.2266 25.8052C11.2665 27.5008 8.30326 29.19 5.34161 30.8823C4.60921 31.3022 3.88001 31.7285 3.11075 32.1757Z" fill="#5EBE80"/>
<path d="M64.5732 53.9319V47.2201C64.5732 45.2184 64.5699 43.2151 64.5748 41.2135C64.5748 40.8609 64.5748 40.566 64.1869 40.3464C60.4961 38.2614 56.818 36.1556 53.1352 34.0577C53.0935 34.0337 53.0358 34.0433 52.8884 34.0241C52.8756 34.3013 52.8531 34.577 52.8531 34.8526C52.8499 37.6829 52.8467 40.5115 52.8531 43.3418C52.8531 43.8257 52.7762 44.252 52.2954 44.4844C51.6095 44.8162 50.9172 44.3386 50.9059 43.4892C50.8851 41.9683 50.8995 40.4458 50.8995 38.9249C50.8995 36.8159 50.922 34.7068 50.8867 32.5977C50.8755 31.891 51.1367 31.4695 51.7473 31.1313C53.5214 30.1537 55.2683 29.1296 57.028 28.1216C56.9671 27.8219 56.7059 27.7722 56.52 27.6536C53.2762 25.5975 50.0293 23.5477 46.7824 21.4963C46.4907 21.312 46.1686 21.155 46.0724 20.7783C45.9666 20.3537 46.0404 19.9722 46.4026 19.7014C46.7904 19.4113 47.1959 19.4434 47.5981 19.6966C48.861 20.4947 50.103 21.3248 51.3915 22.0797C53.8355 23.5124 56.1578 25.1327 58.5665 26.6199C58.8309 26.7834 59.0809 27.0414 59.4207 26.7578C60.113 26.1808 60.9833 25.918 61.7381 25.4436C62.9433 24.6856 64.1789 23.9756 65.4033 23.248C65.469 23.2095 65.4867 23.0589 65.6309 23.1775C66.413 23.8137 67.4306 24.0365 68.2432 24.575C69.3634 25.317 70.4804 26.0606 71.6423 26.7337C74.2274 28.2306 76.8252 29.7082 79.4279 31.1746C79.9616 31.4759 80.2244 31.8189 80.2212 32.4888C80.1892 37.5082 80.1908 42.526 80.2212 47.5454C80.2244 48.1657 80.0257 48.5247 79.5113 48.8115C77.9295 49.6962 76.3605 50.6049 74.7867 51.5039C71.9501 53.1242 69.1038 54.73 66.2832 56.3775C65.8088 56.6548 65.4177 56.6932 64.9674 56.4368C61.8663 54.6627 58.7636 52.8934 55.669 51.1097C55.0648 50.7603 54.9029 50.1898 55.2459 49.6962C55.6449 49.1208 56.1706 49.1513 56.7219 49.467C59.1066 50.8292 61.4897 52.1931 63.8744 53.5553C64.0539 53.6579 64.2382 53.7524 64.5732 53.9335V53.9319ZM66.6229 53.8245C70.426 51.6514 74.0767 49.5616 77.7339 47.4813C78.0721 47.289 78.2195 47.0582 78.2195 46.656C78.2067 42.6558 78.2067 38.6557 78.2195 34.6571C78.2195 34.1747 78.1458 34.0177 77.6586 34.2981C74.1505 36.3206 70.6375 38.3383 67.1117 40.3304C66.6806 40.574 66.6181 40.8721 66.6181 41.3016C66.6293 45.2473 66.6245 49.1946 66.6245 53.1418V53.8261L66.6229 53.8245ZM53.8596 32.2019C57.0184 34.008 60.0249 35.7277 63.0346 37.4425C63.868 37.9169 64.7078 38.7374 65.5476 38.7406C66.3857 38.7422 67.2303 37.9281 68.0637 37.4537C71.0926 35.7277 74.1168 33.9936 77.1858 32.2387C77.0688 32.133 77.0015 32.048 76.915 31.9984C73.2594 29.9085 69.599 27.8299 65.9514 25.7241C65.5652 25.5013 65.3168 25.6423 65.0091 25.817C62.791 27.0911 60.5682 28.3556 58.3469 29.6265C56.895 30.4566 55.4462 31.29 53.8596 32.2003V32.2019Z" fill="#5EBE80"/>
<path d="M52.7538 10.5021C51.0983 11.4444 49.4604 12.3771 47.8241 13.3099C45.7631 14.4862 43.707 15.6689 41.6428 16.8389C41.3287 17.0168 41.1059 17.1722 41.1075 17.6129C41.1283 21.8567 41.1203 26.1004 41.1203 30.3394C41.4216 30.4692 41.5899 30.24 41.7822 30.1311C44.0083 28.8682 46.2279 27.5941 48.4491 26.3232C48.6799 26.1902 48.9107 26.0572 49.1463 25.9306C49.6816 25.6421 50.1688 25.7511 50.4653 26.2543C50.7762 26.7816 50.6592 27.3088 50.1031 27.6294C46.9683 29.4323 43.8272 31.2224 40.6876 33.0158C40.2357 33.2738 39.8286 33.1424 39.4103 32.9004C37.4936 31.7946 35.5929 30.6583 33.6393 29.6214C32.6136 29.0765 31.6424 28.4531 30.6391 27.8778C29.7433 27.3649 29.482 26.8425 29.8234 26.2591C30.1503 25.6998 30.7065 25.6645 31.5703 26.1581C33.838 27.4547 36.1041 28.7544 38.3718 30.0509C38.5978 30.1807 38.8318 30.2961 39.1539 30.4676C39.1699 30.1134 39.1924 29.8378 39.1924 29.5605C39.194 25.8504 39.1924 22.1388 39.1924 18.4287C39.1924 17.0408 39.0465 16.9062 37.7837 16.318C36.7788 15.85 35.7676 15.3997 34.8573 14.7106C34.0383 14.0888 33.0222 13.7314 32.12 13.2121C30.9997 12.5695 29.9083 11.8771 28.8009 11.2136C28.3971 10.9716 27.982 10.7473 27.4563 10.4508C27.4563 11.4332 27.4563 12.3018 27.4563 13.1704C27.4563 15.3324 27.4563 17.4943 27.4563 19.6579C27.4563 19.8181 27.4659 19.9784 27.4547 20.1387C27.405 20.7685 27.0749 21.0842 26.4306 21.1307C25.7271 21.1804 25.5572 20.7429 25.5235 20.1964C25.4899 19.6371 25.5123 19.0761 25.5123 18.5152C25.5123 15.4718 25.5203 12.4284 25.5043 9.38504C25.4995 8.53885 25.655 7.92985 26.5348 7.46509C27.5701 6.91699 28.583 6.22626 29.607 5.71182C32.2642 4.37683 34.7739 2.79664 37.3734 1.3735C38.0321 1.01291 38.7036 0.660333 39.3398 0.259676C39.9071 -0.0961076 40.3943 -0.0768761 40.9729 0.259676C43.8256 1.91679 46.6975 3.54346 49.5614 5.18135C51.015 6.01311 52.4589 6.8625 53.9269 7.66863C54.5536 8.01319 54.8276 8.4475 54.8196 9.18792C54.7859 12.7377 54.8068 16.2892 54.802 19.839C54.802 20.815 54.4574 21.2204 53.725 21.1147C53.0247 21.0137 52.8532 20.5249 52.8548 19.8951C52.8628 17.0648 52.8596 14.2362 52.8548 11.406C52.8548 11.1255 52.9221 10.8338 52.757 10.5021H52.7538ZM28.6134 8.66706C28.6359 8.90265 28.7849 8.93791 28.8939 9.00041C32.5062 11.0678 36.1249 13.1224 39.726 15.2074C40.1427 15.4494 40.4088 15.2955 40.7405 15.1048C44.2118 13.1144 47.6895 11.1335 51.1608 9.14465C51.3579 9.03086 51.6191 8.98278 51.7041 8.70392C51.6432 8.65424 51.5887 8.59655 51.523 8.55969C47.8866 6.48108 44.2471 4.41048 40.6203 2.31585C40.2229 2.08667 39.9456 2.17321 39.5994 2.37194C36.5929 4.09957 33.5784 5.81599 30.5686 7.53561C29.9067 7.91383 29.2481 8.30006 28.6134 8.66706Z" fill="#5EBE80"/>
</g>
<defs>
<clipPath id="clip0_1111_4558">
<rect width="80.2212" height="80" fill="white"/>
</clipPath>
</defs>
</svg>
