<svg width="110" height="80" viewBox="0 0 110 80" fill="none" xmlns="http://www.w3.org/2000/svg">
<path d="M97.3897 15.7131C97.3815 10.6604 95.2616 8.54457 90.1803 8.54457C68.6747 8.54049 47.1691 8.54457 25.6634 8.54457C22.9431 8.54457 20.2186 8.49147 17.4983 8.57725C14.3776 8.67528 12.0044 10.7544 11.7267 13.8383C11.5143 16.1869 11.6817 18.5683 11.6817 21.0967H97.3897C97.3897 19.2218 97.3938 17.4654 97.3897 15.7131ZM19.1239 17.5022C17.7638 17.5022 16.6609 16.3993 16.6609 15.0351C16.6609 13.6708 17.7638 12.572 19.1239 12.572C20.4841 12.572 21.5911 13.6749 21.5911 15.0351C21.5911 16.3952 20.4882 17.5022 19.1239 17.5022ZM77.3096 17.5022C75.9454 17.5022 74.8425 16.3993 74.8425 15.0351V15.0106C74.8425 14.9738 74.8425 14.937 74.8507 14.9003C74.8466 14.8921 74.8466 14.888 74.8507 14.8839C74.9283 13.5932 75.9985 12.572 77.3096 12.572C78.6208 12.572 79.7727 13.6749 79.7727 15.0351C79.7727 16.3952 78.6698 17.5022 77.3096 17.5022ZM83.1057 17.5022C81.7414 17.5022 80.6427 16.4034 80.6386 15.0391C80.61 15.0106 80.5773 14.982 80.5487 14.9534C80.5814 14.9166 80.6141 14.8798 80.6468 14.8431C80.7448 13.5728 81.8068 12.572 83.1057 12.572C84.4046 12.572 85.5688 13.6749 85.5688 15.0351C85.5688 16.3952 84.4659 17.5022 83.1057 17.5022ZM88.9018 17.5022C87.5376 17.5022 86.4347 16.3993 86.4347 15.0351C86.4347 15.0187 86.4347 15.0024 86.4388 14.986H86.4347L86.4388 14.9779C86.4674 13.6422 87.558 12.572 88.9018 12.572C90.2457 12.572 91.3649 13.6749 91.3649 15.0351C91.3649 16.3952 90.262 17.5022 88.9018 17.5022Z" fill="#5EBE80"/>
<path d="M95.2984 69.1364V25.5002H13.5607C13.5607 29.0293 13.5117 32.4767 13.5852 35.9201C13.6138 37.1863 13.2053 37.8276 11.7716 37.8766V22.9473H97.2998V71.4401C96.5483 71.4401 95.8335 71.4401 95.1186 71.4401C77.4199 71.4401 59.7212 71.4197 42.0224 71.4768C40.3722 71.4809 39.4614 70.9908 39.1999 69.1404H95.2984V69.1364Z" fill="#5EBE80"/>
<path d="M48.8806 47.3938C52.6303 43.832 56.2085 40.4254 59.9214 36.9004C60.2277 37.2231 60.771 37.7868 61.9024 38.9713C58.7205 41.5855 55.6284 44.1261 52.4628 46.7321C55.8694 50.0039 58.6837 52.7079 61.5634 55.4773C60.7832 56.3596 60.2563 56.9478 59.6477 57.6381C56.0655 54.2315 52.5854 50.9189 48.8806 47.3979V47.3938Z" fill="#5EBE80"/>
<path d="M75.802 36.8389C79.5639 40.368 83.2033 43.7828 86.4302 46.8136C82.9705 50.7103 79.7763 54.3048 76.4514 58.0504C75.4875 56.9843 74.9605 56.4002 74.4254 55.8079C77.1254 52.9405 79.7681 50.1303 82.562 47.1648C79.9601 44.4363 77.1744 41.5158 74.2906 38.4891C74.8952 37.8273 75.4262 37.2514 75.802 36.843V36.8389Z" fill="#5EBE80"/>
<path d="M63.9773 60.1383C63.1072 59.7666 62.4945 59.5052 61.5632 59.1049C64.786 50.7967 67.9843 42.5498 71.2357 34.1641C72.1098 34.4786 72.7837 34.7237 73.7886 35.0872C70.5249 43.4199 67.2899 51.6708 63.9732 60.1383H63.9773Z" fill="#5EBE80"/>
<path d="M35.6591 59.3844L33.7779 57.7761C33.867 57.2304 33.9129 56.6733 33.9129 56.1161C33.9129 55.5589 33.867 55.0018 33.7779 54.4561L35.6591 52.8477C35.801 52.7263 35.9025 52.5645 35.9503 52.3839C35.998 52.2033 35.9896 52.0125 35.9262 51.8368L35.9004 51.7621C35.3825 50.3147 34.607 48.9729 33.6114 47.8016L33.5597 47.7413C33.4389 47.5993 33.2779 47.4972 33.098 47.4485C32.918 47.3998 32.7275 47.4068 32.5516 47.4685L30.2166 48.2985C29.355 47.592 28.3929 47.0348 27.3532 46.6442L26.9023 44.203C26.8683 44.0193 26.7792 43.8503 26.6469 43.7185C26.5145 43.5866 26.3452 43.4982 26.1614 43.4649L26.0838 43.4505C24.5875 43.1806 23.0136 43.1806 21.5173 43.4505L21.4398 43.4649C21.256 43.4982 21.0866 43.5866 20.9543 43.7185C20.8219 43.8503 20.7328 44.0193 20.6988 44.203L20.245 46.6557C19.2136 47.0464 18.2532 47.6032 17.4017 48.3042L15.0495 47.4685C14.8737 47.4063 14.6831 47.3991 14.503 47.4478C14.3229 47.4965 14.162 47.5989 14.0415 47.7413L13.9898 47.8016C12.9953 48.9738 12.22 50.3153 11.7008 51.7621L11.6749 51.8368C11.5457 52.1958 11.652 52.5979 11.942 52.8477L13.8462 54.4733C13.7571 55.0132 13.7141 55.5647 13.7141 56.1132C13.7141 56.6646 13.7571 57.2161 13.8462 57.7531L11.942 59.3787C11.8001 59.5002 11.6986 59.6619 11.6509 59.8425C11.6032 60.0231 11.6116 60.2139 11.6749 60.3896L11.7008 60.4643C12.2206 61.9118 12.9903 63.2473 13.9898 64.4248L14.0415 64.4851C14.1623 64.6271 14.3232 64.7292 14.5032 64.7779C14.6831 64.8266 14.8736 64.8197 15.0495 64.758L17.4017 63.9222C18.2576 64.6259 19.214 65.183 20.245 65.5708L20.6988 68.0234C20.7328 68.2071 20.8219 68.3761 20.9543 68.508C21.0866 68.6398 21.256 68.7283 21.4398 68.7616L21.5173 68.7759C23.0274 69.0473 24.5737 69.0473 26.0838 68.7759L26.1614 68.7616C26.3452 68.7283 26.5145 68.6398 26.6469 68.508C26.7792 68.3761 26.8683 68.2071 26.9023 68.0234L27.3532 65.5822C28.3925 65.1927 29.36 64.6337 30.2166 63.928L32.5516 64.758C32.7274 64.8202 32.9181 64.8274 33.0981 64.7787C33.2782 64.7299 33.4392 64.6275 33.5597 64.4851L33.6114 64.4248C34.6108 63.2444 35.3805 61.9118 35.9004 60.4643L35.9262 60.3896C36.0554 60.0364 35.9492 59.6343 35.6591 59.3844ZM31.7388 54.795C31.8106 55.2286 31.8479 55.6738 31.8479 56.119C31.8479 56.5641 31.8106 57.0093 31.7388 57.443L31.5493 58.5946L33.6946 60.4299C33.3694 61.1791 32.9589 61.8884 32.4712 62.5437L29.8059 61.5988L28.9041 62.3397C28.2177 62.9027 27.4538 63.3449 26.6266 63.6551L25.5324 64.0658L25.0183 66.8517C24.2072 66.9436 23.3882 66.9436 22.5771 66.8517L22.063 64.0601L20.9774 63.6436C20.1589 63.3335 19.3978 62.8912 18.7171 62.3311L17.8153 61.5873L15.1328 62.5408C14.6446 61.8831 14.2368 61.1737 13.9094 60.427L16.0777 58.5745L15.891 57.4257C15.8221 56.9978 15.7848 56.5555 15.7848 56.119C15.7848 55.6795 15.8192 55.2401 15.891 54.8122L16.0777 53.6634L13.9094 51.8109C14.2339 51.0614 14.6446 50.3548 15.1328 49.6971L17.8153 50.6507L18.7171 49.9068C19.3978 49.3468 20.1589 48.9045 20.9774 48.5943L22.0659 48.1836L22.58 45.392C23.387 45.3001 24.2113 45.3001 25.0212 45.392L25.5353 48.1779L26.6295 48.5886C27.4538 48.8987 28.2206 49.341 28.907 49.9039L29.8088 50.6449L32.474 49.7C32.9623 50.3577 33.3701 51.0671 33.6975 51.8138L31.5521 53.649L31.7388 54.795ZM23.8034 50.777C21.0118 50.777 18.7487 53.0402 18.7487 55.8318C18.7487 58.6234 21.0118 60.8865 23.8034 60.8865C26.595 60.8865 28.8582 58.6234 28.8582 55.8318C28.8582 53.0402 26.595 50.777 23.8034 50.777ZM26.0781 58.1064C25.7797 58.4056 25.4252 58.6428 25.0348 58.8045C24.6444 58.9662 24.226 59.0491 23.8034 59.0484C22.9447 59.0484 22.1377 58.7124 21.5288 58.1064C21.2296 57.8081 20.9924 57.4535 20.8307 57.0631C20.669 56.6728 20.5861 56.2543 20.5868 55.8318C20.5868 54.973 20.9228 54.166 21.5288 53.5571C22.1377 52.9483 22.9447 52.6151 23.8034 52.6151C24.6622 52.6151 25.4692 52.9483 26.0781 53.5571C26.3773 53.8555 26.6145 54.21 26.7762 54.6004C26.9379 54.9908 27.0207 55.4092 27.0201 55.8318C27.0201 56.6905 26.6841 57.4975 26.0781 58.1064Z" fill="#5EBE80"/>
</svg>
