<svg width="59" height="74" viewBox="0 0 59 74" fill="none" xmlns="http://www.w3.org/2000/svg">
<path d="M52.25 31.6663L51.1667 29.1663L48.6667 28.083C48.2222 27.8608 48 27.4997 48 26.9997C48 26.4997 48.2222 26.1386 48.6667 25.9163L51.1667 24.833L52.25 22.333C52.4722 21.8886 52.8333 21.6663 53.3333 21.6663C53.8333 21.6663 54.1944 21.8886 54.4167 22.333L55.5 24.833L58 25.9163C58.4444 26.1386 58.6667 26.4997 58.6667 26.9997C58.6667 27.4997 58.4444 27.8608 58 28.083L55.5 29.1663L54.4167 31.6663C54.1944 32.1108 53.8333 32.333 53.3333 32.333C52.8333 32.333 52.4722 32.1108 52.25 31.6663ZM35.1667 46.9997L32.5 41.1663L26.6667 38.4997C26 38.2219 25.6667 37.7219 25.6667 36.9997C25.6667 36.2775 26 35.7775 26.6667 35.4997L32.5 32.833L35.1667 26.9997C35.4444 26.333 35.9444 25.9997 36.6667 25.9997C37.3889 25.9997 37.8889 26.333 38.1667 26.9997L40.8333 32.833L46.6667 35.4997C47.3333 35.7775 47.6667 36.2775 47.6667 36.9997C47.6667 37.7219 47.3333 38.2219 46.6667 38.4997L40.8333 41.1663L38.1667 46.9997C37.8889 47.6663 37.3889 47.9997 36.6667 47.9997C35.9444 47.9997 35.4444 47.6663 35.1667 46.9997ZM52.25 51.6663L51.1667 49.1663L48.6667 48.083C48.2222 47.8608 48 47.4997 48 46.9997C48 46.4997 48.2222 46.1386 48.6667 45.9163L51.1667 44.833L52.25 42.333C52.4722 41.8886 52.8333 41.6663 53.3333 41.6663C53.8333 41.6663 54.1944 41.8886 54.4167 42.333L55.5 44.833L58 45.9163C58.4444 46.1386 58.6667 46.4997 58.6667 46.9997C58.6667 47.4997 58.4444 47.8608 58 48.083L55.5 49.1663L54.4167 51.6663C54.1944 52.1108 53.8333 52.333 53.3333 52.333C52.8333 52.333 52.4722 52.1108 52.25 51.6663ZM40 63.6663H6.66667V66.9997H40V63.6663ZM40 10.333V6.99967H6.66667V10.333H40ZM6.66667 73.6663C4.83333 73.6663 3.26444 73.0141 1.96 71.7097C0.653333 70.403 0 68.833 0 66.9997V6.99967C0 5.16634 0.653333 3.59634 1.96 2.28967C3.26444 0.98523 4.83333 0.333008 6.66667 0.333008H40C41.8333 0.333008 43.4033 0.98523 44.71 2.28967C46.0144 3.59634 46.6667 5.16634 46.6667 6.99967V20.333H40V16.9997H6.66667V56.9997H40V53.6663H46.6667V66.9997C46.6667 68.833 46.0144 70.403 44.71 71.7097C43.4033 73.0141 41.8333 73.6663 40 73.6663H6.66667Z" fill="#5EBE80"/>
</svg>
