<svg width="80" height="80" viewBox="0 0 80 80" fill="none" xmlns="http://www.w3.org/2000/svg">
<path d="M18.5834 6.91375C19.0077 7.11781 19.3659 7.43757 19.6165 7.83622C19.8671 8.23487 20.0001 8.6962 20 9.16709C20 11.9338 21.04 13.5271 22.3434 15.4671L22.44 15.6071C23.5467 17.2538 25 19.4104 25 22.5004C25 25.6538 23.41 28.4338 20.9867 30.0838C21.6234 30.6171 22.1867 31.2738 22.6734 32.0604C24.26 34.6271 25 38.5504 25 44.1838C25 49.8904 24.2334 56.7438 22.9834 62.2171C22.3634 64.9371 21.5934 67.4471 20.6767 69.3304C20.2439 70.2675 19.6706 71.133 18.9767 71.8971C18.29 72.6004 17.2334 73.3504 15.8334 73.3504C14.4334 73.3504 13.3767 72.6004 12.6934 71.8971C11.9974 71.1346 11.4239 70.2687 10.9934 69.3304C10.0734 67.4438 9.30336 64.9371 8.68336 62.2138C7.38318 56.2896 6.70727 50.2455 6.66669 44.1804C6.66669 38.5471 7.40669 34.6271 8.99336 32.0604C9.44601 31.3154 10.0155 30.648 10.68 30.0838C9.4426 29.2436 8.42981 28.1132 7.7302 26.7912C7.03058 25.4693 6.66544 23.9961 6.66669 22.5004C6.66669 21.2738 6.66669 19.1638 7.94336 16.4404C9.19336 13.7738 11.57 10.7104 15.9367 7.21376C16.3047 6.91937 16.7485 6.735 17.2167 6.68192C17.685 6.62884 18.1588 6.70921 18.5834 6.91375ZM11.6667 22.4971C11.6667 23.6022 12.1057 24.6653 12.8871 25.4467C13.6685 26.2281 14.7283 26.6671 15.8334 26.6671C16.9384 26.6671 17.9982 26.2281 18.7796 25.4467C19.561 24.6653 20 23.6055 20 22.5004C20 21.0371 19.3834 20.0238 18.1934 18.2538L18.1534 18.1938C17.39 17.0604 16.4867 15.7171 15.8467 13.9938C14.0367 15.8338 13.0367 17.3604 12.4734 18.5604C11.6667 20.2804 11.6667 21.5071 11.6667 22.4971ZM13.2467 34.6871C12.42 36.0271 11.6667 38.7738 11.6667 44.1838C11.6667 49.5204 12.3934 56.0004 13.5567 61.1038C14.1434 63.6704 14.81 65.7538 15.4867 67.1404C15.61 67.3971 15.7267 67.6104 15.8334 67.7904C15.94 67.6104 16.0567 67.3971 16.18 67.1404C16.8567 65.7538 17.5234 63.6671 18.11 61.1038C19.2767 56.0038 20 49.5238 20 44.1838C20 38.7738 19.2467 36.0271 18.42 34.6871C18.1707 34.236 17.7939 33.8684 17.3367 33.6304C16.8633 33.4243 16.3492 33.3285 15.8334 33.3504C15.1667 33.3504 14.69 33.4538 14.33 33.6304C13.8728 33.8684 13.496 34.236 13.2467 34.6871ZM33.3334 49.7271C31.5674 49.4309 29.8496 48.8971 28.2267 48.1404C28.3242 46.2499 28.352 44.3564 28.31 42.4638C29.8134 43.4738 31.51 44.2171 33.3334 44.6304V35.0004C33.3334 33.6743 33.8601 32.4026 34.7978 31.4649C35.7355 30.5272 37.0073 30.0004 38.3334 30.0004H51.6667C51.6665 27.2027 50.884 24.4608 49.4074 22.0845C47.9308 19.7082 45.8191 17.7922 43.3109 16.553C40.8026 15.3138 37.9978 14.8007 35.2132 15.0718C32.4287 15.3429 29.7755 16.3873 27.5534 18.0871C26.8867 16.2438 25.9367 14.8338 25.2767 13.8538L25.1434 13.6538C28.1382 11.5426 31.6555 10.2947 35.3113 10.0464C38.967 9.79805 42.6207 10.5588 45.8736 12.2456C49.1264 13.9324 51.8534 16.4804 53.7567 19.6114C55.6601 22.7425 56.6667 26.3362 56.6667 30.0004H68.3334C69.6594 30.0004 70.9312 30.5272 71.8689 31.4649C72.8066 32.4026 73.3334 33.6743 73.3334 35.0004V65.0004C73.3334 66.3265 72.8066 67.5983 71.8689 68.536C70.9312 69.4736 69.6594 70.0004 68.3334 70.0004H38.3334C37.0073 70.0004 35.7355 69.4736 34.7978 68.536C33.8601 67.5983 33.3334 66.3265 33.3334 65.0004V49.7238V49.7271ZM38.3334 49.9371V65.0038H68.3334V35.0038H56.0334C54.9948 39.0205 52.7337 42.6152 49.5627 45.2905C46.3917 47.9659 42.4676 49.5896 38.3334 49.9371ZM50.8134 35.0038H38.3334V44.9138C41.134 44.5997 43.7897 43.5038 45.9967 41.7513C48.2038 39.9988 49.8729 37.6604 50.8134 35.0038Z" fill="#5EBE80"/>
</svg>
