<svg width="2399" height="431" viewBox="0 0 2399 431" fill="none" xmlns="http://www.w3.org/2000/svg">
<g clip-path="url(#clip0_1110_4454)">
<path d="M53.5625 2.07422H720.063V192.686H701.382C701.382 192.686 675.86 19.5928 504.55 17.0348C338.026 14.5349 308.958 192.686 308.958 192.686H255.394C255.394 192.686 221.753 22.0152 53.5625 18.275V2.07422Z" fill="white"/>
<path d="M53.5625 428.14H720.063V237.528H701.382C701.382 237.528 675.86 410.621 504.55 413.179C338.026 415.679 308.958 237.528 308.958 237.528H255.394C255.394 237.528 221.753 408.199 53.5819 411.939V428.14H53.5625Z" fill="white"/>
<path d="M58.1369 280.705C90.245 280.705 116.274 254.677 116.274 222.569C116.274 190.46 90.245 164.432 58.1369 164.432C26.0288 164.432 0 190.46 0 222.569C0 254.677 26.0288 280.705 58.1369 280.705Z" fill="white"/>
<path d="M498.931 207.627H109.316V228.808H498.931V207.627Z" fill="white"/>
<path d="M592.997 227.258L484.61 119.802C484.61 119.802 504.551 152.184 496.14 191.736L484.61 218.945L491.8 247.354C493.989 287.74 469.281 316.653 469.281 316.653L592.977 227.258H592.997Z" fill="white"/>
<path d="M769.074 0H979.821V70.5976H850.466V98.8327H979.821V155.303H850.466V189.352H979.821V249.155H769.074V0Z" fill="white"/>
<path d="M768.861 301.266H894.069V337.814H817.212V352.426H884.825V381.65H817.212V399.265H894.069V430.213H768.861V301.266Z" fill="white"/>
<path d="M1370.27 301.266H1495.48V337.814H1418.62V352.426H1486.23V381.65H1418.62V399.265H1495.48V430.213H1370.27V301.266Z" fill="white"/>
<path d="M1029.02 0V249.155H1110.63V124.587L1208.41 249.155H1288.14V2.69368H1207.79V129.762H1199.4L1105.65 0H1029.02Z" fill="white"/>
<path d="M1327.38 3.15845V249.155H1409.61V121.68L1414.18 126.234L1468.79 188.945L1529.21 124.587V249.155H1602.72V2.69336H1523.59L1468.17 82.4378L1410.87 2.69336L1327.38 3.15845Z" fill="white"/>
<path d="M1901.48 247.818L1827.57 1.35645H1702.99L1634.05 247.818H1715.45V219.35H1813.45V247.818H1901.48ZM1742.01 152.299L1767.77 62.6134L1796 152.299H1742.01Z" fill="white"/>
<path d="M2127.41 1.35645V66.0241H2012.99C2005.09 66.0241 1998.67 72.4385 1998.67 80.3451C1998.67 90.5578 2006.95 98.8327 2017.16 98.8327H2069.66C2109.52 98.8327 2142.81 130.556 2143.22 170.419C2143.22 171.465 2143.22 172.512 2143.2 173.577C2142.73 192.724 2132.46 208.208 2119.79 220.067C2099.17 239.388 2071.61 249.562 2043.36 249.562H1933.91V188.519H2045.51C2053.34 188.519 2060.9 184.875 2065.26 178.364C2068.53 173.461 2069.83 167.376 2063.63 161.465C2059.04 157.086 2052.78 154.896 2046.42 154.896H1981.66C1981.66 154.896 1925.05 147.493 1918.4 84.8023C1918.4 84.8023 1911.89 10.1739 1974.6 1.35645H2127.43H2127.41Z" fill="white"/>
<path d="M2383.21 1.35645V66.0241H2268.79C2260.89 66.0241 2254.47 72.4385 2254.47 80.3451C2254.47 90.5578 2262.75 98.8327 2272.96 98.8327H2325.46C2365.32 98.8327 2398.61 130.556 2399.02 170.419C2399.02 171.465 2399.02 172.512 2399 173.577C2398.54 192.724 2388.27 208.208 2375.59 220.067C2354.97 239.388 2327.42 249.562 2299.16 249.562H2189.71V188.519H2301.31C2309.14 188.519 2316.7 184.875 2321.06 178.364C2324.33 173.461 2325.63 167.376 2319.43 161.465C2314.84 157.086 2308.58 154.896 2302.22 154.896H2237.46C2237.46 154.896 2180.85 147.493 2174.21 84.8023C2174.21 84.8023 2167.69 10.1739 2230.4 1.35645H2383.23H2383.21Z" fill="white"/>
<path d="M1062.24 301.266V430.213H1093.81V340.934L1176.44 430.213H1205.93V301.266H1176.03V379.964L1100.86 301.266H1062.24Z" fill="white"/>
<path d="M1771.1 386.089C1771.72 386.786 1783.84 377.581 1784.98 376.67C1789.84 372.814 1794.42 368.512 1798.14 363.531C1803.99 355.702 1806.64 346.943 1804.61 337.312C1801.43 322.293 1791.37 310.084 1776.72 304.988C1770 302.662 1762.83 301.79 1755.74 301.79H1658.98V429.691H1698.84V381.108H1730.41L1769.84 429.691H1810.97C1810.97 429.691 1771.12 386.108 1771.1 386.089ZM1763.39 353.067C1757.54 358.629 1750.7 359.249 1742.93 359.501C1739.24 359.636 1692.62 360.004 1692.62 359.501L1691.57 323.998H1749.9C1757.56 323.998 1767.07 325.452 1769.36 334.114C1771.26 341.304 1768.45 348.261 1763.39 353.047V353.067Z" fill="white"/>
<path d="M2225.71 299.812H2272.75L2307.3 347.619L2339.08 299.812H2392.64L2386.73 306.73L2322.26 378.878V429.689H2289.86V376.475L2225.71 299.812Z" fill="white"/>
<path d="M2018.84 427.733C2007.88 427.733 1997.62 426.105 1988.05 422.849C1978.48 419.593 1970.09 415.02 1962.84 409.09C1955.61 403.179 1949.97 396.339 1945.96 388.606C1941.93 380.855 1939.93 372.483 1939.93 363.491C1939.93 354.499 1941.97 345.953 1946.08 338.202C1950.16 330.45 1955.86 323.648 1963.17 317.796C1970.47 311.943 1979.02 307.389 1988.81 304.134C1998.59 300.878 2009.19 299.25 2020.59 299.25C2033.3 299.25 2044.99 301.169 2055.66 305.025C2066.32 308.862 2075.18 314.288 2082.19 321.265L2062.02 337.582C2057.19 332.504 2051.21 328.59 2044.06 325.877C2036.89 323.164 2029 321.788 2020.39 321.788C2010.61 321.788 2001.95 323.532 1994.43 327.02C1986.91 330.508 1981.02 335.353 1976.79 341.574C1972.55 347.775 1970.44 355.023 1970.44 363.317C1970.44 371.611 1972.51 378.898 1976.68 385.234C1980.84 391.571 1986.54 396.494 1993.77 400.059C2001 403.606 2009.29 405.389 2018.65 405.389C2028.01 405.389 2036.56 403.935 2043.42 401.048C2050.28 398.141 2055.55 393.897 2059.19 388.277C2062.83 382.657 2064.68 375.778 2064.68 367.6L2084.19 378.413L2016.91 377.89V356.961H2095.37V360.333C2095.37 375.235 2092.08 387.696 2085.51 397.676C2078.94 407.675 2069.91 415.175 2058.43 420.214C2046.96 425.252 2033.79 427.752 2018.88 427.752L2018.84 427.733Z" fill="white"/>
</g>
<defs>
<clipPath id="clip0_1110_4454">
<rect width="2399" height="430.213" fill="white"/>
</clipPath>
</defs>
</svg>
