<svg width="3139" height="611" viewBox="0 0 3139 611" fill="none" xmlns="http://www.w3.org/2000/svg">
<g clip-path="url(#clip0_1109_4433)">
<path d="M30.5176 249.204V4.15039H85.0186V249.204H30.5176Z" fill="white"/>
<path d="M132.209 249.204V4.15039H170.381L186.71 53.1053V249.204H132.209ZM301.258 249.204L156.872 64.1976L170.381 4.15039L314.767 189.156L301.227 249.204H301.258ZM301.258 249.204L286.665 200.28V4.15039H341.166V249.204H301.258Z" fill="white"/>
<path d="M503.954 253.045C486.138 253.045 469.407 249.792 453.791 243.316C438.175 236.84 424.573 227.855 413.015 216.422C401.427 204.958 392.349 191.542 385.78 176.142C379.181 160.743 375.896 144.167 375.896 126.32C375.896 108.473 379.243 91.9586 385.966 76.6834C392.69 61.4083 401.985 48.0541 413.914 36.59C425.843 25.1259 439.786 16.2334 455.743 9.85072C471.699 3.49898 488.834 0.307617 507.114 0.307617C528.152 0.307617 547.332 4.11866 564.559 11.7717C581.786 19.3938 596.07 29.9284 607.41 43.3445L570.26 80.4945C562.39 70.3007 553.126 62.6786 542.498 57.5972C531.839 52.5158 519.818 49.9751 506.402 49.9751C492.056 49.9751 479.197 53.1665 467.888 59.5182C456.548 65.87 447.687 74.7934 441.335 86.2575C434.952 97.7217 431.792 111.076 431.792 126.351C431.792 141.626 434.921 155.042 441.149 166.63C447.408 178.218 455.959 187.235 466.835 193.71C477.71 200.186 490.197 203.439 504.326 203.439C518.454 203.439 530.879 200.713 540.949 195.291C551.019 189.868 558.765 181.998 564.218 171.681C569.64 161.394 572.367 148.845 572.367 134.035L608.463 158.327L499.12 156.591V110.425H627.89V118.419C627.89 147.823 622.623 172.517 612.088 192.533C601.554 212.549 586.991 227.638 568.37 237.832C549.748 248.026 528.276 253.107 503.985 253.107L503.954 253.045Z" fill="white"/>
<path d="M660.826 249.204V4.15039H715.327V249.204H660.826ZM702.81 249.204V201.302H823.957V249.204H702.81Z" fill="white"/>
<path d="M855.529 249.204V4.15039H910.03V249.204H855.529ZM897.172 51.0293V4.15039H1029.75V50.9984H897.172V51.0293ZM897.172 146.832V101.379H1019.34V146.832H897.172ZM897.172 249.235V202.015H1031.49V249.235H897.172Z" fill="white"/>
<path d="M1130.08 249.204L1051.32 4.15039H1105.48L1163.11 192.627H1141.95L1198.12 4.15039H1240.82L1297.06 192.627H1276.23L1333.49 4.15039H1387.28L1308.49 249.204H1265.79L1209.22 60.7274H1229.35L1172.78 249.204H1130.08Z" fill="white"/>
<path d="M1524.76 253.387C1506.23 253.387 1489.19 250.134 1473.57 243.658C1457.96 237.182 1444.23 228.166 1432.46 216.578C1420.65 205.021 1411.51 191.543 1405.04 176.144C1398.56 160.745 1395.31 144.168 1395.31 126.321C1395.31 108.474 1398.53 91.619 1405.04 76.3439C1411.51 61.0687 1420.53 47.7146 1432.12 36.2504C1443.67 24.7863 1457.27 15.8939 1472.89 9.54213C1488.51 3.19039 1505.58 -0.000976562 1524.08 -0.000976562C1542.57 -0.000976562 1559.31 3.19039 1574.92 9.54213C1590.54 15.8939 1604.2 24.8173 1615.88 36.2504C1627.56 47.7146 1636.64 61.1307 1643.12 76.5298C1649.59 91.9289 1652.85 108.629 1652.85 126.693C1652.85 144.757 1649.59 161.116 1643.12 176.516C1636.64 191.915 1627.63 205.331 1616.04 216.764C1604.45 228.228 1590.88 237.182 1575.26 243.658C1559.65 250.134 1542.82 253.387 1524.76 253.387ZM1524.08 203.751C1538.64 203.751 1551.44 200.528 1562.43 194.022C1573.43 187.546 1581.92 178.468 1587.93 166.786C1593.95 155.105 1596.95 141.627 1596.95 126.352C1596.95 114.795 1595.22 104.323 1591.75 94.9343C1588.28 85.5462 1583.29 77.4593 1576.81 70.6428C1570.34 63.8263 1562.62 58.621 1553.73 55.0268C1544.8 51.4326 1534.92 49.6356 1524.05 49.6356C1509.45 49.6356 1496.69 52.8269 1485.69 59.1787C1474.69 65.5614 1466.2 74.4538 1460.19 85.918C1454.18 97.3821 1451.17 110.86 1451.17 126.352C1451.17 137.94 1452.91 148.444 1456.38 157.925C1459.85 167.406 1464.77 175.586 1471.12 182.402C1477.48 189.219 1485.19 194.486 1494.21 198.204C1503.22 201.922 1513.17 203.751 1524.05 203.751H1524.08Z" fill="white"/>
<path d="M1807.98 253.387C1789.45 253.387 1772.41 250.134 1756.8 243.658C1741.18 237.182 1727.45 228.166 1715.68 216.578C1703.88 205.021 1694.74 191.543 1688.26 176.144C1681.78 160.745 1678.53 144.168 1678.53 126.321C1678.53 108.474 1681.75 91.619 1688.26 76.3439C1694.74 61.0687 1703.75 47.7146 1715.34 36.2504C1726.9 24.7863 1740.5 15.8939 1756.11 9.54213C1771.73 3.19039 1788.8 -0.000976562 1807.3 -0.000976562C1825.8 -0.000976562 1842.53 3.19039 1858.15 9.54213C1873.76 15.8939 1887.43 24.8173 1899.11 36.2504C1910.79 47.7146 1919.87 61.1307 1926.34 76.5298C1932.82 91.9289 1936.07 108.629 1936.07 126.693C1936.07 144.757 1932.82 161.116 1926.34 176.516C1919.87 191.915 1910.85 205.331 1899.26 216.764C1887.67 228.228 1874.1 237.182 1858.49 243.658C1842.87 250.134 1826.05 253.387 1807.98 253.387ZM1807.3 203.751C1821.86 203.751 1834.66 200.528 1845.66 194.022C1856.66 187.546 1865.15 178.468 1871.16 166.786C1877.17 155.105 1880.17 141.627 1880.17 126.352C1880.17 114.795 1878.44 104.323 1874.97 94.9343C1871.5 85.5462 1866.51 77.4593 1860.04 70.6428C1853.56 63.8263 1845.84 58.621 1836.95 55.0268C1828.03 51.4326 1818.14 49.6356 1807.27 49.6356C1792.68 49.6356 1779.91 52.8269 1768.91 59.1787C1757.91 65.5614 1749.42 74.4538 1743.41 85.918C1737.4 97.3821 1734.39 110.86 1734.39 126.352C1734.39 137.94 1736.13 148.444 1739.6 157.925C1743.07 167.406 1748 175.586 1754.35 182.402C1760.7 189.219 1768.42 194.486 1777.43 198.204C1786.45 201.922 1796.39 203.751 1807.27 203.751H1807.3Z" fill="white"/>
<path d="M1970.77 249.204V4.15039H2025.27V249.204H1970.77ZM2007.55 249.204V201.302H2068.28C2083.09 201.302 2096.04 198.359 2107.17 192.441C2118.29 186.523 2126.84 177.909 2132.85 166.569C2138.86 155.229 2141.87 141.813 2141.87 126.29C2141.87 110.767 2138.8 97.4745 2132.67 86.3822C2126.53 75.2899 2117.98 66.7073 2106.98 60.6964C2095.98 54.6855 2083.09 51.68 2068.28 51.68H2005.82V4.15039H2068.99C2087.49 4.15039 2104.56 7.09388 2120.18 13.0118C2135.79 18.9298 2149.46 27.3575 2161.14 38.3568C2172.82 49.3562 2181.84 62.3076 2188.22 77.2419C2194.57 92.1762 2197.76 108.66 2197.76 126.693C2197.76 144.725 2194.57 160.93 2188.22 175.988C2181.87 191.047 2172.88 203.998 2161.33 214.873C2149.74 225.749 2136.17 234.207 2120.55 240.218C2104.93 246.229 2087.99 249.235 2069.71 249.235H2007.58L2007.55 249.204Z" fill="white"/>
<path d="M127.686 610.604C109.56 610.604 92.7664 607.444 77.2744 601.154C61.7823 594.833 48.2423 585.972 36.6542 574.476C25.0661 563.012 16.0498 549.658 9.63606 534.383C3.22235 519.139 0 502.655 0 484.994C0 467.333 3.22235 450.881 9.63606 435.606C16.0498 420.361 25.0042 407.1 36.4683 395.853C47.9324 384.606 61.4105 375.837 76.9026 369.517C92.3946 363.196 109.188 360.066 127.314 360.066C146.586 360.066 163.72 363.165 178.778 369.362C193.806 375.558 206.943 384.048 218.19 394.831L182.063 431.299C175.649 424.42 167.903 419.029 158.825 415.125C149.746 411.221 139.274 409.269 127.345 409.269C116.779 409.269 107.081 411.066 98.2506 414.598C89.4201 418.162 81.829 423.274 75.5393 429.905C69.2185 436.566 64.292 444.591 60.7289 454.01C57.1657 463.429 55.3996 473.747 55.3996 484.994C55.3996 496.242 57.1657 506.9 60.7289 516.319C64.292 525.738 69.2185 533.763 75.5393 540.425C81.86 547.086 89.4201 552.23 98.2506 555.917C107.081 559.573 116.779 561.432 127.345 561.432C139.738 561.432 150.521 559.48 159.692 555.576C168.863 551.672 176.795 546.281 183.426 539.402L219.894 575.871C208.182 586.653 194.828 595.143 179.801 601.34C164.773 607.536 147.391 610.635 127.655 610.635L127.686 610.604Z" fill="white"/>
<path d="M355.852 610.946C337.509 610.946 320.592 607.724 305.1 601.31C289.608 594.896 276.006 585.942 264.325 574.478C252.613 563.014 243.565 549.659 237.152 534.384C230.738 519.14 227.516 502.657 227.516 484.996C227.516 467.335 230.738 450.572 237.152 435.452C243.565 420.301 252.52 407.071 263.984 395.699C275.448 384.328 288.926 375.498 304.418 369.208C319.91 362.887 336.828 359.758 355.17 359.758C373.513 359.758 390.089 362.918 405.581 369.208C421.073 375.529 434.613 384.359 446.201 395.699C457.79 407.071 466.806 420.363 473.22 435.607C479.633 450.882 482.856 467.428 482.856 485.336C482.856 503.245 479.633 519.481 473.22 534.725C466.806 549.969 457.852 563.292 446.387 574.633C434.923 586.004 421.445 594.896 405.953 601.31C390.461 607.724 373.761 610.946 355.883 610.946H355.852ZM355.17 561.743C369.64 561.743 382.312 558.521 393.188 552.107C404.094 545.693 412.522 536.677 418.471 525.089C424.42 513.501 427.425 500.147 427.425 484.996C427.425 473.531 425.69 463.152 422.251 453.857C418.812 444.561 413.885 436.536 407.44 429.751C401.027 422.996 393.374 417.822 384.543 414.259C375.713 410.696 365.891 408.93 355.108 408.93C340.639 408.93 327.966 412.09 317.091 418.38C306.184 424.7 297.757 433.531 291.808 444.871C285.828 456.242 282.853 469.596 282.853 484.965C282.853 496.429 284.588 506.87 288.028 516.29C291.467 525.709 296.331 533.796 302.652 540.55C308.973 547.336 316.595 552.541 325.549 556.197C334.504 559.884 344.357 561.712 355.139 561.712L355.17 561.743Z" fill="white"/>
<path d="M517.25 606.826V363.849H571.286V606.826H517.25ZM558.552 410.325V363.849H685.556V410.325H558.552ZM558.552 511.519V465.043H680.04V511.519H558.552Z" fill="white"/>
<path d="M720.32 606.826V363.849H774.357V606.826H720.32ZM761.622 410.325V363.849H888.626V410.325H761.622ZM761.622 511.519V465.043H883.111V511.519H761.622Z" fill="white"/>
<path d="M923.357 606.826V363.849H977.394V606.826H923.357ZM964.659 410.325V363.849H1096.12V410.325H964.659ZM964.659 505.322V460.24H1085.81V505.322H964.659ZM964.659 606.857V560.04H1097.86V606.857H964.659Z" fill="white"/>
<path d="M1135.01 606.826V363.849H1189.05V606.826H1135.01ZM1176.31 410.325V363.849H1307.78V410.325H1176.31ZM1176.31 505.322V460.24H1297.46V505.322H1176.31ZM1176.31 606.857V560.04H1309.51V606.857H1176.31Z" fill="white"/>
<path d="M1412.04 606.826V363.849H1466.08V606.826H1412.04ZM1453.34 506.685V466.778H1504.62C1515.4 466.778 1523.71 464.02 1529.56 458.505C1535.42 452.99 1538.33 445.554 1538.33 436.135C1538.33 427.428 1535.45 420.178 1529.72 414.446C1523.99 408.714 1515.71 405.832 1504.93 405.832H1453.31V363.849H1511.13C1527.18 363.849 1541.31 366.885 1553.45 372.958C1565.6 379.031 1575.14 387.459 1582.02 398.241C1588.9 409.023 1592.34 421.417 1592.34 435.422C1592.34 449.427 1588.9 462.099 1582.02 472.758C1575.14 483.416 1565.51 491.751 1553.11 497.7C1540.72 503.68 1526.16 506.654 1509.39 506.654H1453.31L1453.34 506.685ZM1544.19 606.826L1468.46 502.193L1518.01 488.777L1608.17 606.826H1544.16H1544.19Z" fill="white"/>
<path d="M1746.58 610.946C1728.23 610.946 1711.32 607.724 1695.82 601.31C1680.33 594.896 1666.73 585.942 1655.05 574.478C1643.34 563.014 1634.29 549.659 1627.88 534.384C1621.46 519.14 1618.24 502.657 1618.24 484.996C1618.24 467.335 1621.46 450.572 1627.88 435.452C1634.29 420.301 1643.24 407.071 1654.71 395.699C1666.17 384.328 1679.65 375.498 1695.14 369.208C1710.63 362.887 1727.55 359.758 1745.89 359.758C1764.24 359.758 1780.81 362.918 1796.3 369.208C1811.8 375.529 1825.34 384.359 1836.92 395.699C1848.51 407.071 1857.53 420.363 1863.94 435.607C1870.36 450.882 1873.58 467.428 1873.58 485.336C1873.58 503.245 1870.36 519.481 1863.94 534.725C1857.53 549.969 1848.57 563.292 1837.11 574.633C1825.65 586.004 1812.17 594.896 1796.68 601.31C1781.18 607.724 1764.48 610.946 1746.61 610.946H1746.58ZM1745.89 561.743C1760.36 561.743 1773.04 558.521 1783.91 552.107C1794.82 545.693 1803.25 536.677 1809.19 525.089C1815.14 513.501 1818.15 500.147 1818.15 484.996C1818.15 473.531 1816.41 463.152 1812.97 453.857C1809.54 444.561 1804.61 436.536 1798.16 429.751C1791.75 422.996 1784.1 417.822 1775.27 414.259C1766.44 410.696 1756.61 408.93 1745.83 408.93C1731.36 408.93 1718.69 412.09 1707.81 418.38C1696.91 424.7 1688.48 433.531 1682.53 444.871C1676.55 456.242 1673.58 469.596 1673.58 484.965C1673.58 496.429 1675.31 506.87 1678.75 516.29C1682.19 525.709 1687.05 533.796 1693.38 540.55C1699.7 547.336 1707.32 552.541 1716.27 556.197C1725.23 559.884 1735.08 561.712 1745.86 561.712L1745.89 561.743Z" fill="white"/>
<path d="M1873.89 606.826L1970.25 363.849H2019.11L2114.45 606.826H2057.31L1984.35 405.15H2003.96L1929.97 606.826H1873.89ZM1928.61 562.767V518.707H2061.09V562.767H1928.61Z" fill="white"/>
<path d="M2208.76 610.606C2188.81 610.606 2171.65 607.353 2157.3 600.784C2142.95 594.246 2129.82 584.332 2117.89 571.008L2152.99 536.244C2160.8 545.199 2169.45 552.139 2178.99 557.066C2188.5 561.992 2199.56 564.471 2212.2 564.471C2223.67 564.471 2232.56 562.395 2238.88 558.274C2245.2 554.153 2248.33 548.421 2248.33 541.078C2248.33 534.416 2246.25 529.025 2242.13 524.904C2238.01 520.783 2232.56 517.22 2225.77 514.246C2219.02 511.271 2211.55 508.39 2203.4 505.632C2195.26 502.874 2187.17 499.714 2179.14 496.182C2171.12 492.619 2163.71 488.157 2156.93 482.766C2150.17 477.374 2144.72 470.62 2140.57 462.471C2136.45 454.322 2134.37 444.067 2134.37 431.673C2134.37 416.77 2138 403.911 2145.22 393.129C2152.43 382.346 2162.47 374.135 2175.33 368.527C2188.19 362.919 2202.97 360.1 2219.73 360.1C2236.49 360.1 2252.27 363.074 2266.36 369.054C2280.46 375.034 2292.11 383.152 2301.28 393.5L2266.18 428.265C2258.83 420.705 2251.43 415.065 2243.96 411.409C2236.49 407.753 2228.07 405.894 2218.68 405.894C2209.29 405.894 2201.82 407.66 2196.31 411.223C2190.79 414.787 2188.04 419.899 2188.04 426.53C2188.04 432.726 2190.11 437.715 2194.23 441.495C2198.35 445.275 2203.81 448.559 2210.59 451.317C2217.35 454.074 2224.81 456.832 2232.96 459.59C2241.11 462.347 2249.2 465.57 2257.22 469.226C2265.25 472.913 2272.65 477.529 2279.44 483.168C2286.19 488.777 2291.65 495.903 2295.8 504.517C2299.92 513.13 2302 523.727 2302 536.337C2302 559.513 2293.72 577.701 2277.21 590.9C2260.69 604.099 2237.86 610.699 2208.73 610.699L2208.76 610.606Z" fill="white"/>
<path d="M2310.98 411.006V363.849H2517.12V411.006H2310.98ZM2387.05 606.826V367.288H2441.08V606.826H2387.05Z" fill="white"/>
<path d="M2547.39 606.826V363.849H2601.43V606.826H2547.39ZM2588.69 410.325V363.849H2720.16V410.325H2588.69ZM2588.69 505.322V460.24H2709.84V505.322H2588.69ZM2588.69 606.857V560.04H2721.89V606.857H2588.69Z" fill="white"/>
<path d="M2759.04 606.826V363.849H2813.08V606.826H2759.04ZM2800.34 506.685V466.778H2851.62C2862.4 466.778 2870.74 464.02 2876.56 458.505C2882.42 452.99 2885.33 445.554 2885.33 436.135C2885.33 427.428 2882.45 420.178 2876.72 414.446C2870.99 408.714 2862.71 405.832 2851.93 405.832H2800.31V363.849H2858.13C2874.18 363.849 2888.31 366.885 2900.45 372.958C2912.6 379.031 2922.14 387.459 2929.02 398.241C2935.9 409.023 2939.34 421.417 2939.34 435.422C2939.34 449.427 2935.9 462.099 2929.02 472.758C2922.14 483.416 2912.51 491.751 2900.11 497.7C2887.72 503.68 2873.16 506.654 2856.39 506.654H2800.28L2800.34 506.685ZM2891.19 606.826L2815.46 502.193L2865.01 488.777L2955.17 606.826H2891.16H2891.19Z" fill="white"/>
<path d="M3045.74 610.606C3025.78 610.606 3008.62 607.353 2994.27 600.784C2979.93 594.246 2966.79 584.332 2954.86 571.008L2989.97 536.244C2997.77 545.199 3006.42 552.139 3015.96 557.066C3025.47 561.992 3036.54 564.471 3049.18 564.471C3060.64 564.471 3069.53 562.395 3075.85 558.274C3082.17 554.153 3085.3 548.421 3085.3 541.078C3085.3 534.416 3083.23 529.025 3079.11 524.904C3074.99 520.783 3069.53 517.22 3062.75 514.246C3055.99 511.271 3048.53 508.39 3040.38 505.632C3032.23 502.874 3024.14 499.714 3016.12 496.182C3008.09 492.619 3000.69 488.157 2993.9 482.766C2987.15 477.374 2981.69 470.62 2977.54 462.471C2973.42 454.322 2971.34 444.067 2971.34 431.673C2971.34 416.77 2974.97 403.911 2982.19 393.129C2989.41 382.346 2999.45 374.135 3012.31 368.527C3025.16 362.919 3039.94 360.1 3056.71 360.1C3073.47 360.1 3089.24 363.074 3103.34 369.054C3117.44 375.034 3129.08 383.152 3138.26 393.5L3103.15 428.265C3095.81 420.705 3088.4 415.065 3080.94 411.409C3073.47 407.753 3065.04 405.894 3055.65 405.894C3046.26 405.894 3038.8 407.66 3033.28 411.223C3027.77 414.787 3025.01 419.899 3025.01 426.53C3025.01 432.726 3027.09 437.715 3031.21 441.495C3035.33 445.275 3040.78 448.559 3047.57 451.317C3054.32 454.074 3061.79 456.832 3069.94 459.59C3078.09 462.347 3086.17 465.57 3094.2 469.226C3102.22 472.913 3109.63 477.529 3116.41 483.168C3123.17 488.777 3128.62 495.903 3132.77 504.517C3136.89 513.13 3138.97 523.727 3138.97 536.337C3138.97 559.513 3130.7 577.701 3114.18 590.9C3097.67 604.099 3074.83 610.699 3045.71 610.699L3045.74 610.606Z" fill="white"/>
</g>
<defs>
<clipPath id="clip0_1109_4433">
<rect width="3139" height="610.945" fill="white"/>
</clipPath>
</defs>
</svg>
