<svg width="1751" height="629" viewBox="0 0 1751 629" fill="none" xmlns="http://www.w3.org/2000/svg">
<path d="M64.2276 251.769C49.9548 251.769 37.3472 249.034 26.4047 243.563C15.7001 237.853 6.89852 230.241 0 220.726L23.5501 198.96C28.0698 205.621 33.66 210.735 40.3207 214.303C47.2192 217.871 54.8313 219.656 63.1571 219.656C71.4829 219.656 78.8572 217.871 85.28 214.303C91.7027 210.735 96.6982 205.502 100.266 198.603C104.072 191.467 105.976 182.784 105.976 172.555V0.568115H139.517V170.771C139.517 187.185 136.186 201.458 129.526 213.59C123.103 225.722 114.182 235.118 102.764 241.778C91.5838 248.439 78.7383 251.769 64.2276 251.769Z" fill="white"/>
<path d="M195.222 248.201V0.568115H228.763V248.201H195.222Z" fill="white"/>
<path d="M287.215 248.201V0.568115H320.756V248.201H287.215ZM447.07 248.201V0.568115H480.611V248.201H447.07ZM310.051 135.446V104.76H455.277V135.446H310.051Z" fill="white"/>
<path d="M520.952 248.201L622.288 0.568115H646.552L747.532 248.201H711.137L627.998 38.7478H640.486L556.634 248.201H520.952ZM569.122 192.18V162.921H699.362V192.18H569.122Z" fill="white"/>
<path d="M755.812 248.201L857.148 0.568115H881.412L982.392 248.201H945.997L862.858 38.7478H875.346L791.494 248.201H755.812ZM803.982 192.18V162.921H934.222V192.18H803.982Z" fill="white"/>
<path d="M1019.67 248.201V0.568115H1043.22L1053.21 39.4615V248.201H1019.67ZM1190.95 248.201L1038.94 45.1706L1043.22 0.568115L1195.58 203.242L1190.95 248.201ZM1190.95 248.201L1180.95 211.449V0.568115H1214.5V248.201H1190.95Z" fill="white"/>
<path d="M124.887 628.769C107.046 628.769 90.5134 625.558 75.2891 619.135C60.0647 612.475 46.7434 603.316 35.3252 591.66C24.1448 580.004 15.4622 566.445 9.27734 550.983C3.09246 535.521 0 518.988 0 501.385C0 483.544 3.09246 466.892 9.27734 451.43C15.4622 435.968 24.1448 422.528 35.3252 411.109C46.7434 399.453 59.9457 390.414 74.9321 383.991C90.1565 377.33 106.689 374 124.53 374C144.036 374 161.164 377.33 175.912 383.991C190.661 390.652 203.744 399.691 215.162 411.109L191.969 434.303C184.119 425.501 174.485 418.603 163.067 413.607C151.886 408.612 139.041 406.114 124.53 406.114C111.447 406.114 99.4338 408.493 88.4913 413.25C77.5489 417.77 68.0337 424.312 59.9458 432.875C51.8579 441.439 45.554 451.549 41.0343 463.205C36.7525 474.861 34.6116 487.588 34.6116 501.385C34.6116 515.182 36.7525 527.908 41.0343 539.564C45.554 551.221 51.8579 561.33 59.9458 569.894C68.0337 578.458 77.5489 585.119 88.4913 589.876C99.4338 594.396 111.447 596.656 124.53 596.656C139.992 596.656 153.433 594.158 164.851 589.162C176.269 583.929 185.903 576.912 193.753 568.11L216.947 590.947C205.528 602.841 192.088 612.118 176.626 618.779C161.402 625.439 144.155 628.769 124.887 628.769Z" fill="white"/>
<path d="M258.151 625.201V377.568H291.692V625.201H258.151ZM280.987 625.201V594.515H413.724V625.201H280.987Z" fill="white"/>
<path d="M546.528 628.769C528.925 628.769 512.511 625.558 497.287 619.135C482.063 612.475 468.741 603.316 457.323 591.66C445.905 579.766 436.985 566.088 430.562 550.626C424.377 535.164 421.284 518.631 421.284 501.028C421.284 483.187 424.377 466.654 430.562 451.43C436.985 435.968 445.786 422.409 456.966 410.752C468.385 399.096 481.587 390.057 496.573 383.634C511.798 377.211 528.211 374 545.815 374C563.418 374 579.713 377.211 594.699 383.634C609.923 390.057 623.244 399.096 634.663 410.752C646.081 422.409 655.002 435.968 661.424 451.43C667.847 466.892 671.059 483.544 671.059 501.385C671.059 518.988 667.847 535.521 661.424 550.983C655.002 566.445 646.081 580.004 634.663 591.66C623.482 603.316 610.28 612.475 595.056 619.135C580.069 625.558 563.894 628.769 546.528 628.769ZM545.815 596.656C563.656 596.656 579.237 592.612 592.558 584.524C606.117 576.198 616.822 564.899 624.672 550.626C632.522 536.115 636.447 519.583 636.447 501.028C636.447 487.231 634.187 474.623 629.667 463.205C625.148 451.549 618.844 441.439 610.756 432.875C602.668 424.312 593.153 417.77 582.21 413.25C571.268 408.493 559.136 406.114 545.815 406.114C528.211 406.114 512.63 410.158 499.071 418.246C485.75 426.334 475.164 437.514 467.314 451.787C459.702 466.06 455.896 482.473 455.896 501.028C455.896 514.825 458.037 527.67 462.319 539.564C466.839 551.221 473.023 561.33 480.873 569.894C488.961 578.22 498.476 584.762 509.419 589.519C520.599 594.277 532.731 596.656 545.815 596.656Z" fill="white"/>
<path d="M764.952 625.201V384.705H798.494V625.201H764.952ZM680.743 408.255V377.568H882.346V408.255H680.743Z" fill="white"/>
<path d="M922.31 625.201V377.568H955.851V625.201H922.31ZM1082.17 625.201V377.568H1115.71V625.201H1082.17ZM945.146 512.446V481.76H1090.37V512.446H945.146Z" fill="white"/>
<path d="M1174.24 625.201V377.568H1207.79V625.201H1174.24Z" fill="white"/>
<path d="M1266.24 625.201V377.568H1289.79L1299.78 416.462V625.201H1266.24ZM1437.51 625.201L1285.51 422.171L1289.79 377.568L1442.15 580.242L1437.51 625.201ZM1437.51 625.201L1427.52 588.449V377.568H1461.06V625.201H1437.51Z" fill="white"/>
<path d="M1631.61 628.769C1614.24 628.769 1597.95 625.558 1582.72 619.135C1567.74 612.475 1554.53 603.316 1543.12 591.66C1531.93 580.004 1523.13 566.445 1516.71 550.983C1510.29 535.521 1507.08 518.869 1507.08 501.028C1507.08 483.187 1510.29 466.654 1516.71 451.43C1523.13 435.968 1532.05 422.409 1543.47 410.752C1554.89 399.096 1568.21 390.057 1583.44 383.634C1598.9 377.211 1615.67 374 1633.75 374C1653.49 374 1671.69 377.806 1688.34 385.418C1704.99 393.03 1718.91 403.973 1730.09 418.246L1706.9 441.439C1699.05 430.021 1688.7 421.338 1675.85 415.391C1663.01 409.206 1648.97 406.114 1633.75 406.114C1615.67 406.114 1599.61 410.158 1585.58 418.246C1571.78 426.334 1560.96 437.514 1553.11 451.787C1545.49 466.06 1541.69 482.473 1541.69 501.028C1541.69 519.82 1545.61 536.353 1553.46 550.626C1561.31 564.899 1571.9 576.079 1585.22 584.167C1598.54 592.255 1613.77 596.299 1630.89 596.299C1648.26 596.299 1663.24 592.969 1675.85 586.308C1688.7 579.647 1698.57 569.894 1705.47 557.049C1712.37 543.965 1715.82 528.027 1715.82 509.235L1736.15 523.864H1629.11V493.178H1750.43V498.173C1750.43 526.957 1745.31 551.102 1735.08 570.608C1725.09 589.876 1711.06 604.387 1692.98 614.14C1675.14 623.893 1654.68 628.769 1631.61 628.769Z" fill="white"/>
</svg>
