<?xml version="1.0" encoding="UTF-8"?>
<svg id="Layer_2" data-name="Layer 2" xmlns="http://www.w3.org/2000/svg" viewBox="0 0 1064.68 1345.25">
  <defs>
    <style>
      .cls-1 {
        fill: #fff;
      }
    </style>
  </defs>
  <g id="Layer_1-2" data-name="Layer 1">
    <g>
      <g>
        <path class="cls-1" d="M889.58,1133.06c15.09,22.54,30.13,45.11,45.28,67.61,1.85,2.75,3.31,5.98,7.96,5.37,4.75-.62,9.64-.22,14.47-.28,4.2-.05,4.54-.37,4.51-4.46-.32-39.36-.65-78.73-.97-118.09,0-.52,.15-1.15-.07-1.55-.35-.61-.96-1.53-1.47-1.53-7.63-.1-15.25-.07-23.01-.07,0,14.63-.1,28.88,.03,43.12,.13,14.35,.47,28.71,.73,43.82-.59-1.48-.79-2.39-1.27-3.11-6.79-10.09-13.65-20.12-20.42-30.21-11.3-16.85-22.59-33.7-33.8-50.61-1.39-2.1-2.82-3.13-5.49-2.99-5.24,.26-10.49,.08-15.74,.08-4.09,0-4.11,0-4.08,4.17,.24,33.8,.5,67.61,.74,101.41,.04,5.46,.04,10.92,.09,16.38,.03,4.26,.05,4.27,4.15,4.26,5.35-.01,10.71-.04,16.06-.07,4.35-.03,4.37-.04,4.35-4.31-.15-25.19-.32-50.38-.45-75.57,0-1.3,.26-2.61,.4-3.91,3.22,3.5,5.64,7,8.01,10.55Z"/>
        <path class="cls-1" d="M773.5,1078.28c-36.17-.16-66.48,25.29-66.66,66.2-.15,34.25,25.69,63.44,64.25,64.45,38.65,1,67.5-27.18,68.38-65.21-.34-34.9-26.74-65.26-65.97-65.44Zm39.15,72.71c-1.82,8.67-4.94,16.4-11,22.81-5.52,5.83-12.09,9.59-20.15,11.35-6.72,1.46-13.22,1.18-19.49-.64-9.99-2.89-17.76-9.04-23.06-18.23-4.13-7.17-6.22-14.75-5.88-20.02,.1-18.37,5.92-30.76,19.03-39.24,7.7-4.98,16.2-6.58,25.35-5.65,15.03,1.52,25.35,9.79,31.53,22.89,3.89,8.25,5.69,17.17,3.68,26.73Z"/>
        <path class="cls-1" d="M211.24,1205.03c-.16-39.46-.19-78.93-.25-118.39,0-.52,.19-1.18-.05-1.55-.53-.83-1.27-2.17-1.94-2.18-7.84-.15-15.68-.1-23.83-.1v50.11h-47.73c0-1.6,0-2.85,0-4.11-.04-13.96-.16-27.92-.06-41.88,.02-3.07-.73-4.31-4.03-4.18-6.18,.25-12.39,.24-18.57,0-3.02-.12-3.82,1.01-3.74,3.79,.23,7.87,.36,15.74,.39,23.61,.12,31.49,.2,62.98,.29,94.46,0,1.44,0,2.87,0,4.43h25.97v-52.48h47.43c.05,1.17,.13,2.1,.13,3.02,.03,15.32,.11,30.65,.02,45.97-.01,2.71,.72,3.67,3.55,3.57,6.08-.22,12.18-.23,18.26-.05,3.11,.09,4.17-.82,4.16-4.07Z"/>
        <path class="cls-1" d="M253.48,1203.05c1.87-5.87,4.14-11.62,6.46-17.33,.37-.92,1.9-1.93,2.9-1.94,14.59-.16,29.18-.21,43.76-.09,1.19,0,3.02,1.17,3.45,2.24,2.55,6.27,4.81,12.66,7.1,19.04,.74,2.07,1.75,3.27,4.26,3.22,7.34-.17,14.69-.08,22.04-.11,.82,0,1.63-.14,2.9-.25-.29-1.5-.33-2.69-.75-3.71-4.84-11.83-9.83-23.6-14.59-35.46-5.68-14.17-11.11-28.43-16.74-42.61-5.37-13.52-10.83-26.99-16.3-40.46-.74-1.83-1.72-3.18-4.29-3.05-5.76,.29-11.54,.24-17.31,.08-2.09-.06-3.04,.98-3.78,2.52-.61,1.29-1.04,2.66-1.56,3.99-2.97,7.54-5.94,15.07-8.93,22.6-3.41,8.59-6.82,17.18-10.27,25.75-2.96,7.34-6.01,14.65-8.96,22-2.49,6.22-4.83,12.49-7.33,18.7-2.5,6.2-5.15,12.33-7.66,18.53-1.5,3.71-2.84,7.48-4.42,11.67,1.63,.14,2.83,.35,4.03,.34,6.4-.08,12.8-.24,19.2-.33,5.29-.07,5.15-.19,6.79-5.31Zm30.67-89.4c5.98,16.33,11.95,32.62,18.02,49.2h-34.92c5.7-16.6,11.27-32.81,16.9-49.2Z"/>
        <path class="cls-1" d="M98.29,1209.28c.86,0,1.73-.13,2.96-.23-17.03-21.24-33.75-42.11-50.41-62.89,15.07-20.92,30.02-41.68,45.5-63.16-9.07,0-16.93,.1-24.78-.07-2.12-.05-3.29,.84-4.35,2.35-2.6,3.7-5.18,7.42-7.8,11.11-7.29,10.28-14.58,20.55-21.88,30.82-3.06,4.31-6.12,8.61-9.38,13.19-.32-.72-.53-.99-.53-1.25-.02-17.42-.08-34.84,0-52.26,.01-2.71-.79-3.75-3.59-3.65-6.19,.2-12.39,.29-18.57,.13-3.11-.08-3.86,1.09-3.84,4.04,.18,22.35,.2,44.71,.28,67.06,.06,16.58,.15,33.17,.22,49.75,.02,5.05,.01,5.06,4.91,5.07,5.77,.01,11.55-.17,17.32,.07,3.11,.13,3.93-.94,3.89-3.92-.22-16.16-.26-32.33-.36-48.49,0-1.09,0-2.18,0-3.41,2.39,3.39,4.53,6.58,6.83,9.66,10.78,14.41,21.6,28.79,32.42,43.18,1.48,1.97,3.17,3.09,5.97,3.01,8.39-.25,16.79-.08,25.19-.1Z"/>
        <path class="cls-1" d="M695.98,1178.79c1.94-10.19,1.11-19.82-5.58-28.32-7.8-9.9-19.26-13.85-30.17-18.73-5.36-2.4-10.78-4.75-15.85-7.67-4.87-2.81-6.79-9.69-4.54-14.82,4.04-9.22,18.01-12.16,24.3-4.79,2.11,2.48,3.34,5.78,4.65,8.84,.73,1.69,1.51,2.38,3.41,2.33,5.35-.14,10.71-.07,16.06-.07,2.16,0,4.32,0,6.69,0-.53-7.58-2.06-14.2-5.94-20.22-6.24-9.68-15.58-14.56-26.45-16.14-12.5-1.82-24.51,.29-34.94,8.04-13.95,10.36-16.63,23.9-13.53,37.71,2.6,11.59,11.74,18.41,22.07,23.12,7.93,3.62,16.34,6.17,24.32,9.7,9.18,4.07,13.07,10.12,9.05,20.17-2.18,5.46-8.92,9.68-15.25,9.49-6.74-.21-12.05-3.09-14.74-9.52-1.41-3.37-2.21-7-3.31-10.58h-24.86c-.8,6.56,.51,12.59,2.74,18.08,6.23,15.34,18.72,22.43,34.63,23.68,5.76,.45,11.66-.41,17.45-1.04,7.69-.83,14.13-4.51,19.66-9.74,5.61-5.3,8.69-12,10.13-19.52Z"/>
        <path class="cls-1" d="M1062.99,1166.03c-.24-5.1-1.55-9.76-4.21-14.2-4.64-7.75-11.95-12.16-19.64-15.95-8.87-4.36-18.02-8.13-27.02-12.24-3.34-1.53-5.94-4.12-6.51-7.72-1.13-7.23,1.34-11.97,7.61-15.25,6.69-3.5,15.21-1.78,18.87,3.72,1.89,2.84,2.79,6.34,4.2,9.69h24.91c-.03-6.96-1.64-13.12-4.94-18.73-5.42-9.22-13.6-14.53-24.06-16.76-9.79-2.09-19.48-1.81-28.61,1.94-11.4,4.68-19.97,12.41-22.95,25.18-1.68,7.22-1.6,14.2,1.06,21.08,3.44,8.89,10.22,14.71,18.57,18.55,8.78,4.04,17.91,7.32,26.82,11.11,4.14,1.76,8.27,4.2,9.54,8.69,2,7.09,.55,12.84-5.75,17.52-6.05,4.49-11.67,4.71-18.09,1.26-5.51-2.96-8.3-7.87-8.76-14.04-.21-2.85-1.05-4.28-4.36-4.13-6.39,.28-12.8,.16-19.2,.04-2.27-.04-3.15,.82-2.74,2.95,1.02,5.27,1.48,10.76,3.3,15.74,4.54,12.42,14.28,19.14,26.78,22.08,8.14,1.91,16.35,1.93,24.63,.28,7.19-1.43,13.63-4.23,18.98-9.19,9.22-8.54,12.16-19.44,11.58-31.63Z"/>
        <path class="cls-1" d="M488.14,1204.66c.01,2.6,.77,3.4,3.4,3.36,12.58-.2,25.17-.2,37.76-.28,7.66-.05,15.32-.08,22.97-.27,.99-.03,2.78-.96,2.8-1.52,.19-6.98,.13-13.97,.13-21.19h-41.77v-103.02h-26.06c0,3.16-.02,6.08,0,9,.27,37.98,.57,75.96,.77,113.94Z"/>
        <path class="cls-1" d="M427.08,1188.22c.05-2.61-.9-3.47-3.5-3.44-11.23,.11-22.46,.04-33.69,.05-4.58,0-4.58,.03-4.59-4.46-.04-31.6-.12-63.2-.06-94.79,0-3.03-.84-4.02-3.9-3.9-5.87,.24-11.75,.07-17.63,.12-4.17,.04-4.41,.32-4.41,4.48,.02,39.26,.04,78.52,.05,117.78,0,1.14,0,2.28,0,3.68,.83,.15,1.23,.28,1.63,.28,21.1,0,42.2-.04,63.29-.02,2.25,0,2.88-1.01,2.84-3.08-.1-5.56-.15-11.13-.04-16.69Z"/>
        <path class="cls-1" d="M438.71,1200.05c0,1.68,.1,3.36,0,5.03-.13,2.18,.77,2.96,2.95,2.92,6.29-.1,12.58-.03,18.88-.04q4.32,0,4.31-4.32c-.2-39.54-.4-79.08-.62-118.62,0-1.12-.12-2.23-.18-3.36h-25.76c0,1.49,0,2.83,0,4.17,.14,38.07,.28,76.13,.42,114.2Z"/>
        <path class="cls-1" d="M325.76,1247.62c-22.08,.29-38.01,16.98-37.15,37.6-1.98,18.71,16.24,39.46,41.6,37.02,16.16-1.55,35.44-16.08,33.47-40.47-1.58-19.51-17.2-34.43-37.92-34.16Zm11.38,58.58c-10.31,5.93-26.02,2.2-30.8-9.51-1.49-3.64-2.39-7.52-3.56-11.3,.26-.09,.52-.17,.78-.26-.1-9.59,3.69-17.09,12.3-21.63,10.56-5.56,23-1.87,29.19,8.22,7.05,11.51,3.6,27.85-7.91,34.47Z"/>
        <path class="cls-1" d="M41.57,1251.35c-10.13-.5-20.28-.84-30.42-1.22-.8-.03-1.61,.14-2.54,.23v72.38c11.83-.59,23.48-.94,35.1-1.84,7.87-.61,13.96-5.07,18.78-11.05,3.62-4.49,5.15-9.9,6.18-15.63,2.05-11.43,.41-21.94-6.54-31.32-5.07-6.84-11.82-11.13-20.55-11.56Zm10.59,46.46c-2.52,6.17-7.11,9.57-13.32,10.58-4.3,.7-8.78,.47-13.17,.43-.72,0-2.06-1.2-2.06-1.85-.08-14.25-.02-28.5,.02-42.75,0-.08,.11-.16,.16-.25,.1-.3,.2-.6,.3-.89,5.67,.56,11.46,.62,16.99,1.83,6.39,1.39,10.1,6.29,11.9,12.34,2.05,6.87,1.96,13.72-.82,20.55Z"/>
        <path class="cls-1" d="M524.52,1292.24c5.56-2.82,9.2-7.28,10.36-13.48,.39-2.07,2.03-4.23,.09-6.37,2.16-3.21,.03-6.2-.86-8.98-3.17-9.89-10.84-14.14-20.66-14.62-8.9-.43-17.83-.09-26.75-.35-3.02-.09-3.61,1-3.6,3.77,.12,21.62,.09,43.24,.11,64.85,0,1.04,.09,2.07,.16,3.58,3.83,0,7.27,0,10.72,0,4.08,0,4.1-.01,4.09-4.24-.02-16.79-.05-33.58-.07-50.37,0-1.23,0-2.45,0-3.99,4.01,0,7.59,.06,11.18-.01,5.67-.11,9.39,2.61,11.35,7.79,2.11,5.61-.93,15.28-8.44,15.85-3.49,.27-6.95,.98-10.66,1.52,.49,1,.87,1.93,1.38,2.79,5.56,9.48,11.14,18.95,16.74,28.4,.44,.75,1.08,1.96,1.65,1.98,4.86,.16,9.72,.09,15.33,.09-5.89-9.72-11.33-18.7-16.61-27.41,1.59-.27,3.22-.18,4.48-.82Z"/>
        <path class="cls-1" d="M1051.45,1246.38c-.58-.17-.77-.27-.97-.28-2.41-.04-4.82-.08-7.24-.1-4.45-.05-4.42-.05-4.41,4.55,.02,6.77,0,13.54,0,20.1-.65-.78-1.27-1.81-2.14-2.52-7.95-6.48-18.57-6.82-27.31-2.39-7.29,3.7-11.75,9.56-13.74,17.69-1.68,6.88-1.19,13.29,1.35,19.78,2.18,5.55,5.82,9.43,10.91,12.67,6.98,4.45,14.19,4.65,21.57,2.64,3.48-.95,6.51-3.53,9.83-5.42,.09,1.39,.2,3.02,.33,5.02,2.98,0,5.9-.19,8.8,.05,2.79,.23,3.57-.73,3.55-3.51-.16-21.72-.16-43.44-.23-65.16,0-1.09-.2-2.19-.3-3.14Zm-27.64,60.84c-8.75,.15-16.12-8.03-15.93-16.19,.18-7.46,6.33-15.69,15.89-15.67,8.39,.02,16.73,6.94,15.68,15.9,1.23,8.98-8.09,15.82-15.65,15.95Z"/>
        <path class="cls-1" d="M707.08,1249.01c-11.79-1.47-23.75-1.61-35.64-2.3-.09,.38-.18,.76-.28,1.13-.03,.1-.1,.2-.1,.3,.02,23.09,.02,46.17,.16,69.26,0,.72,1.43,1.99,2.26,2.05,3.24,.24,6.51-.04,9.75,.13,2.37,.12,3.13-.76,3.07-3.07-.14-5.56-.1-11.13-.1-16.69,0-5.33-.49-4.61,4.64-4.85,5.19-.24,10.43-.47,15.54-1.33,5.06-.86,9.19-3.83,11.88-8.21,4.92-8.02,5.91-16.22,1.76-25.2-2.77-6-6.93-10.46-12.95-11.21Zm-7.46,32.14c-3.62,.41-7.31,.19-10.97,.29-1.62,.04-2.54-.45-2.53-2.3,.06-5.85,.02-11.71,.02-18.75,5.87,.69,11.33,1.02,16.63,2.08,2.82,.57,4.67,2.97,4.86,6.14,.08,1.36,.03,2.72,.08,4.08,.2,5.16-3.88,7.99-8.09,8.47Z"/>
        <path class="cls-1" d="M408.38,1250.18c-11.52-1.19-23.15-1.41-35.05-2.05v72.69c4.22,0,8.18-.11,12.13,.04,2.18,.08,2.95-.61,2.89-2.83-.14-6.08-.08-12.17-.08-18.25,0-1.1,.11-2.2,.15-2.9,6.67-.62,12.94-.81,19.07-1.85,11.16-1.89,16.01-11.03,17.09-19.9,.57-4.67-.32-9.12-2.37-13.58-2.86-6.23-7.23-10.68-13.83-11.36Zm.81,26.99c-1.22,3.52-4.56,5.03-8.01,5.4-3.62,.39-7.31,.21-10.96,.05-.69-.03-1.89-1.12-1.9-1.75-.14-6.04-.09-12.08-.09-19.21,5.92,.7,11.28,1.07,16.52,2.04,2.96,.55,4.71,3.05,4.93,6.07,.18,2.46,.29,5.14-.49,7.4Z"/>
        <path class="cls-1" d="M472.68,1309.59c.05-1.89-.66-2.58-2.59-2.54-5.04,.11-10.08,.04-15.11,.04q-7.92,0-7.97-7.9-.05-8.4,8.42-8.4c5.53,0,11.05,0,16.87,0,0-3.87,.01-7.32,0-10.77,0-.82-.13-1.64-.21-2.7-1.29,0-2.43,0-3.57,0-6.3,0-12.6-.01-18.9,0-1.48,0-2.74-.06-2.72-2.07,.05-4.5,.01-9,.01-13.75,.57,.18,.92,.4,1.27,.4,7.44,.06,14.89,.16,22.33,.01,.67-.01,1.78-1.62,1.88-2.57,.26-2.49-.1-5.04,.1-7.55,.22-2.75-.97-3.32-3.47-3.28-10.18,.14-20.36,.11-30.55,.13-2.18,0-4.36,0-6.75,0,0,1.72,0,3.06,0,4.4,.04,21.42,.09,42.83,.12,64.25,0,1.84-.22,3.55,2.6,3.52,11.97-.09,23.93-.07,35.9,0,1.82,0,2.41-.71,2.36-2.41-.07-2.94-.11-5.88-.03-8.82Z"/>
        <path class="cls-1" d="M577.39,1281.17c-5.57-2.79-11.34-5.18-16.94-7.91-3.59-1.75-4.62-4.29-3.8-8.25,.55-2.65,3.83-5.22,6.86-5.36,5.94-.28,8.19,1.54,9.78,8.06h14.53c.38-4.86-1.1-8.81-3.77-12.45-5.85-7.95-17.84-10.52-28.39-6.73-7.08,2.54-14.77,8.52-14.19,21.23,.37,7.97,6.43,14.05,14.05,17.14,4.95,2.01,9.98,3.92,14.67,6.45,4.53,2.44,5.29,6.55,2.74,10.8-2.46,4.1-7.99,5.58-12,3.54-4.13-2.1-5.35-5.76-5.93-10.03h-14.3c-1.28,7.83,3.28,16.63,10.15,20.53,6.2,3.52,12.87,3.23,19.53,2.65,10.97-.95,17.53-9.24,18.71-18.79,1.2-9.78-3.15-16.59-11.7-20.87Z"/>
        <path class="cls-1" d="M79.27,1250.3v71.55h40.51v-13.33h-25.47v-16.21c1.29,0,2.42,0,3.54,0,6.19,0,12.38-.02,18.57,.01,1.61,0,3.14-.15,3.12-2.15-.03-3.81-.27-7.61-.43-11.68h-24.79v-14.71c.82-.07,1.43-.15,2.04-.16,6.92-.07,13.85-.07,20.77-.26,.95-.03,2.65-.93,2.68-1.52,.24-3.83,.13-7.68,.13-11.55h-40.69Z"/>
        <path class="cls-1" d="M235.99,1249.42c-11.12,.21-22.24,.33-33.36,.23-3.12-.03-3.85,1.03-3.83,3.97,.14,21.51,.11,43.02,.14,64.53,0,.52-.2,1.21,.06,1.54,.64,.83,1.48,2.13,2.25,2.14,11.96,.1,23.92,.07,35.88-.08,.84,0,2.36-1.06,2.39-1.69,.23-3.81,.11-7.65,.11-11.86h-25.48v-17.28c1.07,.36,1.83,.85,2.6,.85,6.61,.02,13.22,.08,19.82-.22,.97-.04,2.47-1.82,2.66-2.98,.41-2.45,.04-5.02,.13-7.53,.07-1.96-.86-2.55-2.67-2.53-4.72,.06-9.44,.03-14.16,.04-2.79,0-5.57,0-8.68,0,0-4.3,0-8.17,0-12.03,0-3.96,.01-3.98,4.11-3.98,7.11-.01,14.22,0,21.71,0,0-3.54-.19-6.48,.05-9.39,.25-2.97-.89-3.77-3.73-3.72Z"/>
        <path class="cls-1" d="M188.79,1249.8c-3.36,.05-6.72,.18-10.07,0-2.04-.12-3.13,.75-3.75,2.46-.74,2.04-1.41,4.12-2.06,6.19-1.43,4.6-2.75,9.23-4.27,13.81-1.65,4.98-3.51,9.89-5.18,14.86-1.56,4.64-2.99,9.32-4.67,14.58-.86-1.01-1.58-1.5-1.81-2.17-2.81-8.28-5.59-16.58-8.31-24.89-2.38-7.25-4.6-14.56-7.1-21.77-.39-1.13-1.81-2.62-2.84-2.69-4.26-.3-8.55-.13-13.38-.13,.25,1.45,.28,2.4,.58,3.26,1.15,3.26,2.42,6.48,3.58,9.73,2.84,7.96,5.59,15.95,8.46,23.9,3.97,10.98,7.97,21.95,12.1,32.87,.37,.98,1.76,2.14,2.74,2.21,3.76,.26,7.55,.17,11.32,.03,.72-.03,1.82-.7,2.06-1.34,2.85-7.61,5.61-15.25,8.32-22.91,2.48-6.98,4.84-13.99,7.32-20.96,2.89-8.13,5.86-16.24,8.76-24.37,.57-1.59,.17-2.67-1.82-2.64Z"/>
        <path class="cls-1" d="M843.55,1246.33c0,4.27-.06,8.56,.06,12.85,.02,.66,.74,1.51,1.37,1.91,9.9,6.18,15.7,15.33,17.34,26.57,.87,6.02-.03,12.46-1.05,18.56-1.64,9.9-7.69,17.1-15.75,22.76-.82,.58-1.79,1.64-1.84,2.52-.19,4.17-.09,8.34-.09,12.58,16.52-3.62,35.81-25.34,33.96-54.07-1.18-18.32-21.1-44.46-34.02-43.69Z"/>
        <path class="cls-1" d="M659.52,1329.3c-9.75-6.05-15.41-15.2-16.96-26.14-2.39-16.86,2.35-31.38,17.32-41.3,.63-.42,1.45-1.19,1.46-1.82,.13-4.45,.07-8.91,.07-13.55-20.63,6.74-34.03,27.41-33.92,49.44,.11,23.35,14.56,42.69,34.1,49.33,0-4.1-.15-8.03,.06-11.93,.1-1.95-.63-3.09-2.13-4.02Z"/>
        <path class="cls-1" d="M958.86,1308.18c.03-2.39-1.26-3.49-3.48-3.42-5.12,.14-10.25,.27-15.36,.66-4.5,.35-4.93,.13-4.95-4.29-.06-16.79-.11-33.57-.18-50.36-.02-4.49-.04-4.49-4.65-4.47-2.31,.01-4.62,.17-6.92,.01-2.69-.18-3.64,.73-3.6,3.56,.16,10.8,.06,21.61,.06,32.41,.06,0,.11,0,.17,0,0,10.91,.05,21.82-.04,32.73-.02,2.41,.8,3.46,3.23,3.44,10.91-.08,21.82-.12,32.73-.12,2.04,0,3.15-.64,3.02-2.91-.14-2.41-.07-4.82-.04-7.24Z"/>
        <path class="cls-1" d="M286.18,1308.05c-5.03,.11-10.07,.1-15.1,.11-6.04,0-5.51,.65-5.52-5.61-.03-16.57-.11-33.15,0-49.72,.02-2.95-.92-3.89-3.77-3.66-2.71,.23-5.46,.19-8.18,.06-2.35-.11-3.1,.85-3.09,3.13,.07,22.03,.08,44.06,.04,66.08,0,2.02,.61,2.77,2.69,2.72,5.35-.13,10.7-.09,16.05-.09,6.38,0,12.75,0,19.6,0,0-3.82-.09-7.06,.03-10.29,.07-2.06-.73-2.78-2.75-2.74Z"/>
        <path class="cls-1" d="M766.27,1265.43c-2.55-.08-3.74,1.19-4.42,3.5-1.34,4.53-2.79,9.03-4.33,13.5-2.28,6.64-4.67,13.25-6.98,19.79-1.15-3.61-2.25-7.3-3.5-10.94-2.51-7.31-5.37-14.52-7.55-21.92-1-3.39-2.91-3.83-5.71-3.63-.73,.05-1.47,.05-2.2,.06q-7.5,.12-4.87,7.18c5.42,14.47,10.83,28.94,16.3,43.39,.76,2.02,1.91,3.49,4.58,3.16,2.48-.3,5.04,.07,7.54-.14,.94-.08,2.24-.78,2.64-1.56,1.11-2.18,1.87-4.55,2.71-6.86,3.53-9.67,7.05-19.35,10.57-29.03,1.92-5.28,3.83-10.56,5.98-16.49-3.94,0-7.35,.08-10.75-.03Z"/>
        <path class="cls-1" d="M981,1264.66v-18.67c-3.48,0-6.62,.14-9.74-.04-2.46-.15-3.07,.91-3.01,3.13,.12,4.3-.04,8.6,.1,12.9,.07,2.21-.75,3.03-2.92,2.89-1.95-.13-3.91-.03-6.23-.03,0,2.92,.05,5.41-.02,7.9-.05,1.78,.75,2.44,2.46,2.38,2.07-.07,4.15-.02,6.75-.02,0,1.69,0,2.94,0,4.18,.05,11.96,.17,23.92,.12,35.87-.01,2.49,.78,3.37,3.25,3.15,2.19-.19,4.41-.17,6.6-.03,2.71,.18,3.7-.84,3.64-3.62-.23-10.9-.27-21.81-.4-32.72-.08-6.63-.08-6.59,6.35-7.05,.84-.06,2.31-.76,2.35-1.26,.23-2.87,.11-5.76,.11-8.98h-9.42Z"/>
        <path class="cls-1" d="M804.68,1265.25q-4.35,0-4.36-4.34c0-4.46,0-8.93,0-13.7-3.69,0-6.82,.11-9.94-.04-2.4-.11-3.11,.91-3.06,3.16,.1,4.92,.03,9.84,.03,15.02-1.32,0-2.25,0-3.19,0-5.87-.05-5.9-.05-5.86,5.68,.03,5.65-.66,5.03,5.12,4.84,3.16-.1,4.16,.82,4.11,4.05-.16,10.28,0,20.56,.04,30.84q.03,8.71,8.64,8.71c4.91,0,4.97,0,4.88-4.85-.21-11.73-.41-23.46-.78-35.19-.09-2.82,.9-3.79,3.61-3.55,1.83,.16,3.68,.03,5.41,.03v-10.68c-1.74,0-3.2,0-4.65,0Z"/>
        <path class="cls-1" d="M824.59,1304.31q-6.62,.02-6.6,6.66c0,1.36-.01,2.72,0,4.07,.05,3.33,.95,4.23,4.27,4.25,2.19,.01,4.39-.01,6.58-.01,2.3,0,3.44-1.24,3.57-3.45,.07-1.25,.02-2.51,.01-3.76q-.06-7.77-7.85-7.76Z"/>
      </g>
      <g>
        <path class="cls-1" d="M1056.41,845.08c-17.87-33.7-61.06-47.33-98.83-42-37.77,5.33-71.52,25.64-104.08,45.51-11.88-38.51-36.75-74.24-72.56-92.72-35.82-18.48-82.96-16.81-113.57,9.41,29.42-11.18,63.62,1.56,86.38,23.3,22.76,21.73,36.49,51.01,49.7,79.57-25.12,14.83-51.15,29.97-80.09,33.64-28.94,3.66-61.82-7.19-75.16-33.13-7.65-14.87-7.96-32.3-8.1-49.02-2.33-273.21-4.64-546.42-6.97-819.63-.03,.15-.07,.29-.1,.44-62.28,264.09-21.24,540.3-32.51,811.41-1.92,46.14-5.49,92.83-20.39,136.54-2.01,5.88-5.38,12.65-11.57,13.25-7.37,.72-11.95-7.66-14.22-14.71-9.89-30.73-15.08-62.97-15.32-95.26-9.22-5.1-15.05,10.6-14.77,21.14,.81,31.36-7.67,62.91-24.12,89.63-28.17-19.11-31.59-58.57-32.18-92.61-5.07-289.74-6.98-579.53-5.73-869.31-40.41,117.23-40.07,244.02-39.3,368.01,.93,149.28,1.86,298.57,2.79,447.86,.1,16.16,.08,32.92-6.65,47.61-12.4,27.08-45.17,39.95-74.89,38.06-29.73-1.89-57.26-15.51-83.88-28.87,12.27-28.54,25.02-57.81,46.88-79.88,21.86-22.07,55.25-35.61,84.6-25.42-28.71-27.58-76.09-29.52-111.19-10.75-35.11,18.77-58.67,54.66-70.44,92.69-28.43-9.31-55.06-23.56-83.56-32.63-28.5-9.07-60.42-12.58-87.73-.37-45.25,20.24-48.14,68.84-23.2,106.06,24.39,36.4,67.38,60.62,111.52,59.76,56.5-1.11,109.69-43.34,123.57-98.12,62.15,25.11,135.02,49.73,193.17,16.42,2,18.44,4.25,37.64,14.36,53.19,10.11,15.55,30.64,26.01,47.63,18.59,18.65-8.13,23.75-31.77,25.82-52.01,4.1,21.45,11.4,46.67,32.25,53.17,17.25,5.38,36.14-6.03,45.33-21.59,9.19-15.55,10.96-34.24,12.52-52.24,58.77,33.45,138.49,24.97,188.91-20.09,22.58,69.77,105.63,113.39,175.88,92.38,26.52-7.93,51.11-24.33,65.48-47.99,14.38-23.66,17.3-54.81,4.33-79.26Zm-878.46,6.98c-8.84,23.38-19.37,46.57-33.74,67.11-11.03,15.78-25.37,31.73-44.06,38.29-25.01,8.76-54.21-8.54-66.77-30.23-9.41-16.25-15.53-38.58-10.09-57.08,4.82-16.38,18.5-28.68,32.49-37.54,23.72-15.02,53.21-10.36,78.34-1.8,2.96,1.01,45.13,17.78,43.82,21.26Zm848.89,75.16c-12.56,21.69-41.76,39-66.77,30.23-18.68-6.55-33.02-22.51-44.06-38.29-14.37-20.55-24.89-43.73-33.74-67.11-1.31-3.47,40.86-20.24,43.82-21.26,25.13-8.56,54.62-13.22,78.34,1.8,13.99,8.86,27.67,21.15,32.49,37.54,5.44,18.5-.68,40.83-10.09,57.08Z"/>
        <rect class="cls-1" x="471.9" y="995.42" width="45.62" height="45.62" transform="translate(864.89 -51.58) rotate(45)"/>
        <rect class="cls-1" x="555.94" y="995.42" width="45.62" height="45.62" transform="translate(889.5 -111.01) rotate(45)"/>
        <rect class="cls-1" x="699.71" y="681.4" width="45.62" height="45.62" transform="translate(709.57 -304.64) rotate(45)"/>
        <rect class="cls-1" x="317.68" y="681.4" width="45.62" height="45.62" transform="translate(597.68 -34.5) rotate(45)"/>
      </g>
    </g>
  </g>
</svg>