<svg width="1065" height="866" viewBox="0 0 1065 866" fill="none" xmlns="http://www.w3.org/2000/svg">
<path d="M889.571 653.063C904.661 675.603 919.701 698.173 934.851 720.673C936.701 723.423 938.161 726.653 942.811 726.043C947.561 725.423 952.451 725.823 957.281 725.763C961.481 725.713 961.821 725.393 961.791 721.303C961.471 681.943 961.141 642.573 960.821 603.213C960.821 602.693 960.971 602.063 960.751 601.663C960.401 601.053 959.791 600.133 959.281 600.133C951.651 600.033 944.031 600.063 936.271 600.063C936.271 614.693 936.171 628.943 936.301 643.183C936.431 657.533 936.771 671.893 937.031 687.003C936.441 685.523 936.241 684.613 935.761 683.893C928.971 673.803 922.111 663.773 915.341 653.683C904.041 636.833 892.751 619.983 881.541 603.073C880.151 600.973 878.721 599.943 876.051 600.083C870.811 600.343 865.561 600.163 860.311 600.163C856.221 600.163 856.201 600.163 856.231 604.333C856.471 638.133 856.731 671.943 856.971 705.743C857.011 711.203 857.011 716.663 857.061 722.123C857.091 726.383 857.111 726.393 861.211 726.383C866.561 726.373 871.921 726.343 877.271 726.313C881.621 726.283 881.641 726.273 881.621 722.003C881.471 696.813 881.301 671.623 881.171 646.433C881.171 645.133 881.431 643.823 881.571 642.523C884.791 646.023 887.211 649.523 889.581 653.073L889.571 653.063Z" fill="white"/>
<path d="M773.493 598.282C737.323 598.122 707.013 623.572 706.833 664.482C706.683 698.732 732.523 727.922 771.083 728.932C809.733 729.932 838.583 701.752 839.463 663.722C839.123 628.822 812.723 598.462 773.493 598.282ZM812.643 670.992C810.823 679.662 807.703 687.392 801.643 693.802C796.123 699.632 789.553 703.392 781.493 705.152C774.773 706.612 768.273 706.332 762.003 704.512C752.013 701.622 744.243 695.472 738.943 686.282C734.813 679.112 732.723 671.532 733.063 666.262C733.163 647.892 738.983 635.502 752.093 627.022C759.793 622.042 768.293 620.442 777.443 621.372C792.473 622.892 802.793 631.162 808.973 644.262C812.863 652.512 814.663 661.432 812.653 670.992H812.643Z" fill="white"/>
<path d="M211.233 725.031C211.073 685.571 211.043 646.101 210.983 606.641C210.983 606.121 211.173 605.461 210.933 605.091C210.403 604.261 209.663 602.921 208.993 602.911C201.153 602.761 193.313 602.811 185.163 602.811V652.921H137.433C137.433 651.321 137.433 650.071 137.433 648.811C137.393 634.851 137.273 620.891 137.373 606.931C137.393 603.861 136.643 602.621 133.343 602.751C127.163 603.001 120.953 602.991 114.773 602.751C111.753 602.631 110.953 603.761 111.033 606.541C111.263 614.411 111.393 622.281 111.423 630.151C111.543 661.641 111.623 693.131 111.713 724.611C111.713 726.051 111.713 727.481 111.713 729.041H137.683V676.561H185.113C185.163 677.731 185.243 678.661 185.243 679.581C185.273 694.901 185.353 710.231 185.263 725.551C185.253 728.261 185.983 729.221 188.813 729.121C194.893 728.901 200.993 728.891 207.073 729.071C210.183 729.161 211.243 728.251 211.233 725.001V725.031Z" fill="white"/>
<path d="M253.471 723.054C255.341 717.184 257.611 711.434 259.931 705.724C260.301 704.804 261.831 703.794 262.831 703.784C277.421 703.624 292.011 703.574 306.591 703.694C307.781 703.694 309.611 704.864 310.041 705.934C312.591 712.204 314.851 718.594 317.141 724.974C317.881 727.044 318.891 728.244 321.401 728.194C328.741 728.024 336.091 728.114 343.441 728.084C344.261 728.084 345.071 727.944 346.341 727.834C346.051 726.334 346.011 725.144 345.591 724.124C340.751 712.294 335.761 700.524 331.001 688.664C325.321 674.494 319.891 660.234 314.261 646.054C308.891 632.534 303.431 619.064 297.961 605.594C297.221 603.764 296.241 602.414 293.671 602.544C287.911 602.834 282.131 602.784 276.361 602.624C274.271 602.564 273.321 603.604 272.581 605.144C271.971 606.434 271.541 607.804 271.021 609.134C268.051 616.674 265.081 624.204 262.091 631.734C258.681 640.324 255.271 648.914 251.821 657.484C248.861 664.824 245.811 672.134 242.861 679.484C240.371 685.704 238.031 691.974 235.531 698.184C233.031 704.384 230.381 710.514 227.871 716.714C226.371 720.424 225.031 724.194 223.451 728.384C225.081 728.524 226.281 728.734 227.481 728.724C233.881 728.644 240.281 728.484 246.681 728.394C251.971 728.324 251.831 728.204 253.471 723.084V723.054ZM284.141 633.654C290.121 649.984 296.091 666.274 302.161 682.854H267.241C272.941 666.254 278.511 650.044 284.141 633.654Z" fill="white"/>
<path d="M98.2817 729.282C99.1417 729.282 100.012 729.152 101.242 729.052C84.2117 707.812 67.4917 686.942 50.8317 666.162C65.9017 645.242 80.8517 624.482 96.3317 603.002C87.2617 603.002 79.4017 603.102 71.5517 602.932C69.4317 602.882 68.2617 603.772 67.2017 605.282C64.6017 608.982 62.0217 612.702 59.4017 616.392C52.1117 626.672 44.8217 636.942 37.5217 647.212C34.4617 651.522 31.4017 655.822 28.1417 660.402C27.8217 659.682 27.6117 659.412 27.6117 659.152C27.5917 641.732 27.5317 624.312 27.6117 606.892C27.6217 604.182 26.8217 603.142 24.0217 603.242C17.8317 603.442 11.6317 603.532 5.45171 603.372C2.34171 603.292 1.59171 604.462 1.61171 607.412C1.79171 629.762 1.81171 652.122 1.89171 674.472C1.95171 691.052 2.04171 707.642 2.11171 724.222C2.13171 729.272 2.12171 729.282 7.02171 729.292C12.7917 729.302 18.5717 729.122 24.3417 729.362C27.4517 729.492 28.2717 728.422 28.2317 725.442C28.0117 709.282 27.9717 693.112 27.8717 676.952C27.8717 675.862 27.8717 674.772 27.8717 673.542C30.2617 676.932 32.4017 680.122 34.7017 683.202C45.4817 697.612 56.3017 711.992 67.1217 726.382C68.6017 728.352 70.2917 729.472 73.0917 729.392C81.4817 729.142 89.8817 729.312 98.2817 729.292V729.282Z" fill="white"/>
<path d="M695.971 698.792C697.911 688.602 697.081 678.972 690.391 670.472C682.591 660.572 671.131 656.622 660.221 651.742C654.861 649.342 649.441 646.992 644.371 644.072C639.501 641.262 637.581 634.382 639.831 629.252C643.871 620.032 657.841 617.092 664.131 624.462C666.241 626.942 667.471 630.242 668.781 633.302C669.511 634.992 670.291 635.682 672.191 635.632C677.541 635.492 682.901 635.562 688.251 635.562C690.411 635.562 692.571 635.562 694.941 635.562C694.411 627.982 692.881 621.362 689.001 615.342C682.761 605.662 673.421 600.782 662.551 599.202C650.051 597.382 638.041 599.492 627.611 607.242C613.661 617.602 610.981 631.142 614.081 644.952C616.681 656.542 625.821 663.362 636.151 668.072C644.081 671.692 652.491 674.242 660.471 677.772C669.651 681.842 673.541 687.892 669.521 697.942C667.341 703.402 660.601 707.622 654.271 707.432C647.531 707.222 642.221 704.342 639.531 697.912C638.121 694.542 637.321 690.912 636.221 687.332H611.361C610.561 693.892 611.871 699.922 614.101 705.412C620.331 720.752 632.821 727.842 648.731 729.092C654.491 729.542 660.391 728.682 666.181 728.052C673.871 727.222 680.311 723.542 685.841 718.312C691.451 713.012 694.531 706.312 695.971 698.792Z" fill="white"/>
<path d="M1062.98 686.033C1062.74 680.933 1061.43 676.273 1058.77 671.833C1054.13 664.083 1046.82 659.673 1039.13 655.883C1030.26 651.523 1021.11 647.753 1012.11 643.643C1008.77 642.113 1006.17 639.523 1005.6 635.923C1004.47 628.693 1006.94 623.953 1013.21 620.673C1019.9 617.173 1028.42 618.893 1032.08 624.393C1033.97 627.233 1034.87 630.733 1036.28 634.083H1061.19C1061.16 627.123 1059.55 620.963 1056.25 615.353C1050.83 606.133 1042.65 600.823 1032.19 598.593C1022.4 596.503 1012.71 596.783 1003.58 600.533C992.182 605.213 983.612 612.943 980.632 625.713C978.952 632.933 979.032 639.913 981.692 646.793C985.132 655.683 991.912 661.503 1000.26 665.343C1009.04 669.383 1018.17 672.663 1027.08 676.453C1031.22 678.213 1035.35 680.653 1036.62 685.143C1038.62 692.233 1037.17 697.983 1030.87 702.663C1024.82 707.153 1019.2 707.373 1012.78 703.923C1007.27 700.963 1004.48 696.053 1004.02 689.883C1003.81 687.033 1002.97 685.603 999.662 685.753C993.272 686.033 986.862 685.913 980.462 685.793C978.192 685.753 977.312 686.613 977.722 688.743C978.742 694.013 979.202 699.503 981.022 704.483C985.562 716.903 995.302 723.623 1007.8 726.563C1015.94 728.473 1024.15 728.493 1032.43 726.843C1039.62 725.413 1046.06 722.613 1051.41 717.653C1060.63 709.113 1063.57 698.213 1062.99 686.023L1062.98 686.033Z" fill="white"/>
<path d="M488.132 724.662C488.142 727.262 488.902 728.062 491.532 728.022C504.112 727.822 516.702 727.822 529.292 727.742C536.952 727.692 544.612 727.662 552.262 727.472C553.252 727.442 555.042 726.512 555.062 725.952C555.252 718.972 555.192 711.982 555.192 704.762H513.422V601.742H487.362C487.362 604.902 487.342 607.822 487.362 610.742C487.632 648.722 487.932 686.702 488.132 724.682V724.662Z" fill="white"/>
<path d="M427.071 708.221C427.121 705.611 426.171 704.751 423.571 704.781C412.341 704.891 401.111 704.821 389.881 704.831C385.301 704.831 385.301 704.861 385.291 700.371C385.251 668.771 385.171 637.171 385.231 605.581C385.231 602.551 384.391 601.561 381.331 601.681C375.461 601.921 369.581 601.751 363.701 601.801C359.531 601.841 359.291 602.121 359.291 606.281C359.311 645.541 359.331 684.801 359.341 724.061C359.341 725.201 359.341 726.341 359.341 727.741C360.171 727.891 360.571 728.021 360.971 728.021C382.071 728.021 403.171 727.981 424.261 728.001C426.511 728.001 427.141 726.991 427.101 724.921C427.001 719.361 426.951 713.791 427.061 708.231L427.071 708.221Z" fill="white"/>
<path d="M438.701 720.05C438.701 721.73 438.801 723.41 438.701 725.08C438.571 727.26 439.471 728.04 441.651 728C447.941 727.9 454.231 727.97 460.531 727.96C463.411 727.96 464.848 726.52 464.841 723.64C464.641 684.1 464.441 644.56 464.221 605.02C464.221 603.9 464.101 602.79 464.041 601.66H438.281C438.281 603.15 438.281 604.49 438.281 605.83C438.421 643.9 438.561 681.96 438.701 720.03V720.05Z" fill="white"/>
<path d="M325.752 767.623C303.672 767.913 287.742 784.603 288.602 805.223C286.622 823.933 304.842 844.683 330.202 842.243C346.362 840.693 365.642 826.163 363.672 801.773C362.092 782.263 346.472 767.343 325.752 767.613V767.623ZM337.132 826.203C326.822 832.133 311.112 828.403 306.332 816.693C304.842 813.053 303.942 809.173 302.772 805.393C303.032 805.303 303.292 805.223 303.552 805.133C303.452 795.543 307.242 788.043 315.852 783.503C326.412 777.943 338.852 781.633 345.042 791.723C352.092 803.233 348.642 819.573 337.132 826.193V826.203Z" fill="white"/>
<path d="M41.5616 771.352C31.4316 770.852 21.2816 770.512 11.1416 770.132C10.3416 770.102 9.53156 770.272 8.60156 770.362V842.742C20.4316 842.152 32.0816 841.802 43.7016 840.902C51.5716 840.292 57.6616 835.832 62.4816 829.852C66.1016 825.362 67.6316 819.952 68.6616 814.222C70.7116 802.792 69.0716 792.282 62.1216 782.902C57.0516 776.062 50.3016 771.772 41.5716 771.342L41.5616 771.352ZM52.1516 817.812C49.6316 823.982 45.0416 827.382 38.8316 828.392C34.5316 829.092 30.0516 828.862 25.6616 828.822C24.9416 828.822 23.6016 827.622 23.6016 826.972C23.5216 812.722 23.5816 798.472 23.6216 784.222C23.6216 784.142 23.7316 784.062 23.7816 783.972C23.8816 783.672 23.9816 783.372 24.0816 783.082C29.7516 783.642 35.5416 783.702 41.0716 784.912C47.4616 786.302 51.1716 791.202 52.9716 797.252C55.0216 804.122 54.9316 810.972 52.1516 817.802V817.812Z" fill="white"/>
<path d="M524.512 812.243C530.072 809.423 533.712 804.963 534.872 798.763C535.262 796.693 536.902 794.533 534.962 792.393C537.122 789.183 534.992 786.193 534.102 783.413C530.932 773.523 523.262 769.273 513.442 768.793C504.542 768.363 495.612 768.703 486.692 768.443C483.672 768.353 483.082 769.443 483.092 772.213C483.212 793.833 483.182 815.453 483.202 837.063C483.202 838.103 483.292 839.133 483.362 840.643C487.192 840.643 490.632 840.643 494.082 840.643C498.162 840.643 498.182 840.633 498.172 836.403C498.152 819.613 498.122 802.823 498.102 786.033C498.102 784.803 498.102 783.583 498.102 782.043C502.112 782.043 505.692 782.103 509.282 782.033C514.952 781.923 518.672 784.643 520.632 789.823C522.742 795.433 519.702 805.103 512.192 805.673C508.702 805.943 505.242 806.653 501.532 807.193C502.022 808.193 502.402 809.123 502.912 809.983C508.472 819.463 514.052 828.933 519.652 838.383C520.092 839.133 520.732 840.343 521.302 840.363C526.162 840.523 531.022 840.453 536.632 840.453C530.742 830.733 525.302 821.753 520.022 813.043C521.612 812.773 523.242 812.863 524.502 812.223L524.512 812.243Z" fill="white"/>
<path d="M1051.44 766.381C1050.86 766.211 1050.67 766.111 1050.47 766.101C1048.06 766.061 1045.65 766.021 1043.23 766.001C1038.78 765.951 1038.81 765.951 1038.82 770.551C1038.84 777.321 1038.82 784.091 1038.82 790.651C1038.17 789.871 1037.55 788.841 1036.68 788.131C1028.73 781.651 1018.11 781.311 1009.37 785.741C1002.08 789.441 997.621 795.301 995.631 803.431C993.951 810.311 994.441 816.721 996.981 823.211C999.161 828.761 1002.8 832.641 1007.89 835.881C1014.87 840.331 1022.08 840.531 1029.46 838.521C1032.94 837.571 1035.97 834.991 1039.29 833.101C1039.38 834.491 1039.49 836.121 1039.62 838.121C1042.6 838.121 1045.52 837.931 1048.42 838.171C1051.21 838.401 1051.99 837.441 1051.97 834.661C1051.81 812.941 1051.81 791.221 1051.74 769.501C1051.74 768.411 1051.54 767.311 1051.44 766.361V766.381ZM1023.8 827.221C1015.05 827.371 1007.68 819.191 1007.87 811.031C1008.05 803.571 1014.2 795.341 1023.76 795.361C1032.15 795.381 1040.49 802.301 1039.44 811.261C1040.67 820.241 1031.35 827.081 1023.79 827.211L1023.8 827.221Z" fill="white"/>
<path d="M707.071 769.011C695.281 767.541 683.321 767.401 671.431 766.711C671.341 767.091 671.251 767.471 671.151 767.841C671.121 767.941 671.051 768.041 671.051 768.141C671.071 791.231 671.071 814.311 671.211 837.401C671.211 838.121 672.641 839.391 673.471 839.451C676.711 839.691 679.981 839.411 683.221 839.581C685.591 839.701 686.351 838.821 686.291 836.511C686.151 830.951 686.191 825.381 686.191 819.821C686.191 814.491 685.701 815.211 690.831 814.971C696.021 814.731 701.261 814.501 706.371 813.641C711.431 812.781 715.561 809.811 718.251 805.431C723.171 797.411 724.161 789.211 720.011 780.231C717.241 774.231 713.081 769.771 707.061 769.021L707.071 769.011ZM699.611 801.151C695.991 801.561 692.301 801.341 688.641 801.441C687.021 801.481 686.101 800.991 686.111 799.141C686.171 793.291 686.131 787.431 686.131 780.391C692.001 781.081 697.461 781.411 702.761 782.471C705.581 783.041 707.431 785.441 707.621 788.611C707.701 789.971 707.651 791.331 707.701 792.691C707.901 797.851 703.821 800.681 699.611 801.161V801.151Z" fill="white"/>
<path d="M408.372 770.183C396.852 768.993 385.222 768.773 373.322 768.133V840.823C377.542 840.823 381.502 840.713 385.452 840.863C387.632 840.943 388.402 840.253 388.342 838.033C388.202 831.953 388.262 825.863 388.262 819.783C388.262 818.683 388.372 817.583 388.412 816.883C395.082 816.263 401.352 816.073 407.482 815.033C418.642 813.143 423.492 804.003 424.572 795.133C425.142 790.463 424.252 786.013 422.202 781.553C419.342 775.323 414.972 770.873 408.372 770.193V770.183ZM409.182 797.173C407.962 800.693 404.622 802.203 401.172 802.573C397.552 802.963 393.862 802.783 390.212 802.623C389.522 802.593 388.322 801.503 388.312 800.873C388.172 794.833 388.222 788.793 388.222 781.663C394.142 782.363 399.502 782.733 404.742 783.703C407.702 784.253 409.452 786.753 409.672 789.773C409.852 792.233 409.962 794.913 409.182 797.173Z" fill="white"/>
<path d="M472.671 829.594C472.721 827.704 472.011 827.014 470.081 827.054C465.041 827.164 460.001 827.094 454.971 827.094C449.691 827.094 447.034 824.46 447.001 819.194C446.968 813.594 449.774 810.794 455.421 810.794C460.951 810.794 466.471 810.794 472.291 810.794C472.291 806.924 472.301 803.474 472.291 800.024C472.291 799.204 472.161 798.384 472.081 797.324C470.791 797.324 469.651 797.324 468.511 797.324C462.211 797.324 455.911 797.314 449.611 797.324C448.131 797.324 446.871 797.264 446.891 795.254C446.941 790.754 446.901 786.254 446.901 781.504C447.471 781.684 447.821 781.904 448.171 781.904C455.611 781.964 463.061 782.064 470.501 781.914C471.171 781.904 472.281 780.294 472.381 779.344C472.641 776.854 472.281 774.304 472.481 771.794C472.701 769.044 471.511 768.474 469.011 768.514C458.831 768.654 448.651 768.624 438.461 768.644C436.281 768.644 434.101 768.644 431.711 768.644C431.711 770.364 431.711 771.704 431.711 773.044C431.751 794.464 431.801 815.874 431.831 837.294C431.831 839.134 431.611 840.844 434.431 840.814C446.401 840.724 458.361 840.744 470.331 840.814C472.151 840.814 472.741 840.104 472.691 838.404C472.621 835.464 472.581 832.524 472.661 829.584L472.671 829.594Z" fill="white"/>
<path d="M577.382 801.173C571.812 798.383 566.042 795.993 560.442 793.263C556.852 791.513 555.822 788.973 556.642 785.013C557.192 782.363 560.472 779.793 563.502 779.653C569.442 779.373 571.692 781.193 573.282 787.713H587.812C588.192 782.853 586.712 778.903 584.042 775.263C578.192 767.313 566.202 764.743 555.652 768.533C548.572 771.073 540.882 777.053 541.462 789.763C541.832 797.733 547.892 803.813 555.512 806.903C560.462 808.913 565.492 810.823 570.182 813.353C574.712 815.793 575.472 819.903 572.922 824.153C570.462 828.253 564.932 829.733 560.922 827.693C556.792 825.593 555.572 821.933 554.992 817.663H540.692C539.412 825.493 543.972 834.293 550.842 838.193C557.042 841.713 563.712 841.423 570.372 840.843C581.342 839.893 587.902 831.603 589.082 822.053C590.282 812.273 585.932 805.463 577.382 801.183V801.173Z" fill="white"/>
<path d="M79.2622 770.303V841.853H119.772V828.523H94.3022V812.313C95.5922 812.313 96.7222 812.313 97.8422 812.313C104.032 812.313 110.222 812.293 116.412 812.323C118.022 812.323 119.552 812.173 119.532 810.173C119.502 806.363 119.262 802.563 119.102 798.493H94.3122V783.783C95.1322 783.713 95.7422 783.633 96.3522 783.623C103.272 783.553 110.202 783.553 117.122 783.363C118.072 783.333 119.772 782.433 119.802 781.843C120.042 778.013 119.932 774.163 119.932 770.293H79.2422L79.2622 770.303Z" fill="white"/>
<path d="M235.981 769.422C224.861 769.632 213.741 769.752 202.621 769.652C199.501 769.622 198.771 770.682 198.791 773.622C198.931 795.132 198.901 816.642 198.931 838.152C198.931 838.672 198.731 839.362 198.991 839.692C199.631 840.522 200.471 841.822 201.241 841.832C213.201 841.932 225.161 841.902 237.121 841.752C237.961 841.752 239.481 840.692 239.511 840.062C239.741 836.252 239.621 832.412 239.621 828.202H214.141V810.922C215.211 811.282 215.971 811.772 216.741 811.772C223.351 811.792 229.961 811.852 236.561 811.552C237.531 811.512 239.031 809.732 239.221 808.572C239.631 806.122 239.261 803.552 239.351 801.042C239.421 799.082 238.491 798.492 236.681 798.512C231.961 798.572 227.241 798.542 222.521 798.552C219.731 798.552 216.951 798.552 213.841 798.552C213.841 794.252 213.841 790.382 213.841 786.522C213.841 782.562 213.851 782.542 217.951 782.542C225.061 782.532 232.171 782.542 239.661 782.542C239.661 779.002 239.471 776.062 239.711 773.152C239.961 770.182 238.821 769.382 235.981 769.432V769.422Z" fill="white"/>
<path d="M188.782 769.804C185.422 769.854 182.062 769.984 178.712 769.804C176.672 769.684 175.582 770.554 174.962 772.264C174.222 774.304 173.552 776.384 172.902 778.454C171.472 783.054 170.152 787.684 168.632 792.264C166.982 797.244 165.122 802.154 163.452 807.124C161.892 811.764 160.462 816.444 158.782 821.704C157.922 820.694 157.202 820.204 156.972 819.534C154.162 811.254 151.382 802.954 148.662 794.644C146.282 787.394 144.062 780.084 141.562 772.874C141.172 771.744 139.752 770.254 138.722 770.184C134.462 769.884 130.172 770.054 125.342 770.054C125.592 771.504 125.622 772.454 125.922 773.314C127.072 776.574 128.342 779.794 129.502 783.044C132.342 791.004 135.092 798.994 137.962 806.944C141.932 817.924 145.932 828.894 150.062 839.814C150.432 840.794 151.822 841.954 152.802 842.024C156.562 842.284 160.352 842.194 164.122 842.054C164.842 842.024 165.942 841.354 166.182 840.714C169.032 833.104 171.792 825.464 174.502 817.804C176.982 810.824 179.342 803.814 181.822 796.844C184.712 788.714 187.682 780.604 190.582 772.474C191.152 770.884 190.752 769.804 188.762 769.834L188.782 769.804Z" fill="white"/>
<path d="M843.541 766.331C843.541 770.601 843.481 774.891 843.601 779.181C843.621 779.841 844.341 780.691 844.971 781.091C854.871 787.271 860.671 796.421 862.311 807.661C863.181 813.681 862.281 820.121 861.261 826.221C859.621 836.121 853.571 843.321 845.511 848.981C844.691 849.561 843.721 850.621 843.671 851.501C843.481 855.671 843.581 859.841 843.581 864.081C860.101 860.461 879.391 838.741 877.541 810.011C876.361 791.691 856.441 765.551 843.521 766.321L843.541 766.331Z" fill="white"/>
<path d="M659.511 849.302C649.761 843.252 644.101 834.102 642.551 823.162C640.161 806.302 644.901 791.782 659.871 781.862C660.501 781.442 661.321 780.672 661.331 780.042C661.461 775.592 661.401 771.132 661.401 766.492C640.771 773.232 627.371 793.902 627.481 815.932C627.591 839.282 642.041 858.622 661.581 865.262C661.581 861.162 661.431 857.232 661.641 853.332C661.741 851.382 661.011 850.242 659.511 849.312V849.302Z" fill="white"/>
<path d="M958.852 828.181C958.882 825.791 957.592 824.691 955.372 824.761C950.252 824.901 945.122 825.031 940.012 825.421C935.512 825.771 935.082 825.551 935.062 821.131C935.002 804.341 934.952 787.561 934.882 770.771C934.862 766.281 934.842 766.281 930.232 766.301C927.922 766.311 925.612 766.471 923.312 766.311C920.622 766.131 919.672 767.041 919.712 769.871C919.872 780.671 919.772 791.481 919.772 802.281C919.832 802.281 919.882 802.281 919.942 802.281C919.942 813.191 919.992 824.101 919.902 835.011C919.882 837.421 920.702 838.471 923.132 838.451C934.042 838.371 944.952 838.331 955.862 838.331C957.902 838.331 959.012 837.691 958.882 835.421C958.742 833.011 958.812 830.601 958.842 828.181H958.852Z" fill="white"/>
<path d="M286.172 828.054C281.142 828.164 276.102 828.154 271.072 828.164C265.032 828.164 265.562 828.814 265.552 822.554C265.522 805.984 265.442 789.404 265.552 772.834C265.572 769.884 264.632 768.944 261.782 769.174C259.072 769.404 256.322 769.364 253.602 769.234C251.252 769.124 250.502 770.084 250.512 772.364C250.582 794.394 250.592 816.424 250.552 838.444C250.552 840.464 251.162 841.214 253.242 841.164C258.592 841.034 263.942 841.074 269.292 841.074C275.672 841.074 282.042 841.074 288.892 841.074C288.892 837.254 288.802 834.014 288.922 830.784C288.992 828.724 288.192 828.004 286.172 828.044V828.054Z" fill="white"/>
<path d="M766.262 785.43C763.712 785.35 762.522 786.62 761.842 788.93C760.502 793.46 759.052 797.96 757.512 802.43C755.232 809.07 752.842 815.68 750.532 822.22C749.382 818.61 748.282 814.92 747.032 811.28C744.522 803.97 741.662 796.76 739.482 789.36C738.482 785.97 736.572 785.53 733.772 785.73C733.042 785.78 732.302 785.78 731.572 785.79C726.572 785.87 724.949 788.263 726.702 792.97C732.122 807.44 737.532 821.91 743.002 836.36C743.762 838.38 744.912 839.85 747.582 839.52C750.062 839.22 752.622 839.59 755.122 839.38C756.062 839.3 757.362 838.6 757.762 837.82C758.872 835.64 759.632 833.27 760.472 830.96C764.002 821.29 767.522 811.61 771.042 801.93C772.962 796.65 774.872 791.37 777.022 785.44C773.082 785.44 769.672 785.52 766.272 785.41L766.262 785.43Z" fill="white"/>
<path d="M980.992 784.662V765.991C977.512 765.991 974.372 766.131 971.252 765.951C968.792 765.801 968.182 766.861 968.242 769.081C968.362 773.381 968.202 777.681 968.342 781.981C968.412 784.191 967.592 785.012 965.422 784.872C963.472 784.742 961.512 784.841 959.192 784.841C959.192 787.761 959.242 790.251 959.172 792.741C959.122 794.521 959.922 795.182 961.632 795.122C963.702 795.052 965.782 795.101 968.382 795.101C968.382 796.791 968.382 798.042 968.382 799.282C968.432 811.242 968.552 823.202 968.502 835.152C968.492 837.642 969.282 838.522 971.752 838.302C973.942 838.112 976.162 838.132 978.352 838.272C981.062 838.452 982.052 837.432 981.992 834.652C981.762 823.752 981.722 812.842 981.592 801.932C981.512 795.302 981.512 795.342 987.942 794.882C988.782 794.822 990.252 794.122 990.292 793.622C990.522 790.752 990.402 787.862 990.402 784.642H980.982L980.992 784.662Z" fill="white"/>
<path d="M804.671 785.252C801.771 785.252 800.318 783.805 800.311 780.912C800.311 776.452 800.311 771.982 800.311 767.212C796.621 767.212 793.491 767.322 790.371 767.172C787.971 767.062 787.261 768.082 787.311 770.332C787.411 775.252 787.341 780.172 787.341 785.352C786.021 785.352 785.091 785.352 784.151 785.352C778.281 785.302 778.251 785.302 778.291 791.032C778.321 796.682 777.631 796.062 783.411 795.872C786.571 795.772 787.571 796.692 787.521 799.922C787.361 810.202 787.521 820.482 787.561 830.762C787.581 836.569 790.461 839.472 796.201 839.472C801.111 839.472 801.171 839.472 801.081 834.622C800.871 822.892 800.671 811.162 800.301 799.432C800.211 796.612 801.201 795.642 803.911 795.882C805.741 796.042 807.591 795.912 809.321 795.912V785.232C807.581 785.232 806.121 785.232 804.671 785.232V785.252Z" fill="white"/>
<path d="M824.581 824.313C820.168 824.326 817.968 826.546 817.981 830.972C817.981 832.332 817.971 833.692 817.981 835.042C818.031 838.372 818.931 839.272 822.251 839.292C824.441 839.302 826.641 839.282 828.831 839.282C831.131 839.282 832.271 838.042 832.401 835.832C832.471 834.582 832.421 833.322 832.411 832.072C832.371 826.892 829.754 824.306 824.561 824.313H824.581Z" fill="white"/>
<path d="M1056.4 365.082C1038.53 331.382 995.342 317.752 957.572 323.082C919.802 328.412 886.052 348.722 853.492 368.592C841.612 330.082 816.742 294.352 780.932 275.872C745.112 257.392 697.972 259.062 667.362 285.282C696.782 274.102 730.982 286.842 753.742 308.582C776.502 330.312 790.232 359.592 803.442 388.152C778.322 402.982 752.292 418.122 723.352 421.792C694.412 425.452 661.532 414.602 648.192 388.662C640.542 373.792 640.232 356.362 640.092 339.642C637.762 66.4322 645 311.5 629.172 45.4814C629.142 45.6314 629.102 0.270293 629.072 0.420293C566.792 264.51 611.782 60.7521 600.512 331.862C598.592 378.002 595.022 424.692 580.122 468.402C578.112 474.282 574.742 481.052 568.552 481.652C561.182 482.372 556.602 473.992 554.332 466.942C544.442 436.212 539.252 403.972 539.012 371.682C529.792 366.582 523.962 382.282 524.242 392.822C525.052 424.182 516.572 455.732 500.122 482.452C471.952 463.342 468.532 423.882 467.942 389.842C462.872 100.102 457.012 290.28 458.262 0.500295C417.852 117.73 418.282 95.5109 419.052 219.501C419.982 368.781 412.5 231 425.702 336.402C425.802 352.562 425.782 369.322 419.052 384.012C406.652 411.092 373.882 423.962 344.162 422.072C314.432 420.182 286.902 406.562 260.282 393.202C272.552 364.662 285.302 335.392 307.162 313.322C329.022 291.252 362.412 277.712 391.762 287.902C363.052 260.322 315.672 258.382 280.572 277.152C245.462 295.922 221.902 331.812 210.132 369.842C181.702 360.532 155.072 346.282 126.572 337.212C98.0724 328.142 66.1524 324.632 38.8424 336.842C-6.40757 357.082 -9.29757 405.682 15.6424 442.902C40.0324 479.302 83.0224 503.522 127.162 502.662C183.662 501.552 236.852 459.322 250.732 404.542C312.882 429.652 385.752 454.272 443.902 420.962C445.902 439.402 448.152 458.602 458.262 474.152C468.372 489.702 488.902 500.162 505.892 492.742C524.542 484.612 529.642 460.972 531.712 440.732C535.812 462.182 543.112 487.402 563.962 493.902C581.212 499.282 600.102 487.872 609.292 472.312C618.482 456.762 620.252 438.072 621.812 420.072C680.582 453.522 760.302 445.042 810.722 399.982C833.302 469.752 916.352 513.372 986.602 492.362C1013.12 484.432 1037.71 468.032 1052.08 444.372C1066.46 420.712 1069.38 389.562 1056.41 365.112L1056.4 365.082ZM177.942 372.062C169.102 395.442 158.572 418.632 144.202 439.172C133.172 454.952 118.832 470.902 100.142 477.462C75.1324 486.222 45.9324 468.922 33.3724 447.232C23.9624 430.982 17.8424 408.652 23.2824 390.152C28.1024 373.772 41.7824 361.472 55.7724 352.612C79.4924 337.592 108.982 342.252 134.112 350.812C137.072 351.822 179.242 368.592 177.932 372.072L177.942 372.062ZM1026.83 447.222C1014.27 468.912 985.072 486.222 960.062 477.452C941.382 470.902 927.042 454.942 916.002 439.162C901.632 418.612 891.112 395.432 882.262 372.052C880.952 368.582 923.122 351.812 926.082 350.792C951.212 342.232 980.702 337.572 1004.42 352.592C1018.41 361.452 1032.09 373.742 1036.91 390.132C1042.35 408.632 1036.23 430.962 1026.82 447.212L1026.83 447.222Z" fill="white"/>
<path d="M526.955 538.233L494.697 505.975L462.439 538.233L494.697 570.491L526.955 538.233Z" fill="white"/>
<path d="M610.991 538.227L578.732 505.969L546.474 538.227L578.732 570.485L610.991 538.227Z" fill="white"/>
<path d="M754.768 224.211L722.51 191.953L690.252 224.211L722.51 256.47L754.768 224.211Z" fill="white"/>
<path d="M372.743 224.217L340.484 191.959L308.226 224.217L340.484 256.475L372.743 224.217Z" fill="white"/>
</svg>
