<svg width="3490" height="1124" viewBox="0 0 3490 1124" fill="none" xmlns="http://www.w3.org/2000/svg">
<g clip-path="url(#clip0_1111_4474)">
<path d="M558.435 3.23658C566.898 -3.60801 572.772 0.785477 579.616 13.5035C589.976 32.8348 605.006 50.2238 620.453 66.0865C645.334 91.5688 678.03 105.304 710.403 118.623C717.896 121.722 727.006 121.768 735.377 121.861C783.104 122.462 830.877 124.497 878.466 122.554C926.193 120.566 960.231 143.366 986.546 178.236C996.998 192.064 1001.99 212.644 1002.87 230.495C1005.32 278.731 1003.89 327.152 1004.63 375.48C1005.6 435.879 1036.22 481.572 1079.46 520.234C1092.82 532.166 1108.27 541.832 1127 555.706V570.32C1090.83 581.096 1067.8 608.89 1046.11 635.575C1018.32 669.89 1002.55 710.356 1003.75 756.28C1004.77 796.145 1000.79 836.334 1004.26 875.921C1009.81 939.743 944.599 1002.92 882.489 998.384C840.404 995.286 797.903 997.829 755.587 998.384C684.921 999.263 633.587 1035.66 591.779 1088.61C585.767 1096.24 584.657 1122.6 575.038 1123.02C566.482 1123.39 575.038 1123.02 557.001 1123.21C532.074 1078.72 504.141 1047.31 460.669 1023.64C425.243 1004.3 389.679 997.644 351.063 997.783C314.897 997.922 278.639 996.488 242.567 998.107C181.844 1000.84 118.162 947.558 124.22 880.731C127.457 844.936 124.359 808.632 124.867 772.559C126.116 689.083 86.3898 627.25 22.1524 578.413C17.0652 574.528 9.38818 574.066 1.06369 571.384C0.739955 565.002 0.323731 557.694 0 551.636C46.1085 532.767 75.0592 498.452 97.9979 458.263C118.67 422.005 125.931 382.556 124.96 341.072C124.128 306.572 126.671 271.887 124.359 237.525C121.214 190.538 153.772 145.308 197.291 133.931C215.235 129.26 233.687 124.358 252.047 123.572C292.005 121.907 332.055 123.294 372.059 122.508C435.603 121.259 486.012 94.1586 524.536 44.0729C535.312 30.06 547.105 16.8333 558.481 3.23658H558.435ZM556.4 568.886C550.758 561.209 545.023 553.578 539.52 545.809C534.294 538.409 529.022 531.056 524.351 523.287C512.835 504.186 502.245 484.531 490.22 465.755C473.895 440.273 457.662 414.559 439.164 390.65C431.949 381.354 418.907 371.411 408.039 370.902C361.977 368.728 315.73 370.347 269.575 369.838C251.631 369.653 246.821 377.377 251.215 395.459C269.39 395.459 287.149 394.026 304.492 396.06C313.14 397.078 324.147 402.304 328.818 409.195C357.676 451.835 385.286 495.261 412.71 538.826C427.648 562.55 441.152 587.2 455.674 611.202C469.363 633.91 483.885 656.109 497.389 678.908C511.032 701.986 523.888 704.529 540.584 683.718C553.302 667.855 562.505 649.171 573.512 631.921C593.537 600.658 614.024 569.672 633.864 538.271C654.629 505.435 674.886 472.276 695.373 439.302C696.899 439.625 698.379 439.949 699.905 440.273V724.462C687.372 725.294 674.747 726.081 660.503 727.052C662.029 736.486 663.139 743.701 664.526 752.164C730.799 752.164 795.36 752.395 859.921 751.979C875.182 751.886 881.472 743.469 877.217 727.514C870.049 726.82 863.852 725.109 857.978 725.849C834.207 728.763 826.576 719.883 827.039 695.28C828.611 610.139 827.64 524.905 827.64 439.718C827.64 412.555 840.79 397.633 867.089 394.951C870.789 394.581 874.35 393.239 877.865 392.361C881.379 371.873 868.245 370.162 854.186 370.116C812.61 369.977 771.034 371.179 729.504 369.561C709.109 368.775 699.443 380.059 690.425 394.349C688.066 398.095 687.742 403.182 685.384 406.929C654.213 456.413 623.736 506.406 590.669 554.642C584.056 564.308 576.657 585.998 556.493 569.025L556.4 568.886ZM607.087 221.385C607.087 186.561 597.329 176.571 563.014 176.34C532.583 176.155 521.299 188.272 521.345 221.2C521.345 249.965 537.439 268.187 563.476 268.927C585.258 269.528 607.087 245.757 607.087 221.431V221.385ZM427.463 727.283H242.659C250.937 738.429 255.84 750.915 261.019 751.054C315.221 752.488 369.469 751.933 425.151 751.933C426.029 742.452 426.677 735.284 427.417 727.283H427.463Z" fill="white"/>
<path d="M1544.45 425.985C1550.93 410.34 1543.51 392.404 1527.86 385.924C1512.21 379.443 1494.28 386.873 1487.8 402.518C1481.32 418.163 1488.75 436.099 1504.39 442.58C1520.04 449.06 1537.97 441.63 1544.45 425.985Z" fill="white"/>
<path d="M1439.63 725.252H1324.94V739.635H1439.63V725.252Z" fill="white"/>
<path d="M1712.3 520.1V505.717H1601.96L1519.31 631.047L1439.68 520.1L1428.76 505.717H1324.94V520.1H1366.56L1500.72 712.118L1601.96 558.994V725.252H1573.56V739.635H1712.3V725.252H1670.96V520.1H1712.3Z" fill="white"/>
<path d="M1893.96 732.651L1787.09 504.236H1834.17L1884.67 616.524C1899.51 649.729 1913.76 682.241 1920.33 703.561H1921.16C1927.35 684.369 1943.13 650.469 1958.34 617.495L2010.97 504.189H2056.06L1945.71 732.604H1893.96V732.651Z" fill="white"/>
<path d="M2147.58 504.234V732.649H2103.74V504.234H2147.58Z" fill="white"/>
<path d="M2202.71 732.649V504.234H2259.73C2301.08 557.234 2388.67 666.84 2404.67 691.674H2405.27C2402.31 663.371 2402.59 626.697 2402.59 589.329V504.234H2443.57V732.649H2389.87C2352.23 683.997 2260.01 564.818 2242.25 539.059H2241.65C2243.78 563.94 2243.92 604.221 2243.92 645.381V732.696H2202.76L2202.71 732.649Z" fill="white"/>
<path d="M2569.82 532.909H2475.52V504.189H2708.24V532.909H2613.89V732.604H2569.82V532.909Z" fill="white"/>
<path d="M2750.32 667.117L2720.22 732.649H2676.75L2780.99 504.234H2835.23L2943.96 732.649H2897.44L2866.27 667.117H2750.32ZM2855.54 638.398C2828.76 580.589 2813.68 548.909 2807.16 530.919H2806.75C2799.53 550.898 2782.7 588.959 2761.15 638.398H2855.58H2855.54Z" fill="white"/>
<path d="M3232.36 732.65H3199.11C3197.02 727.794 3195.78 718.036 3195.17 703.283C3181.67 719.654 3155.54 735.887 3104.48 735.887C3019.2 735.887 2973.47 685.894 2973.47 620.87C2973.47 552.424 3022.53 500.951 3112.44 500.951C3182.46 500.951 3225.93 530.503 3234.12 571.016H3190.27C3180.98 547.43 3158.82 528.792 3111.56 528.792C3044.5 528.792 3019.16 570.507 3019.16 619.298C3019.16 664.898 3045.15 707.815 3110.31 707.815C3175.47 707.815 3189.53 674.656 3189.53 639.508V637.195H3109.85V608.476H3232.31V732.65H3232.36Z" fill="white"/>
<path d="M3475.57 627.437H3329.75V703.93H3490L3484.5 732.649H3286.88V504.234H3482.42V532.954H3329.75V598.764H3475.57V627.483V627.437Z" fill="white"/>
</g>
<defs>
<clipPath id="clip0_1111_4474">
<rect width="3490" height="1123.21" fill="white"/>
</clipPath>
</defs>
</svg>
