<svg width="145" height="60" viewBox="0 0 145 60" fill="none" xmlns="http://www.w3.org/2000/svg">
<g clip-path="url(#clip0_1200_696)">
<path d="M15.5591 3.39879C15.623 3.39879 15.6869 3.38029 15.7441 3.3433L18.6989 1.39754C18.8536 1.29496 18.8973 1.08642 18.7947 0.931705C18.6921 0.776986 18.4836 0.733261 18.3289 0.835846L15.3741 2.7816C15.2194 2.88419 15.1756 3.09272 15.2782 3.24744C15.3421 3.34498 15.4498 3.39879 15.5591 3.39879Z" fill="white"/>
<path d="M15.2711 6.58727C15.3351 6.69154 15.446 6.7504 15.5604 6.7504C15.6193 6.7504 15.6798 6.73527 15.7336 6.70163L21.8955 2.99007C22.0552 2.89421 22.1057 2.68735 22.0098 2.52759C21.914 2.36783 21.7071 2.31738 21.5473 2.41323L15.3855 6.1248C15.2257 6.22066 15.1753 6.42751 15.2711 6.58727Z" fill="white"/>
<path d="M15.2353 9.92225C15.2925 9.92225 15.3514 9.90712 15.4035 9.87685L25.2063 4.16571C25.366 4.07153 25.4215 3.86636 25.3274 3.7066C25.2332 3.54684 25.028 3.49134 24.8682 3.58552L15.0655 9.29665C14.9057 9.39083 14.8502 9.596 14.9444 9.75576C15.0066 9.86339 15.1193 9.92225 15.2353 9.92225Z" fill="white"/>
<path d="M14.9611 12.8145C15.0234 12.9238 15.1377 12.9861 15.2538 12.9861C15.3093 12.9861 15.3664 12.9726 15.4186 12.9423L28.2838 5.68064C28.4452 5.58983 28.5024 5.38465 28.4116 5.22321C28.3208 5.06176 28.1156 5.00459 27.9542 5.0954L15.089 12.3571C14.9275 12.4479 14.8703 12.6531 14.9611 12.8145Z" fill="white"/>
<path d="M14.9412 15.8755C15.0034 15.9865 15.1177 16.0487 15.2355 16.0487C15.2909 16.0487 15.3464 16.0353 15.3986 16.0067L29.039 8.45746C29.2022 8.36665 29.261 8.16316 29.1702 8.00003C29.0794 7.83691 28.8759 7.77805 28.7128 7.86886L15.0723 15.4181C14.9092 15.5089 14.8503 15.7124 14.9412 15.8755Z" fill="white"/>
<path d="M28.8288 11.106L15.2337 18.0784C15.0689 18.1625 15.0033 18.366 15.0874 18.5308C15.1463 18.6469 15.2657 18.7141 15.3867 18.7141C15.4389 18.7141 15.491 18.7024 15.5398 18.6771L29.1348 11.7047C29.2996 11.6206 29.3652 11.4171 29.2811 11.2523C29.1971 11.0875 28.9936 11.0219 28.8288 11.106Z" fill="white"/>
<path d="M28.9855 13.7581L15.076 21.2182C14.9128 21.3057 14.8506 21.5092 14.9381 21.674C14.9986 21.7867 15.1147 21.8506 15.2341 21.8506C15.2879 21.8506 15.3417 21.8371 15.3921 21.8102L29.3017 14.3501C29.4648 14.2626 29.527 14.0591 29.4396 13.8943C29.3521 13.7312 29.1486 13.669 28.9838 13.7564L28.9855 13.7581Z" fill="white"/>
<path d="M28.9911 16.9989L15.0984 24.269C14.9336 24.3547 14.8697 24.5582 14.9571 24.723C15.0177 24.8374 15.1337 24.903 15.2548 24.903C15.3069 24.903 15.3607 24.8912 15.4112 24.8643L29.3039 17.5942C29.4687 17.5084 29.5326 17.3049 29.4452 17.1401C29.3594 16.9753 29.1559 16.9131 28.9911 16.9989Z" fill="white"/>
<path d="M29.1402 20.6767C29.305 20.5892 29.3672 20.3858 29.2798 20.2226C29.1923 20.0578 28.9888 19.9956 28.8257 20.083L15.0776 27.3531C14.9128 27.4406 14.8506 27.6441 14.938 27.8072C14.9986 27.9216 15.1146 27.9871 15.2357 27.9871C15.2895 27.9871 15.3433 27.9754 15.3921 27.9485L29.1402 20.6784V20.6767Z" fill="white"/>
<path d="M28.987 22.8764L15.4458 30.1919C15.2827 30.2811 15.2221 30.4845 15.3096 30.6477C15.3701 30.7603 15.4862 30.8243 15.6056 30.8243C15.6594 30.8243 15.7149 30.8108 15.7653 30.7839L29.3066 23.4684C29.4697 23.3793 29.5302 23.1758 29.4428 23.0126C29.3537 22.8495 29.1502 22.789 28.987 22.8764Z" fill="white"/>
<path d="M10.7803 1.43954L13.7351 3.38529C13.7923 3.42229 13.8562 3.44079 13.9201 3.44079C14.0294 3.44079 14.137 3.38697 14.201 3.28943C14.3035 3.13472 14.2598 2.92618 14.1051 2.8236L11.1503 0.877839C10.9956 0.775253 10.7871 0.818978 10.6845 0.973697C10.5819 1.12842 10.6256 1.33695 10.7803 1.43954Z" fill="white"/>
<path d="M7.58433 3.03195L13.7461 6.74351C13.8 6.77547 13.8605 6.79228 13.9194 6.79228C14.0337 6.79228 14.1447 6.73342 14.2086 6.62916C14.3045 6.46939 14.2523 6.26422 14.0943 6.16668L7.93245 2.4568C7.77437 2.36094 7.56751 2.41307 7.46997 2.57116C7.37412 2.73092 7.42625 2.93609 7.58433 3.03363V3.03195Z" fill="white"/>
<path d="M14.4148 9.33718L4.61371 3.62605C4.45394 3.53187 4.24709 3.58737 4.15459 3.74713C4.0621 3.9069 4.11592 4.11375 4.27568 4.20624L14.0784 9.91738C14.1323 9.94765 14.1894 9.96279 14.2466 9.96279C14.3627 9.96279 14.4753 9.90224 14.5376 9.7963C14.6317 9.63653 14.5762 9.42968 14.4165 9.33718H14.4148Z" fill="white"/>
<path d="M1.19662 5.72333L14.0618 12.985C14.1139 13.0153 14.1711 13.0287 14.2266 13.0287C14.3443 13.0287 14.4587 12.9665 14.5192 12.8572C14.6101 12.6957 14.5529 12.4906 14.3914 12.3997L1.52792 5.13641C1.36648 5.0456 1.16131 5.10278 1.07049 5.26422C0.979684 5.42567 1.03686 5.63084 1.19831 5.72165L1.19662 5.72333Z" fill="white"/>
<path d="M0.442649 8.49982L14.0831 16.049C14.1352 16.0776 14.1907 16.0911 14.2462 16.0911C14.3639 16.0911 14.48 16.0289 14.5405 15.9179C14.6297 15.7547 14.5725 15.5513 14.4094 15.4604L0.768904 7.91122C0.605777 7.82209 0.402288 7.88095 0.311475 8.0424C0.222343 8.20552 0.279522 8.40901 0.442649 8.49982Z" fill="white"/>
<path d="M0.345638 11.7465L13.9407 18.719C13.9895 18.7442 14.0416 18.756 14.0938 18.756C14.2165 18.756 14.3342 18.6887 14.3931 18.5726C14.4772 18.4078 14.4133 18.2043 14.2468 18.1203L0.653394 11.1478C0.488585 11.0637 0.285096 11.1277 0.20101 11.2941C0.116924 11.459 0.180829 11.6624 0.34732 11.7465H0.345638Z" fill="white"/>
<path d="M0.177866 14.3922L14.0874 21.8523C14.1379 21.8792 14.1917 21.8927 14.2455 21.8927C14.3649 21.8927 14.4809 21.8288 14.5415 21.7161C14.6289 21.5529 14.5684 21.3478 14.4036 21.2603L0.495712 13.8002C0.332585 13.7127 0.127415 13.7733 0.0399649 13.9381C-0.0474848 14.1012 0.0130572 14.3064 0.177866 14.3938V14.3922Z" fill="white"/>
<path d="M0.179408 17.638L14.0721 24.9081C14.1226 24.9334 14.1747 24.9468 14.2285 24.9468C14.3496 24.9468 14.4673 24.8812 14.5262 24.7669C14.612 24.6021 14.5481 24.3986 14.3849 24.3128L0.492209 17.041C0.3274 16.9553 0.123911 17.0192 0.0381429 17.1823C-0.047625 17.3471 0.0162805 17.5506 0.179408 17.6364V17.638Z" fill="white"/>
<path d="M14.4055 27.3934L0.657384 20.1233C0.492575 20.0358 0.289086 20.0997 0.203319 20.2629C0.115869 20.4277 0.179774 20.6312 0.342902 20.7169L14.091 27.987C14.1415 28.0139 14.1953 28.0257 14.2474 28.0257C14.3685 28.0257 14.4846 27.9601 14.5451 27.8458C14.6326 27.681 14.5687 27.4775 14.4055 27.3917V27.3934Z" fill="white"/>
<path d="M14.037 30.2342L0.495762 22.9187C0.332635 22.8296 0.127465 22.8918 0.0400149 23.0549C-0.0474348 23.218 0.0131073 23.4215 0.176235 23.5107L13.7175 30.8262C13.7679 30.8531 13.8234 30.8665 13.8772 30.8665C13.9966 30.8665 14.1127 30.8026 14.1732 30.6899C14.2607 30.5268 14.2001 30.3233 14.037 30.2342Z" fill="white"/>
<path d="M68.4965 0L48.8203 27.4054H55.4143L68.7117 9.94572L77.0363 20.9324H83.4689L68.4965 0Z" fill="white"/>
<path d="M67.7959 19.8511H65.3086V22.3384H67.7959V19.8511Z" fill="white"/>
<path d="M71.1395 19.8511H68.6523V22.3384H71.1395V19.8511Z" fill="white"/>
<path d="M67.7959 23.0684H65.3086V25.5556H67.7959V23.0684Z" fill="white"/>
<path d="M71.1395 23.0684H68.6523V25.5556H71.1395V23.0684Z" fill="white"/>
<path d="M42.4428 3.51321L46.3882 3.4863C51.3072 3.59393 51.3072 9.5136 51.3072 9.5136C51.3005 9.60946 51.2921 9.70364 51.282 9.79613C50.9742 12.7358 48.4315 14.9355 45.4767 14.9355H43.9564V16.597H46.4252C48.1859 16.597 49.9366 16.2338 51.5225 15.4669C56.751 12.9359 56.4432 8.16486 56.4432 8.16486C56.3087 5.00322 54.7951 3.24077 53.3152 2.27041C52.1363 1.49682 50.7421 1.12012 49.3345 1.12012H32.6602V2.70598H37.2547V26.4334H33.3094V27.947H47.0928V26.4334H42.4445V3.51321H42.4428Z" fill="white"/>
<path d="M100.493 23.8956C100.336 24.3127 99.8633 24.6204 99.5101 24.8559C99.1116 25.1216 98.6811 25.3385 98.2421 25.5286C97.6619 25.7808 97.07 26.0129 96.4561 26.171C96.3653 26.1945 96.2745 26.2164 96.182 26.2366C94.206 26.6755 92.1761 26.2887 90.3044 25.6009C90.2792 25.5908 90.2506 25.5807 90.2337 25.5588C90.2102 25.5303 90.2102 25.4916 90.2102 25.4563C90.2102 25.0325 90.2102 24.6087 90.2102 24.1832V2.4873H94.3187V1.1167H81.1289V2.64875H84.4268V25.5555C84.5075 27.0018 81.9126 27.2725 81.9126 27.2725V28.9206H102.075V23.0699H100.535C100.562 23.344 100.592 23.6333 100.493 23.8973V23.8956Z" fill="white"/>
<path d="M134.736 1.11695L123.167 21.4423L111.203 0.937012L106.158 27.1719L103.059 27.2089V28.9192H113.004V27.1719H109.617L111.815 10.8121L121.366 28.001H122.807L132.428 10.1259L135.058 27.1719H133.437V28.9192H144.177V27.3165H140.465L134.736 1.11695Z" fill="white"/>
<path d="M23.186 57.4051L13.4555 36.2153H10.6992L21.997 60H23.8334L34.916 36.2153H32.2303L23.186 57.4051Z" fill="white"/>
<path d="M40.2657 36.2153H38.5352V60H40.2657V36.2153Z" fill="white"/>
<path d="M48.1563 36.2153H46.4258V60H46.6058H48.1563H62.4813V58.2712H48.1563V36.2153Z" fill="white"/>
<path d="M68.3733 36.2153H66.6445V60H66.8245H68.3733H82.6983V58.2712H68.3733V36.2153Z" fill="white"/>
<path d="M96.9183 36.2153L84.6484 60H87.0802L90.1039 53.712H105.386L108.487 60H110.65L98.5949 36.2153H96.9199H96.9183ZM90.9347 51.9815L97.6481 38.0165L104.533 51.9815H90.9347Z" fill="white"/>
<path d="M123.696 46.6706C118.646 45.6279 116.359 44.454 116.359 42.0979C116.359 40.0076 117.921 38.0366 122.778 38.0366C125.825 38.0366 128.393 39.0322 130.381 40.507L131.494 39.0271C129.367 37.4614 125.931 36.2842 122.934 36.2842C116.961 36.2842 114.231 39.0036 114.231 42.219C114.231 45.4345 117.462 47.3348 123.123 48.475C130.199 49.8978 130.98 51.5106 130.98 53.5337C130.98 55.878 128.649 57.9297 124.096 57.9297C119.544 57.9297 116.46 56.5877 113.994 54.6621L112.906 56.1673C115.545 58.0373 119.322 59.6972 123.903 59.6972C129.782 59.6972 133.122 56.7676 133.122 53.4042C133.122 50.0407 131.412 48.3001 123.7 46.6756L123.696 46.6706Z" fill="white"/>
</g>
<defs>
<clipPath id="clip0_1200_696">
<rect width="145" height="60" fill="white"/>
</clipPath>
</defs>
</svg>
