<svg width="2919" height="1278" viewBox="0 0 2919 1278" fill="none" xmlns="http://www.w3.org/2000/svg">
<circle cx="639" cy="639" r="639" fill="white"/>
<path d="M203.984 766.174L404.323 472.144H447.68L247.341 766.174H203.984ZM203.984 790.593V766.174L235.38 757.203H443.693V790.593H203.984ZM213.453 481.115V447.725H447.68V472.144L415.785 481.115H213.453ZM541.586 795.577C518.994 795.577 498.396 790.095 479.79 779.131C461.517 768.167 446.899 753.383 435.935 734.777C425.303 716.172 419.988 695.407 419.988 672.483C419.988 649.891 425.303 629.458 435.935 611.185C446.899 592.912 461.517 578.46 479.79 567.828C498.396 556.865 518.994 551.383 541.586 551.383C564.511 551.383 585.109 556.699 603.382 567.33C621.655 577.962 636.108 592.58 646.739 611.185C657.703 629.458 663.185 649.891 663.185 672.483C663.185 695.74 657.703 716.671 646.739 735.276C636.108 753.549 621.655 768.167 603.382 779.131C585.109 790.095 564.511 795.577 541.586 795.577ZM541.586 761.689C558.198 761.689 572.817 757.868 585.442 750.226C598.399 742.585 608.532 731.953 615.841 718.332C623.483 704.71 627.303 689.427 627.303 672.483C627.303 655.539 623.483 640.588 615.841 627.631C608.532 614.342 598.399 603.876 585.442 596.235C572.817 588.593 558.198 584.773 541.586 584.773C525.307 584.773 510.688 588.593 497.731 596.235C484.774 603.876 474.641 614.342 467.331 627.631C460.022 640.588 456.368 655.539 456.368 672.483C456.368 689.759 460.022 705.208 467.331 718.83C474.641 732.12 484.774 742.585 497.731 750.226C510.688 757.868 525.307 761.689 541.586 761.689ZM773.245 795.577C749.656 795.577 728.559 790.261 709.954 779.629C691.349 768.998 676.564 754.379 665.601 735.774C654.969 717.169 649.653 696.238 649.653 672.981C649.653 650.057 654.969 629.458 665.601 611.185C676.232 592.58 690.684 577.962 708.957 567.33C727.23 556.699 747.663 551.383 770.255 551.383C791.518 551.383 810.29 556.2 826.569 565.835C843.181 575.47 856.138 588.925 865.441 606.202C875.076 623.146 879.893 642.748 879.893 665.008C879.893 667.666 879.727 670.822 879.395 674.476C879.063 677.799 878.398 681.786 877.402 686.437H674.571V656.536H858.464L846.005 667.5C846.337 650.223 843.347 635.439 837.035 623.146C831.055 610.521 822.25 600.886 810.622 594.241C799.326 587.264 785.538 583.776 769.258 583.776C752.314 583.776 737.53 587.43 724.905 594.74C712.28 602.049 702.313 612.348 695.004 625.638C688.027 638.595 684.538 654.044 684.538 671.985C684.538 689.925 688.193 705.707 695.502 719.328C703.143 732.95 713.609 743.582 726.898 751.223C740.52 758.865 756.135 762.685 773.744 762.685C788.03 762.685 801.153 760.194 813.114 755.21C825.074 749.894 835.207 742.087 843.513 731.787L865.939 754.712C854.976 767.669 841.354 777.802 825.074 785.111C809.127 792.088 791.851 795.577 773.245 795.577ZM954.029 791.59L851.368 556.366H889.741L972.468 752.718H958.016L1045.23 556.366H1084.1L973.963 791.59H954.029ZM890.24 889.268L954.528 756.207L973.963 791.59L928.613 889.268H890.24Z" fill="#58595B"/>
<path d="M219.426 870.994C215.822 870.994 212.746 870.335 210.197 869.016C207.647 867.698 205.384 865.786 203.406 863.281L207.626 859.062C209.076 861.084 210.746 862.622 212.636 863.677C214.525 864.688 216.855 865.193 219.624 865.193C222.348 865.193 224.524 864.6 226.15 863.413C227.82 862.226 228.655 860.6 228.655 858.535C228.655 856.821 228.259 855.436 227.468 854.382C226.677 853.327 225.601 852.47 224.238 851.811C222.92 851.107 221.469 850.492 219.887 849.965C218.305 849.393 216.723 848.8 215.141 848.185C213.559 847.526 212.108 846.734 210.79 845.812C209.471 844.845 208.395 843.592 207.56 842.054C206.769 840.516 206.373 838.582 206.373 836.253C206.373 833.66 206.988 831.462 208.219 829.66C209.493 827.814 211.207 826.408 213.361 825.441C215.558 824.43 218.019 823.925 220.744 823.925C223.733 823.925 226.414 824.518 228.787 825.705C231.16 826.848 233.094 828.364 234.588 830.254L230.369 834.473C229.007 832.891 227.534 831.704 225.952 830.913C224.414 830.122 222.634 829.726 220.612 829.726C218.151 829.726 216.196 830.276 214.745 831.374C213.295 832.429 212.57 833.923 212.57 835.857C212.57 837.395 212.965 838.648 213.756 839.615C214.591 840.538 215.668 841.329 216.987 841.988C218.305 842.647 219.755 843.262 221.338 843.834C222.964 844.361 224.568 844.955 226.15 845.614C227.732 846.273 229.182 847.108 230.501 848.119C231.819 849.13 232.874 850.448 233.665 852.074C234.5 853.656 234.918 855.656 234.918 858.073C234.918 862.117 233.511 865.281 230.699 867.566C227.93 869.852 224.172 870.994 219.426 870.994ZM242.281 870.335V839.021H248.214V870.335H242.281ZM245.247 832.759C244.148 832.759 243.247 832.407 242.544 831.704C241.841 830.957 241.489 830.034 241.489 828.935C241.489 827.88 241.841 827.001 242.544 826.298C243.247 825.551 244.148 825.178 245.247 825.178C246.346 825.178 247.247 825.551 247.95 826.298C248.653 827.001 249.005 827.88 249.005 828.935C249.005 830.034 248.653 830.957 247.95 831.704C247.247 832.407 246.346 832.759 245.247 832.759ZM256.957 870.335V839.021H262.89V870.335H256.957ZM278.119 870.335V851.415C278.119 849.086 277.393 847.262 275.943 845.943C274.537 844.581 272.757 843.9 270.603 843.9C269.153 843.9 267.857 844.207 266.714 844.823C265.571 845.438 264.648 846.295 263.945 847.394C263.242 848.492 262.89 849.811 262.89 851.349L260.451 850.162C260.451 847.789 260.957 845.724 261.967 843.966C263.022 842.208 264.451 840.845 266.252 839.878C268.054 838.868 270.076 838.362 272.317 838.362C274.515 838.362 276.492 838.846 278.25 839.812C280.052 840.779 281.459 842.142 282.47 843.9C283.524 845.658 284.052 847.745 284.052 850.162V870.335H278.119ZM299.28 870.335V851.415C299.28 849.086 298.555 847.262 297.105 845.943C295.698 844.581 293.94 843.9 291.831 843.9C290.38 843.9 289.062 844.207 287.875 844.823C286.733 845.438 285.81 846.295 285.106 847.394C284.403 848.492 284.052 849.811 284.052 851.349L280.69 850.162C280.821 847.745 281.459 845.68 282.601 843.966C283.788 842.208 285.304 840.845 287.15 839.878C288.996 838.868 291.018 838.362 293.215 838.362C295.5 838.362 297.544 838.846 299.346 839.812C301.148 840.779 302.576 842.142 303.631 843.9C304.73 845.658 305.279 847.767 305.279 850.228V870.335H299.28ZM329.833 870.994C327.46 870.994 325.307 870.511 323.373 869.544C321.483 868.533 319.967 867.149 318.824 865.391C317.681 863.633 317.044 861.633 316.912 859.392V849.965C317.044 847.679 317.681 845.68 318.824 843.966C320.011 842.208 321.549 840.845 323.439 839.878C325.373 838.868 327.504 838.362 329.833 838.362C332.69 838.362 335.261 839.087 337.546 840.538C339.876 841.988 341.7 843.944 343.018 846.405C344.336 848.866 344.996 851.635 344.996 854.711C344.996 857.788 344.336 860.556 343.018 863.017C341.7 865.479 339.876 867.434 337.546 868.885C335.261 870.291 332.69 870.994 329.833 870.994ZM328.845 865.391C330.822 865.391 332.558 864.929 334.052 864.006C335.547 863.083 336.733 861.831 337.612 860.249C338.491 858.623 338.931 856.755 338.931 854.645C338.931 852.58 338.491 850.734 337.612 849.108C336.733 847.482 335.547 846.229 334.052 845.35C332.558 844.427 330.844 843.966 328.91 843.966C326.933 843.966 325.197 844.427 323.702 845.35C322.208 846.229 321.044 847.482 320.209 849.108C319.374 850.734 318.956 852.602 318.956 854.711C318.956 856.777 319.352 858.623 320.143 860.249C320.978 861.831 322.142 863.083 323.637 864.006C325.175 864.929 326.911 865.391 328.845 865.391ZM313.353 883.454V839.021H319.286V847.262L318.165 854.843L319.286 862.49V883.454H313.353ZM351.722 870.335V823.266H357.655V870.335H351.722ZM366.402 870.335V839.021H372.335V870.335H366.402ZM369.368 832.759C368.27 832.759 367.369 832.407 366.665 831.704C365.962 830.957 365.611 830.034 365.611 828.935C365.611 827.88 365.962 827.001 366.665 826.298C367.369 825.551 368.27 825.178 369.368 825.178C370.467 825.178 371.368 825.551 372.071 826.298C372.774 827.001 373.126 827.88 373.126 828.935C373.126 830.034 372.774 830.957 372.071 831.704C371.368 832.407 370.467 832.759 369.368 832.759ZM385.561 870.335V834.341C385.561 832.012 386.067 829.99 387.077 828.276C388.088 826.518 389.473 825.134 391.231 824.123C393.032 823.112 395.12 822.607 397.493 822.607C399.295 822.607 400.855 822.914 402.174 823.529C403.492 824.145 404.701 825.046 405.8 826.232L401.91 830.056C401.339 829.441 400.702 828.979 399.998 828.671C399.295 828.32 398.438 828.144 397.427 828.144C395.538 828.144 394.065 828.693 393.01 829.792C392 830.891 391.494 832.407 391.494 834.341V870.335H385.561ZM377.848 844.427V839.021H401.449V844.427H377.848ZM416.727 870.599L403.147 839.021H409.74L419.826 863.743H417.716L428.33 839.021H434.922L420.287 870.599H416.727ZM407.762 883.454L416.991 864.534L420.287 870.599L414.354 883.454H407.762ZM467.71 851.745L449.713 824.584H456.898L471.402 846.8H468.171L482.74 824.584H489.794L471.665 851.745H467.71ZM466.655 870.335V847.657H472.852V870.335H466.655ZM500.578 870.994C497.501 870.994 494.733 870.269 492.271 868.819C489.81 867.368 487.855 865.413 486.404 862.952C484.954 860.446 484.229 857.656 484.229 854.579C484.229 851.547 484.954 848.822 486.404 846.405C487.855 843.944 489.81 841.988 492.271 840.538C494.733 839.087 497.501 838.362 500.578 838.362C503.61 838.362 506.357 839.087 508.818 840.538C511.323 841.944 513.301 843.878 514.751 846.339C516.202 848.8 516.927 851.547 516.927 854.579C516.927 857.656 516.202 860.446 514.751 862.952C513.301 865.413 511.323 867.368 508.818 868.819C506.357 870.269 503.61 870.994 500.578 870.994ZM500.578 865.259C502.555 865.259 504.313 864.797 505.852 863.874C507.39 862.952 508.598 861.699 509.477 860.117C510.356 858.491 510.796 856.645 510.796 854.579C510.796 852.558 510.334 850.756 509.411 849.174C508.532 847.591 507.324 846.361 505.786 845.482C504.291 844.559 502.555 844.097 500.578 844.097C498.6 844.097 496.842 844.559 495.304 845.482C493.766 846.361 492.557 847.591 491.678 849.174C490.799 850.756 490.36 852.558 490.36 854.579C490.36 856.645 490.799 858.491 491.678 860.117C492.557 861.699 493.766 862.952 495.304 863.874C496.842 864.797 498.6 865.259 500.578 865.259ZM536.269 870.994C533.676 870.994 531.347 870.423 529.281 869.28C527.259 868.094 525.677 866.467 524.535 864.402C523.392 862.336 522.821 859.941 522.821 857.216V839.021H528.754V856.953C528.754 858.667 529.039 860.161 529.611 861.435C530.226 862.666 531.105 863.611 532.248 864.27C533.39 864.929 534.731 865.259 536.269 865.259C538.598 865.259 540.422 864.534 541.741 863.083C543.059 861.589 543.718 859.546 543.718 856.953V839.021H549.651V857.216C549.651 859.941 549.08 862.336 547.937 864.402C546.795 866.467 545.213 868.094 543.191 869.28C541.213 870.423 538.906 870.994 536.269 870.994ZM557.603 870.335V839.021H563.537V870.335H557.603ZM563.537 852.47L561.295 851.481C561.295 847.482 562.218 844.295 564.064 841.922C565.91 839.549 568.569 838.362 572.041 838.362C573.623 838.362 575.051 838.648 576.326 839.219C577.6 839.747 578.787 840.648 579.885 841.922L575.996 845.943C575.337 845.24 574.612 844.735 573.821 844.427C573.029 844.119 572.107 843.966 571.052 843.966C568.854 843.966 567.052 844.669 565.646 846.075C564.24 847.482 563.537 849.613 563.537 852.47ZM620.755 870.994C617.459 870.994 614.404 870.401 611.591 869.214C608.779 867.984 606.318 866.292 604.208 864.138C602.142 861.985 600.538 859.48 599.396 856.623C598.253 853.766 597.682 850.712 597.682 847.46C597.682 844.163 598.253 841.087 599.396 838.23C600.538 835.374 602.142 832.891 604.208 830.781C606.318 828.628 608.757 826.957 611.526 825.771C614.338 824.54 617.393 823.925 620.689 823.925C624.293 823.925 627.457 824.54 630.182 825.771C632.907 827.001 635.324 828.671 637.433 830.781L633.148 835.066C631.698 833.44 629.918 832.165 627.809 831.242C625.743 830.32 623.37 829.858 620.689 829.858C618.272 829.858 616.052 830.298 614.031 831.177C612.009 832.012 610.251 833.22 608.757 834.802C607.262 836.384 606.098 838.252 605.263 840.406C604.472 842.559 604.076 844.911 604.076 847.46C604.076 850.009 604.472 852.36 605.263 854.513C606.098 856.667 607.262 858.535 608.757 860.117C610.251 861.699 612.009 862.93 614.031 863.809C616.052 864.644 618.272 865.061 620.689 865.061C623.546 865.061 626.029 864.6 628.138 863.677C630.248 862.71 632.028 861.413 633.478 859.787L637.763 864.006C635.653 866.204 633.17 867.918 630.314 869.148C627.501 870.379 624.315 870.994 620.755 870.994ZM657.596 870.994C654.52 870.994 651.751 870.269 649.29 868.819C646.829 867.368 644.873 865.413 643.423 862.952C641.972 860.446 641.247 857.656 641.247 854.579C641.247 851.547 641.972 848.822 643.423 846.405C644.873 843.944 646.829 841.988 649.29 840.538C651.751 839.087 654.52 838.362 657.596 838.362C660.629 838.362 663.375 839.087 665.837 840.538C668.342 841.944 670.319 843.878 671.77 846.339C673.22 848.8 673.945 851.547 673.945 854.579C673.945 857.656 673.22 860.446 671.77 862.952C670.319 865.413 668.342 867.368 665.837 868.819C663.375 870.269 660.629 870.994 657.596 870.994ZM657.596 865.259C659.574 865.259 661.332 864.797 662.87 863.874C664.408 862.952 665.617 861.699 666.496 860.117C667.375 858.491 667.814 856.645 667.814 854.579C667.814 852.558 667.353 850.756 666.43 849.174C665.551 847.591 664.342 846.361 662.804 845.482C661.31 844.559 659.574 844.097 657.596 844.097C655.618 844.097 653.86 844.559 652.322 845.482C650.784 846.361 649.575 847.591 648.696 849.174C647.818 850.756 647.378 852.558 647.378 854.579C647.378 856.645 647.818 858.491 648.696 860.117C649.575 861.699 650.784 862.952 652.322 863.874C653.86 864.797 655.618 865.259 657.596 865.259ZM702.78 870.335V852.074C702.78 849.701 702.033 847.745 700.539 846.207C699.045 844.669 697.111 843.9 694.738 843.9C693.156 843.9 691.749 844.251 690.519 844.955C689.288 845.658 688.321 846.625 687.618 847.855C686.915 849.086 686.563 850.492 686.563 852.074L684.124 850.69C684.124 848.317 684.651 846.207 685.706 844.361C686.761 842.515 688.233 841.065 690.123 840.01C692.013 838.912 694.144 838.362 696.518 838.362C698.891 838.362 700.978 838.955 702.78 840.142C704.626 841.329 706.077 842.889 707.131 844.823C708.186 846.712 708.713 848.734 708.713 850.888V870.335H702.78ZM680.63 870.335V839.021H686.563V870.335H680.63ZM721.172 870.335V825.903H727.106V870.335H721.172ZM713.459 844.427V839.021H734.819V844.427H713.459ZM740.631 870.335V839.021H746.564V870.335H740.631ZM746.564 852.47L744.322 851.481C744.322 847.482 745.245 844.295 747.091 841.922C748.937 839.549 751.596 838.362 755.068 838.362C756.65 838.362 758.078 838.648 759.353 839.219C760.627 839.747 761.814 840.648 762.913 841.922L759.023 845.943C758.364 845.24 757.639 844.735 756.848 844.427C756.057 844.119 755.134 843.966 754.079 843.966C751.882 843.966 750.08 844.669 748.673 846.075C747.267 847.482 746.564 849.613 746.564 852.47ZM779.376 870.994C776.52 870.994 773.927 870.291 771.598 868.885C769.268 867.434 767.422 865.479 766.06 863.017C764.742 860.556 764.082 857.788 764.082 854.711C764.082 851.635 764.742 848.866 766.06 846.405C767.422 843.944 769.246 841.988 771.532 840.538C773.861 839.087 776.476 838.362 779.376 838.362C781.75 838.362 783.859 838.868 785.705 839.878C787.595 840.845 789.111 842.208 790.254 843.966C791.396 845.68 792.034 847.679 792.166 849.965V859.392C792.034 861.633 791.396 863.633 790.254 865.391C789.155 867.149 787.661 868.533 785.771 869.544C783.925 870.511 781.794 870.994 779.376 870.994ZM780.365 865.391C783.31 865.391 785.683 864.402 787.485 862.424C789.287 860.403 790.188 857.832 790.188 854.711C790.188 852.558 789.77 850.69 788.935 849.108C788.144 847.482 787.002 846.229 785.507 845.35C784.013 844.427 782.277 843.966 780.299 843.966C778.322 843.966 776.564 844.427 775.026 845.35C773.531 846.273 772.345 847.547 771.466 849.174C770.631 850.756 770.213 852.58 770.213 854.645C770.213 856.755 770.631 858.623 771.466 860.249C772.345 861.831 773.553 863.083 775.091 864.006C776.63 864.929 778.388 865.391 780.365 865.391ZM789.792 870.335V861.897L790.913 854.25L789.792 846.669V839.021H795.791V870.335H789.792ZM818.735 870.994C815.658 870.994 812.868 870.269 810.362 868.819C807.901 867.368 805.946 865.413 804.495 862.952C803.089 860.446 802.386 857.678 802.386 854.645C802.386 851.569 803.089 848.8 804.495 846.339C805.946 843.878 807.901 841.944 810.362 840.538C812.868 839.087 815.658 838.362 818.735 838.362C821.152 838.362 823.393 838.824 825.459 839.747C827.524 840.626 829.304 841.922 830.799 843.636L826.843 847.591C825.876 846.449 824.69 845.592 823.283 845.02C821.921 844.405 820.405 844.097 818.735 844.097C816.757 844.097 814.999 844.559 813.461 845.482C811.923 846.361 810.714 847.591 809.835 849.174C808.956 850.756 808.517 852.58 808.517 854.645C808.517 856.711 808.956 858.535 809.835 860.117C810.714 861.699 811.923 862.952 813.461 863.874C814.999 864.797 816.757 865.259 818.735 865.259C820.405 865.259 821.921 864.973 823.283 864.402C824.69 863.787 825.898 862.908 826.909 861.765L830.799 865.72C829.348 867.39 827.568 868.687 825.459 869.61C823.393 870.533 821.152 870.994 818.735 870.994ZM841.109 870.335V825.903H847.042V870.335H841.109ZM833.396 844.427V839.021H854.755V844.427H833.396ZM869.878 870.994C868.12 870.994 866.45 870.774 864.868 870.335C863.329 869.852 861.901 869.192 860.583 868.357C859.264 867.478 858.121 866.445 857.155 865.259L860.978 861.435C862.121 862.842 863.439 863.896 864.934 864.6C866.428 865.259 868.098 865.588 869.944 865.588C871.79 865.588 873.218 865.281 874.229 864.666C875.24 864.006 875.745 863.105 875.745 861.963C875.745 860.82 875.327 859.941 874.492 859.326C873.701 858.667 872.669 858.139 871.394 857.744C870.12 857.304 868.757 856.887 867.307 856.491C865.9 856.052 864.56 855.502 863.285 854.843C862.011 854.184 860.956 853.283 860.121 852.14C859.33 850.997 858.935 849.481 858.935 847.591C858.935 845.702 859.396 844.076 860.319 842.713C861.242 841.307 862.516 840.23 864.142 839.483C865.813 838.736 867.812 838.362 870.141 838.362C872.603 838.362 874.778 838.802 876.668 839.681C878.602 840.516 880.184 841.79 881.414 843.504L877.591 847.328C876.712 846.185 875.613 845.306 874.295 844.691C873.02 844.076 871.57 843.768 869.944 843.768C868.23 843.768 866.911 844.076 865.988 844.691C865.109 845.262 864.67 846.075 864.67 847.13C864.67 848.185 865.065 848.998 865.856 849.569C866.648 850.14 867.68 850.624 868.955 851.019C870.273 851.415 871.636 851.832 873.042 852.272C874.448 852.668 875.789 853.217 877.063 853.92C878.338 854.623 879.371 855.568 880.162 856.755C880.997 857.941 881.414 859.502 881.414 861.435C881.414 864.38 880.36 866.709 878.25 868.423C876.184 870.137 873.394 870.994 869.878 870.994Z" fill="#58595B"/>
<path d="M1497.47 612.353C1480.25 612.353 1464.27 609.335 1449.51 603.299C1434.76 597.039 1421.79 588.432 1410.61 577.478C1399.66 566.3 1391.16 553.333 1385.13 538.578C1379.31 523.823 1376.41 507.95 1376.41 490.96C1376.41 473.969 1379.31 458.096 1385.13 443.341C1391.16 428.586 1399.66 415.731 1410.61 404.777C1421.79 393.822 1434.65 385.215 1449.18 378.956C1463.93 372.696 1480.03 369.566 1497.47 369.566C1516.25 369.566 1532.79 372.696 1547.1 378.956C1561.4 384.992 1574.04 393.375 1584.99 404.106L1554.14 434.958C1547.66 427.804 1539.72 422.215 1530.33 418.191C1520.94 414.166 1509.99 412.154 1497.47 412.154C1486.51 412.154 1476.45 414.055 1467.29 417.855C1458.34 421.432 1450.52 426.798 1443.81 433.952C1437.1 440.882 1431.96 449.266 1428.39 459.102C1424.81 468.715 1423.02 479.335 1423.02 490.96C1423.02 502.808 1424.81 513.539 1428.39 523.153C1431.96 532.766 1437.1 541.149 1443.81 548.303C1450.52 555.234 1458.34 560.599 1467.29 564.4C1476.45 568.2 1486.51 570.1 1497.47 570.1C1510.66 570.1 1521.95 568.088 1531.34 564.064C1540.95 560.04 1549 554.339 1555.48 546.962L1586.33 577.813C1575.38 588.768 1562.63 597.263 1548.1 603.299C1533.57 609.335 1516.69 612.353 1497.47 612.353ZM1613.34 609V447.03H1657.27V609H1613.34ZM1657.27 519.464L1640.17 508.062C1642.18 488.165 1647.99 472.516 1657.61 461.114C1667.22 449.489 1681.08 443.677 1699.19 443.677C1707.01 443.677 1714.06 445.018 1720.32 447.701C1726.58 450.16 1732.28 454.296 1737.42 460.108L1709.92 491.63C1707.46 488.948 1704.44 486.936 1700.87 485.594C1697.51 484.253 1693.6 483.582 1689.13 483.582C1679.74 483.582 1672.03 486.6 1665.99 492.636C1660.18 498.449 1657.27 507.391 1657.27 519.464ZM1821.93 612.353C1807.62 612.353 1794.88 609.335 1783.7 603.299C1772.75 597.263 1764.14 588.879 1757.88 578.149C1751.62 567.418 1748.49 555.01 1748.49 540.926V447.03H1792.76V539.92C1792.76 546.626 1793.87 552.439 1796.11 557.357C1798.34 562.052 1801.7 565.629 1806.17 568.088C1810.64 570.547 1815.89 571.777 1821.93 571.777C1831.1 571.777 1838.25 568.983 1843.39 563.394C1848.53 557.805 1851.1 549.98 1851.1 539.92V447.03H1895.03V540.926C1895.03 555.234 1891.9 567.753 1885.64 578.484C1879.61 589.215 1871 597.598 1859.82 603.635C1848.87 609.447 1836.24 612.353 1821.93 612.353ZM1985.68 612.689C1976.52 612.689 1967.46 611.459 1958.52 609C1949.8 606.541 1941.75 603.187 1934.38 598.94C1927 594.469 1920.63 589.103 1915.26 582.843L1941.42 556.351C1947.01 562.611 1953.49 567.306 1960.87 570.436C1968.25 573.566 1976.41 575.13 1985.35 575.13C1992.5 575.13 1997.87 574.124 2001.45 572.112C2005.25 570.1 2007.15 567.082 2007.15 563.058C2007.15 558.587 2005.13 555.122 2001.11 552.663C1997.31 550.203 1992.28 548.191 1986.02 546.626C1979.76 544.838 1973.16 542.938 1966.23 540.926C1959.53 538.69 1953.04 535.896 1946.78 532.542C1940.52 528.965 1935.38 524.159 1931.36 518.122C1927.56 511.863 1925.66 503.814 1925.66 493.978C1925.66 483.694 1928.12 474.752 1933.04 467.15C1938.18 459.549 1945.44 453.625 1954.83 449.377C1964.22 445.13 1975.29 443.006 1988.03 443.006C2001.45 443.006 2013.52 445.353 2024.25 450.048C2035.2 454.743 2044.26 461.785 2051.41 471.175L2024.92 497.667C2020 491.63 2014.41 487.271 2008.15 484.588C2002.12 481.905 1995.52 480.564 1988.37 480.564C1981.88 480.564 1976.85 481.57 1973.28 483.582C1969.92 485.594 1968.25 488.389 1968.25 491.966C1968.25 495.99 1970.15 499.12 1973.95 501.355C1977.97 503.591 1983.11 505.603 1989.37 507.391C1995.63 508.956 2002.12 510.857 2008.82 513.092C2015.75 515.104 2022.24 518.011 2028.27 521.811C2034.53 525.612 2039.56 530.642 2043.36 536.902C2047.39 543.161 2049.4 551.209 2049.4 561.046C2049.4 576.919 2043.7 589.55 2032.3 598.94C2020.9 608.106 2005.36 612.689 1985.68 612.689ZM2188.01 609V516.11C2188.01 506.497 2184.99 498.673 2178.95 492.636C2172.92 486.6 2165.09 483.582 2155.48 483.582C2149.22 483.582 2143.63 484.924 2138.71 487.606C2133.79 490.289 2129.88 494.09 2126.98 499.008C2124.29 503.926 2122.95 509.627 2122.95 516.11L2105.85 507.391C2105.85 494.648 2108.53 483.582 2113.9 474.193C2119.26 464.58 2126.64 457.09 2136.03 451.725C2145.64 446.359 2156.6 443.677 2168.89 443.677C2181.19 443.677 2192.03 446.359 2201.42 451.725C2211.03 457.09 2218.52 464.468 2223.89 473.857C2229.25 483.247 2231.94 494.09 2231.94 506.385V609H2188.01ZM2079.02 609V366.548H2122.95V609H2079.02ZM1497.47 921.353C1480.25 921.353 1464.27 918.335 1449.51 912.299C1434.76 906.039 1421.79 897.432 1410.61 886.478C1399.66 875.3 1391.16 862.333 1385.13 847.578C1379.31 832.823 1376.41 816.95 1376.41 799.96C1376.41 782.969 1379.31 767.096 1385.13 752.341C1391.16 737.586 1399.66 724.731 1410.61 713.777C1421.79 702.822 1434.65 694.215 1449.18 687.956C1463.93 681.696 1480.03 678.566 1497.47 678.566C1516.25 678.566 1532.79 681.696 1547.1 687.956C1561.4 693.992 1574.04 702.375 1584.99 713.106L1554.14 743.958C1547.66 736.804 1539.72 731.215 1530.33 727.191C1520.94 723.166 1509.99 721.154 1497.47 721.154C1486.51 721.154 1476.45 723.055 1467.29 726.855C1458.34 730.432 1450.52 735.798 1443.81 742.952C1437.1 749.882 1431.96 758.266 1428.39 768.102C1424.81 777.715 1423.02 788.335 1423.02 799.96C1423.02 811.808 1424.81 822.539 1428.39 832.153C1431.96 841.766 1437.1 850.149 1443.81 857.303C1450.52 864.234 1458.34 869.599 1467.29 873.4C1476.45 877.2 1486.51 879.1 1497.47 879.1C1510.66 879.1 1521.95 877.088 1531.34 873.064C1540.95 869.04 1549 863.339 1555.48 855.962L1586.33 886.813C1575.38 897.768 1562.63 906.263 1548.1 912.299C1533.57 918.335 1516.69 921.353 1497.47 921.353ZM1685.54 921.353C1669.22 921.353 1654.46 917.665 1641.27 910.287C1628.3 902.686 1617.91 892.514 1610.08 879.771C1602.48 866.805 1598.68 852.385 1598.68 836.512C1598.68 820.639 1602.48 806.443 1610.08 793.924C1617.68 781.181 1628.08 771.12 1641.27 763.743C1654.46 756.142 1669.1 752.341 1685.2 752.341C1701.74 752.341 1716.5 756.142 1729.46 763.743C1742.65 771.12 1753.05 781.181 1760.65 793.924C1768.25 806.443 1772.05 820.639 1772.05 836.512C1772.05 852.385 1768.25 866.805 1760.65 879.771C1753.05 892.514 1742.65 902.686 1729.46 910.287C1716.5 917.665 1701.85 921.353 1685.54 921.353ZM1685.2 880.442C1693.47 880.442 1700.74 878.653 1707 875.076C1713.48 871.276 1718.4 866.134 1721.75 859.651C1725.33 852.944 1727.12 845.343 1727.12 836.847C1727.12 828.352 1725.33 820.863 1721.75 814.379C1718.17 807.896 1713.26 802.866 1707 799.289C1700.74 795.489 1693.47 793.588 1685.2 793.588C1677.15 793.588 1670 795.489 1663.74 799.289C1657.48 802.866 1652.56 807.896 1648.98 814.379C1645.41 820.863 1643.62 828.352 1643.62 836.847C1643.62 845.343 1645.41 852.944 1648.98 859.651C1652.56 866.134 1657.48 871.276 1663.74 875.076C1670 878.653 1677.15 880.442 1685.2 880.442ZM1909.32 918V825.11C1909.32 815.497 1906.3 807.673 1900.27 801.636C1894.23 795.6 1886.41 792.582 1876.79 792.582C1870.53 792.582 1864.94 793.924 1860.03 796.606C1855.11 799.289 1851.19 803.09 1848.29 808.008C1845.61 812.926 1844.26 818.627 1844.26 825.11L1827.16 816.391C1827.16 803.648 1829.84 792.582 1835.21 783.193C1840.8 773.58 1848.4 766.09 1858.01 760.725C1867.85 755.359 1878.92 752.677 1891.21 752.677C1903.06 752.677 1913.68 755.695 1923.07 761.731C1932.46 767.543 1939.84 775.256 1945.2 784.869C1950.57 794.259 1953.25 804.431 1953.25 815.385V918H1909.32ZM1800.33 918V756.03H1844.26V918H1800.33ZM2010.48 918V688.626H2054.41V918H2010.48ZM1972.59 794.594V756.03H2092.3V794.594H1972.59ZM2117.01 918V756.03H2160.94V918H2117.01ZM2160.94 828.464L2143.84 817.062C2145.85 797.165 2151.66 781.516 2161.27 770.114C2170.89 758.489 2184.75 752.677 2202.86 752.677C2210.68 752.677 2217.72 754.018 2223.98 756.701C2230.24 759.16 2235.94 763.296 2241.09 769.108L2213.59 800.63C2211.13 797.948 2208.11 795.936 2204.53 794.594C2201.18 793.253 2197.27 792.582 2192.8 792.582C2183.41 792.582 2175.69 795.6 2169.66 801.636C2163.85 807.449 2160.94 816.391 2160.94 828.464ZM2319.67 921.353C2304.92 921.353 2291.61 917.665 2279.77 910.287C2267.92 902.91 2258.64 892.849 2251.93 880.106C2245.23 867.363 2241.87 853.055 2241.87 837.183C2241.87 821.086 2245.23 806.667 2251.93 793.924C2258.64 781.181 2267.92 771.12 2279.77 763.743C2291.61 756.365 2304.92 752.677 2319.67 752.677C2331.3 752.677 2341.69 755.024 2350.86 759.719C2360.02 764.414 2367.29 771.009 2372.66 779.504C2378.24 787.776 2381.26 797.165 2381.71 807.673V866.022C2381.26 876.753 2378.24 886.254 2372.66 894.526C2367.29 902.798 2360.02 909.393 2350.86 914.311C2341.69 919.006 2331.3 921.353 2319.67 921.353ZM2327.72 880.777C2340.02 880.777 2349.96 876.753 2357.56 868.705C2365.17 860.433 2368.97 849.814 2368.97 836.847C2368.97 828.352 2367.18 820.863 2363.6 814.379C2360.25 807.673 2355.44 802.531 2349.18 798.954C2343.15 795.153 2335.99 793.253 2327.72 793.253C2319.67 793.253 2312.52 795.153 2306.26 798.954C2300.22 802.531 2295.41 807.673 2291.84 814.379C2288.48 820.863 2286.81 828.352 2286.81 836.847C2286.81 845.566 2288.48 853.279 2291.84 859.986C2295.41 866.469 2300.22 871.611 2306.26 875.412C2312.52 878.989 2319.67 880.777 2327.72 880.777ZM2366.62 918V874.406L2373.66 834.835L2366.62 795.936V756.03H2410.21V918H2366.62ZM2525.53 921.353C2508.99 921.353 2494.12 917.665 2480.93 910.287C2467.74 902.91 2457.35 892.849 2449.75 880.106C2442.15 867.363 2438.35 853.055 2438.35 837.183C2438.35 821.086 2442.15 806.667 2449.75 793.924C2457.35 781.181 2467.74 771.12 2480.93 763.743C2494.35 756.142 2509.21 752.341 2525.53 752.341C2538.28 752.341 2550.01 754.689 2560.75 759.383C2571.48 764.078 2580.75 770.785 2588.58 779.504L2560.41 808.008C2556.16 803.313 2551.02 799.736 2544.98 797.277C2539.17 794.818 2532.69 793.588 2525.53 793.588C2517.49 793.588 2510.22 795.489 2503.74 799.289C2497.48 802.866 2492.45 807.896 2488.65 814.379C2485.07 820.639 2483.28 828.128 2483.28 836.847C2483.28 845.343 2485.07 852.944 2488.65 859.651C2492.45 866.134 2497.48 871.276 2503.74 875.076C2510.22 878.653 2517.49 880.442 2525.53 880.442C2532.91 880.442 2539.51 879.212 2545.32 876.753C2551.36 874.07 2556.5 870.27 2560.75 865.351L2589.25 893.855C2580.98 902.798 2571.48 909.616 2560.75 914.311C2550.01 919.006 2538.28 921.353 2525.53 921.353ZM2635.32 918V688.626H2679.25V918H2635.32ZM2597.42 794.594V756.03H2717.14V794.594H2597.42ZM2794.24 921.689C2785.07 921.689 2776.02 920.459 2767.07 918C2758.36 915.541 2750.31 912.187 2742.93 907.94C2735.55 903.469 2729.18 898.103 2723.82 891.843L2749.97 865.351C2755.56 871.611 2762.04 876.306 2769.42 879.436C2776.8 882.566 2784.96 884.13 2793.9 884.13C2801.06 884.13 2806.42 883.124 2810 881.112C2813.8 879.1 2815.7 876.082 2815.7 872.058C2815.7 867.587 2813.69 864.122 2809.66 861.663C2805.86 859.203 2800.83 857.191 2794.57 855.626C2788.31 853.838 2781.72 851.938 2774.79 849.926C2768.08 847.69 2761.6 844.896 2755.34 841.542C2749.08 837.965 2743.94 833.159 2739.91 827.122C2736.11 820.863 2734.21 812.814 2734.21 802.978C2734.21 792.694 2736.67 783.752 2741.59 776.15C2746.73 768.549 2754 762.625 2763.39 758.377C2772.78 754.13 2783.84 752.006 2796.58 752.006C2810 752.006 2822.07 754.353 2832.8 759.048C2843.76 763.743 2852.81 770.785 2859.96 780.175L2833.47 806.667C2828.55 800.63 2822.97 796.271 2816.71 793.588C2810.67 790.905 2804.07 789.564 2796.92 789.564C2790.44 789.564 2785.41 790.57 2781.83 792.582C2778.48 794.594 2776.8 797.389 2776.8 800.966C2776.8 804.99 2778.7 808.12 2782.5 810.355C2786.52 812.591 2791.67 814.603 2797.93 816.391C2804.19 817.956 2810.67 819.857 2817.38 822.092C2824.31 824.104 2830.79 827.011 2836.83 830.811C2843.09 834.612 2848.12 839.642 2851.92 845.902C2855.94 852.161 2857.95 860.209 2857.95 870.046C2857.95 885.919 2852.25 898.55 2840.85 907.94C2829.45 917.106 2813.91 921.689 2794.24 921.689Z" fill="white"/>
</svg>
