<?xml version="1.0" encoding="UTF-8"?>
<svg id="Layer_2" data-name="Layer 2" xmlns="http://www.w3.org/2000/svg" viewBox="0 0 500 379.55">
  <defs>
    <style>
      .cls-1 {
        fill: #04346b;
      }

      .cls-2 {
        fill: #818286;
      }

      .cls-3 {
        fill: #5fc182;
      }
    </style>
  </defs>
  <g id="Layer_1-2" data-name="Layer 1">
    <g>
      <path class="cls-1" d="M163.76,151.59c0-33.83,0-67.66,0-101.49,0-3.06,.14-3.2,3.12-3.2,8.76,0,17.53,.06,26.29-.04,1.78-.02,2.1,.65,2.1,2.18-.05,21.7-.07,43.4-.06,65.09,0,1.56-.63,3.75,.73,4.43,.87,.43,2.22-1.67,3.26-2.71,7.73-7.69,15.41-15.43,23.1-23.16,9.98-10.02,19.9-20.1,29.94-30.06,5.74-5.7,12.1-10.45,19.96-13.08,4.73-1.58,9.46-2.66,14.42-2.67,15.84-.03,31.68,0,47.52-.08,1.6,0,1.85,.49,1.84,1.92-.06,9.16-.08,18.33,0,27.49,.02,1.7-.48,2.12-2.15,2.11-15.23-.07-30.47,0-45.7-.06-4.67-.02-8.51,1.71-11.74,4.94-9.6,9.58-19.17,19.18-28.75,28.77-1.99,1.99-1.99,1.98,0,3.97,16.94,16.98,33.87,33.97,50.81,50.95,10.75,10.78,21.47,21.58,32.26,32.32,7.65,7.61,6.78,18.24-1.4,24.99-4.53,3.75-8.78,7.84-13.18,11.74-4.12,3.66-8.22,7.34-12.42,10.92-2.25,1.92-4.45,3.92-6.69,5.86-2.84,2.48-6.33,3.49-9.93,3.5-23.12,.1-46.24,.04-69.36,.08-1.31,0-1.74-.35-1.74-1.68,.04-9.57,.06-19.14-.02-28.71-.01-1.71,.87-1.57,2.01-1.57,20.63,.02,41.25,.02,61.88,0,.97,0,1.86,.08,2.76-.75,4.33-3.99,8.75-7.87,13.18-11.74,1.13-.99,1.47-1.67,.19-2.94-11.84-11.78-23.61-23.61-35.39-35.45-9.33-9.38-18.65-18.78-27.97-28.17-2.66-2.68-5.35-5.34-7.99-8.05-.92-.95-1.61-.87-2.52,.04-8.56,8.6-17.16,17.17-25.74,25.76-1.19,1.19-1.21,2.78-1.21,4.35,0,15.84,0,31.67,0,47.51,0,12.94-.01,25.88,.07,38.81,.01,1.77-.48,2.29-2.26,2.27-8.96-.09-17.93-.07-26.89-.03-1.7,0-2.33-.48-2.33-2.32,.06-34.03,.04-68.06,.04-102.09h-.05Z"/>
      <path class="cls-3" d="M39.35,249.26c0-14.49-.02-28.97,0-43.46,.01-7.54-2.72-13.84-8.14-19.09-6.2-6.01-12.38-12.04-18.37-18.25-3.57-3.7-7.44-7.11-10.74-11.1-2.83-3.42-2.85-9.06,.22-12.14,4.91-4.91,9.79-9.83,14.72-14.72,5-4.96,10.11-9.8,15.02-14.83,4.71-4.82,7.26-10.68,7.27-17.45,.06-28.91,.1-57.82,0-86.72-.02-5.49,2.26-9.02,7.27-11.06,.81-.33,1.54-.38,2.32-.38C73.94,.04,98.95,.07,123.95,0c1.9,0,2.63,.85,2.65,2.42,.07,5.19,.04,10.38,0,15.57,0,1.08-.66,1.71-1.79,1.73-.88,.02-1.75,.03-2.63,.03-20.15,0-40.31,.02-60.46-.04-1.87,0-2.58,.34-2.82,2.45-.27,2.27,.16,4.41,.16,6.61-.01,20.96,.04,41.91-.04,62.87-.02,4.7-.12,9.45-.85,14.07-.86,5.44-2.93,10.56-5.85,15.32-3,4.9-7.15,8.74-11.16,12.74-5.47,5.45-10.88,10.96-16.36,16.39-.89,.88-.8,1.53-.09,2.4,2.04,2.53,4.47,4.69,6.76,6.98,4.13,4.13,8.05,8.48,12.35,12.43,3.35,3.08,6.27,6.47,8.6,10.31,2.44,4.02,4.27,8.32,5.22,13.01,1.21,5.95,1.45,11.95,1.44,17.99-.05,20.35-.02,40.7,0,61.05,0,2.26-.24,4.51-.09,6.79,.11,1.68,.65,1.95,2.13,1.94,13.48-.05,26.96-.03,40.44-.03,7.41,0,14.83,0,22.24,0,2.4,0,2.83,.45,2.84,2.81,0,4.85-.05,9.7,.03,14.55,.03,1.57-.59,2.25-2.09,2.26-.13,0-.27,.01-.4,.02-21.68,.64-43.36,.6-65.04,.31-3.9-.05-7.86-.25-11.79-.48-3.56-.21-7.89-4.74-7.9-8.36-.03-14.96-.01-29.92-.01-44.88h-.07Z"/>
      <path class="cls-3" d="M460.68,56.3c0,13,.02,26-.01,39-.01,5.17,.24,10.26,2.94,14.9,2.18,3.75,5.37,6.59,8.37,9.61,3.85,3.88,7.57,7.89,11.61,11.57,2.77,2.53,5.28,5.33,8.12,7.8,2.36,2.05,4.65,4.34,6.37,6.92,2.49,3.73,3.16,7.96-1.56,12.6-5.73,5.64-11.54,11.2-17.1,17-4.72,4.93-10.09,9.26-14.18,14.81-2.7,3.66-4.43,7.66-4.43,12.26-.02,29.11-.02,58.21-.02,87.32,0,2.98-.2,5.92-2.02,8.46-1.63,2.28-3.79,3.98-6.62,3.9-9.67-.26-19.31,.83-28.97,.7-8.83-.12-17.67,.3-26.48-.13-7.24-.35-14.47-.46-21.7-.48-1.16,0-1.5-.43-1.49-1.55,.04-5.25,.05-10.51-.02-15.76-.03-1.78,.66-2.24,2.39-2.23,21.09,.06,42.19,.02,63.28,.07,1.61,0,2.2-.33,2.2-2.09-.06-24.25-.05-48.51-.05-72.76,0-1.68-.03-3.37,0-5.05,.15-7.21,2.24-13.8,5.76-20.11,2.93-5.24,7.17-9.19,11.25-13.39,3.13-3.22,6.52-6.19,9.41-9.66,1.68-2.02,3.71-3.77,5.71-5.5,.78-.68,1.18-1.57,1.81-2.32,.54-.63,.19-1.37-.51-2.07-4.6-4.54-9.15-9.13-13.67-13.75-5.11-5.22-10.72-10.01-14.26-16.58-2.16-4.01-3.7-8.23-4.78-12.67-.91-3.74-.72-7.48-.72-11.22-.03-24.39,0-48.78,0-73.17,0-2.83-.12-2.97-2.99-2.97-20.49,0-40.98-.01-61.46,0-3.34,0-3.34,.03-3.34-3.24-.01-4.72,.02-9.43-.06-14.15-.03-1.67,.43-2.35,2.28-2.35,24.67,.06,49.33,0,74,.07,6.58,.02,10.91,4.53,10.94,10.96,.07,15.09,.02,30.18,.02,45.27Z"/>
      <path class="cls-2" d="M166.41,349.7c0-6.26,.04-12.52-.04-18.78-.02-1.51,.38-2.04,1.92-1.92,1.67,.14,3.36,.05,5.05,.02,.95-.01,1.55,.21,1.47,1.35-.26,3.53,.49,7.11-.45,10.62-.21,.79,.15,1.52,.64,2.04,.54,.59,1.06-.15,1.61-.28,1.19-.28,1.83-1.31,2.81-1.87,4.34-2.46,11.6-1.89,15.05,2.52,2.21,2.83,3.29,6.24,3.36,9.85,.09,5.25,0,10.5,.05,15.75,.01,1.18-.27,1.74-1.56,1.68-1.68-.08-3.37-.02-5.05-.01-1.28,0-1.89-.44-1.87-1.91,.09-4.78-.03-9.56,.04-14.34,.11-7.83-4.68-8.27-9.73-7.41-2.81,.48-4.87,3.29-4.89,6.14-.03,3.64-.2,7.28,.06,10.9,.14,1.94-1.01,3.74-.24,5.7,.29,.74-.65,.8-1.08,.82-2.02,.08-4.04,.1-6.06,.06-1.34-.03-1.09-1.1-1.09-1.94,0-6.33,0-12.66,0-18.98Z"/>
      <path class="cls-2" d="M108.24,357.78c-3.71,0-7.42,.06-11.12-.02-1.81-.04-1.93,.81-1.39,2.13,1.14,2.78,3.3,4.4,6.22,4.78,3.67,.48,7.28,.36,10.16-2.52,.32-.32,.81-.5,1.1-.32,1.67,1.08,3.7,1.5,5.2,2.88,.73,.68-.14,.76-.36,1.01-2.41,2.7-5.6,4.4-8.96,5.02-8.4,1.55-16.28-.08-20.44-8.81-3.75-7.86-.83-17.41,8.16-21.18,6.67-2.79,13.19-1.98,18.68,2.66,3.86,3.26,5.47,7.95,5.44,13.11,0,1.2-.68,1.27-1.56,1.26-3.71-.01-7.41,0-11.12,0Zm-4.18-5.59c2.29,0,4.57,.02,6.86,0,1.88-.02,2.07-.39,1.31-2.18-.57-1.34-1.52-2.32-2.68-3.14-4.36-3.09-10.49-1.78-13.19,2.45-.52,.81-.68,1.66-.37,2.45,.3,.75,1.19,.39,1.81,.4,2.08,.04,4.17,.02,6.25,.02Z"/>
      <path class="cls-2" d="M145.2,371.19c-6.22-.03-10.81-1.64-14.27-5.77-5.45-6.5-4.89-16.09,1.51-22,5.38-4.96,15.66-5.26,21.79-1.46,1.74,1.08,2.91,2.71,4.55,3.84,.64,.45,.41,1.14-.07,1.29-1.11,.36-1.63,1.33-2.47,1.95-1.33,.99-2.41,1.13-3.91-.22-4.13-3.73-10.47-3.71-14.06-.85-1.95,1.55-2.62,3.69-2.8,5.94-.59,7.18,3.08,10.5,9.98,10.4,2.5-.04,5.19-.84,6.8-2.85,1.41-1.75,2.5-1.66,3.9-.49,1.11,.93,3.01,2.17,2.88,3.02-.19,1.21-1.75,2.44-2.99,3.22-3.58,2.25-7.24,4.5-10.83,3.99Z"/>
      <path class="cls-2" d="M68.08,354.56c0-4.71-.04-9.42,.02-14.13,.02-1.23-.37-1.65-1.61-1.61-2.29,.08-4.58-.02-6.86,.04-1.4,.03-2.06-.41-2.1-1.95-.14-5.73-.18-5.73,5.55-5.73,7.27,0,14.54,.07,21.81-.04,1.84-.03,2.37,.55,2.19,2.28-.14,1.33-.08,2.69-.02,4.03,.05,1.05-.36,1.43-1.41,1.41-2.42-.05-4.85,.07-7.27-.05-1.53-.07-1.94,.44-1.93,1.94,.06,9.22-.01,18.44,.07,27.66,.02,1.77-.48,2.47-2.27,2.27-1.99-.22-4.52,.82-5.85-.56-1.13-1.17-.29-3.6-.32-5.47-.05-3.36-.01-6.73-.01-10.09Z"/>
      <path class="cls-2" d="M346.87,379.53c-3.77,0-7.54,0-11.31,0-1.18,0-2.13,.27-1.2-1.68,2.3-4.82,4.88-9.48,7.43-14.16,.84-1.54,.55-2.54-.82-3.58-3.33-2.54-5.38-6.05-4.79-10.16,.73-5.05,3.62-8.83,8.81-10.44,2.44-.76,4.84-.97,7.31-.23,1.33,.4,1.96-.53,2.46-1.54,1-2.04,2.05-4.05,2.95-6.14,.91-2.11,2.21-.47,3.14-.24,.97,.24,.59,1.26,.15,2.02-1.1,1.9-2.13,3.83-3.24,5.73-.85,1.46-.86,2.69,.56,3.86,2.19,1.81,3.16,4.39,3.32,7.06,.24,4.14-1.46,8.39-5.78,10.94-2.56,1.51-5.27,1.95-8.14,1.66-1.34-.13-2.03,.36-2.63,1.56-1.63,3.29-3.43,6.49-5.16,9.73-1.03,1.92-.71,2.52,1.41,2.52,5.72,.01,11.45,0,17.17,.02,.89,0,1.95-.29,1.92,1.28-.03,1.48-.77,1.79-2.06,1.78-3.84-.04-7.68-.01-11.51-.01Zm10.76-28.33c.42-5.13-4.31-8.82-8.57-8.88-5.15-.07-8.87,4.64-8.95,8.64-.09,4.58,4.44,8.73,8.84,8.9,3.92,.16,9.26-4.22,8.68-8.66Z"/>
      <path class="cls-2" d="M400.91,356.85c-4.18,0-8.35-.01-12.53,0-2.18,0-2.44,.4-1.73,2.5,1.64,4.89,5.18,7.58,10.16,8.22,4.92,.64,9.51-.34,13.24-3.88,1.22-1.16,2.06-.35,2.87,.37,1.02,.91-.13,1.45-.58,1.94-2.77,2.97-6.38,4.46-10.26,4.98-6.35,.85-11.98-.85-16.24-5.87-1.88-2.22-3.13-4.83-3.14-7.86,0-3.07-.37-6.16,1.17-9.07,3.25-6.15,9.29-9.4,16.63-8.75,8.06,.71,12.79,5.72,14.69,12.68,.31,1.14,.22,2.4,.29,3.6,.08,1.26-.83,1.14-1.64,1.14-4.31,0-8.62,0-12.93,0Zm-2.21-3.4c3.5,0,7,0,10.5,0,2.14,0,2.62-.53,2.07-2.5-.84-3.02-2.52-5.39-5.44-6.84-2.51-1.25-5.16-1.27-7.86-1.33-5.34-.1-9.97,3.36-11.43,8.43-.44,1.54-.12,2.29,1.64,2.26,3.5-.06,7-.02,10.5-.02Z"/>
      <path class="cls-2" d="M329.75,355.19c.83,8.95-8.15,16.22-16.59,15.94-10.26-.34-16.74-7.24-16.82-15.74-.09-8.68,6.81-15.83,16.66-16.03,9.21-.18,17.67,7.44,16.75,15.82Zm-16.81,12.45c7.42,.25,13.12-4.85,13.13-12.12,0-6.85-4.23-12.59-12.93-12.75-7.25-.14-12.27,4.95-12.67,11.25-.51,8.08,4.85,13.82,12.47,13.62Z"/>
      <path class="cls-2" d="M261.26,371.16c-7.22-.04-11.92-2.7-15.45-7.37-3.61-4.77-3.01-13.03,.61-17.87,4.71-6.28,13.34-7.97,20.23-5.34,8.34,3.17,12.31,12.17,9.27,20.09-2.49,6.46-9.24,10.75-14.67,10.48Zm-13.94-15.98c0,7.57,5.1,12.43,12.93,12.48,7.55,.05,12.85-5.28,12.84-12.44,0-7.16-5.28-12.78-13.6-12.44-7.35,.3-12.01,4.84-12.17,12.4Z"/>
      <path class="cls-2" d="M206.86,355.17c0-4.45,.05-8.9-.02-13.34-.03-1.65,.55-2.26,2.23-2.26,1.62,0,2.12,.62,2.1,2.17-.01,.92-.64,2.25,.5,2.72,1.28,.53,1.68-.97,2.46-1.64,2.39-2.08,5.15-3.33,8.38-3.4,4.62-.1,8.67,1.04,11.19,5.29,.95,1.61,1.56,3.38,1.82,5.27,.71,5.13,.08,10.28,.23,15.42,.03,1.08-.2,2.21,.06,3.22,.37,1.46,.3,2.32-1.48,2.33-1.52,.01-2.54,.06-2.59-2.18-.11-5.59,.08-11.18-.1-16.77-.12-3.66-1.03-7.21-4.88-8.49-7.12-2.36-15.04,.02-15.56,9.62-.28,5.17-.1,10.37-.04,15.56,.02,1.52-.46,2.25-2.05,2.26-1.57,0-2.31-.52-2.28-2.24,.09-4.51,.03-9.03,.03-13.54Z"/>
      <path class="cls-2" d="M431.32,371.1c-3.37,.32-6.34-1.3-9.21-3.21-.63-.42-1.28-.99-.37-1.73,.58-.47,.67-1.91,2.09-.86,2.27,1.66,4.85,2.49,7.74,2.4,3.18-.09,5.83-1.74,6.18-4.07,.49-3.19-1.28-5.76-4.68-6.63-2.48-.64-4.81-1.61-7.07-2.79-2.66-1.38-4.15-3.56-4.29-6.56-.14-3.15,1.54-5.31,4.11-6.86,4.41-2.65,9.61-1.58,13.58,1.04,.49,.33,1.05,.73,.39,1.44-.62,.67-1.04,1.62-2.28,.94-2.44-1.34-5.07-1.57-7.8-1.22-2.19,.28-3.64,1.52-3.86,3.42-.35,3.14,.53,4.93,2.91,5.68,2.87,.91,5.82,1.6,8.43,3.19,4.36,2.66,5.66,7.05,3.31,11.48-1.08,2.05-4.87,4.67-9.18,4.32Z"/>
      <path class="cls-2" d="M284.58,349.72c0-6.26,.09-12.52-.06-18.78-.05-2,1.04-1.94,2.35-2.02,1.52-.09,1.66,.75,1.66,2.01-.04,12.59-.05,25.18,.02,37.77,.01,1.69-.57,1.99-2.09,2.01-1.58,.02-1.93-.54-1.92-2,.07-6.33,.03-12.66,.03-18.98Z"/>
      <path class="cls-2" d="M374.27,355.22c0,4.51,0,9.02,0,13.53,0,.89,.26,2.15-1.33,1.75-1.05-.26-2.81,.85-2.78-1.66,.1-9.09,.06-18.18,.02-27.27,0-1.5,.54-1.97,2.02-2,1.62-.04,2.13,.57,2.11,2.12-.06,4.51-.02,9.02-.02,13.53Z"/>
      <path class="cls-2" d="M372.27,333.37c-1.23,.02-2.97-1.48-2.77-2.55,.26-1.38,1.32-2.17,2.65-2.38,1.18-.19,2.79,1.23,2.84,2.32,.06,1.3-1.29,2.59-2.72,2.61Z"/>
    </g>
  </g>
</svg>